<svg xmlns="http://www.w3.org/2000/svg" width="103.189" height="125.474" viewBox="0 0 103.189 125.474">
  <g id="Group_10651" data-name="Group 10651" transform="translate(-1898.673 -1180.682)">
    <path id="Path_15930" data-name="Path 15930" d="M2668.362,1446.625a4.256,4.256,0,0,1-8.281,1.516,3.675,3.675,0,0,1-.263-1.384,4.176,4.176,0,0,1,.5-2.021v-.022a4.279,4.279,0,0,1,8.039,1.911Z" transform="translate(-737.841 -238.261)" fill="#fff"/>
    <path id="Path_15926" data-name="Path 15926" d="M1961.809,1416.1c-11.058,0-22.13-.014-33.2.015-2.067-.015-4.119-.015-6.187,0-2.544,0-5.088,0-7.632.014a6.623,6.623,0,0,0-6.2,3.961,13.94,13.94,0,0,0-1.258,4.438c-1.46,13.139-2.819,26.278-4.206,39.417-1.3,12.2-2.616,24.4-3.859,36.613a64.966,64.966,0,0,0-.55,9.757c.289,5.146,3.585,8.21,8.716,8.7.39.029.781.058,1.171.058q7.155.022,14.339,0c.318,0,.651-.072,1.055-.115v-78.1c.462-.029.766-.072,1.055-.072,2.746,0,5.492.015,8.239,0,2.11,0,4.235,0,6.36-.029a1.893,1.893,0,0,1,1.72,1.055c.81,1.185,1.6,2.356,2.414,3.541q8.825,12.966,17.664,25.917c.231.361.491.723.925,1.33v-56.416A3.366,3.366,0,0,0,1961.809,1416.1Zm-35.948,2.356a2.918,2.918,0,0,1,2.833,3.05,3.048,3.048,0,0,1-.246,1.1,2.912,2.912,0,0,1-2.7,1.706,2.928,2.928,0,0,1,.116-5.854Z" transform="translate(0 -212.939)" fill="#ff7f3f"/>
    <path id="Path_15927" data-name="Path 15927" d="M2340.526,1520.259v-52.068c.391.531.663.876.911,1.239q9.98,14.611,19.936,29.239a2.08,2.08,0,0,0,1.981,1.058c4.737-.047,9.474-.02,14.211-.024.418,0,.836-.039,1.371-.067V1417.5a57.269,57.269,0,0,1,7.923.074c3.116.445,5.427,3.6,5.8,7.109q2.574,24.336,5.155,48.672,1.832,17.339,3.627,34.681a15.122,15.122,0,0,1-.027,3.6c-.791,5.661-4.189,8.573-10.071,8.605-7.493.042-14.987.011-22.48.011h-28.335Z" transform="translate(-399.673 -214.114)" fill="#ff7f3f"/>
    <path id="Path_15928" data-name="Path 15928" d="M2665.44,1445.205a2.8,2.8,0,0,1-5.449,1,2.427,2.427,0,0,1-.173-.911,2.748,2.748,0,0,1,.333-1.33v-.014a2.815,2.815,0,0,1,5.29,1.258Z" transform="translate(-688.483 -236.8)" fill="#fff"/>
    <path id="Path_15929" data-name="Path 15929" d="M2208.885,1199.849H2202.5a22.214,22.214,0,0,0-40.805,0H2155.3c3.252-11.058,14.021-19.167,26.784-19.167C2194.865,1180.682,2205.633,1188.791,2208.885,1199.849Z" transform="translate(-232.131 0)" fill="#fff"/>
  </g>
</svg>
