<svg xmlns="http://www.w3.org/2000/svg" width="306.687" height="222.271" viewBox="0 0 306.687 222.271">
  <g id="Group_11486" data-name="Group 11486" transform="translate(0 0)">
    <g id="Group_11101" data-name="Group 11101">
      <g id="Group_11061" data-name="Group 11061" transform="translate(6.529 18.12)">
        <path id="Path_16262" data-name="Path 16262" d="M1238.119,1323.575h-60.142c-5.485,0-10.376-4.519-10.376-10v-.04c0-5.485,4.891-9.82,10.376-9.82h31.45a10.086,10.086,0,0,0,10.039-10v-.04a9.929,9.929,0,0,0-10.039-9.82h-12.795a102.142,102.142,0,0,0-182.538-28.692H978.356c-5.485,0-10.493,4.5-10.493,9.989v.089c0,5.485,5.008,9.785,10.493,9.785h19.863c5.485,0,9.371,4.5,9.371,9.989v.089c0,5.485-3.886,9.785-9.371,9.785H957.941a9.988,9.988,0,0,0-9.941,9.989v.089a9.816,9.816,0,0,0,9.941,9.785h60.142c5.485,0,9.371,4.5,9.371,9.989v.089c0,5.485-3.886,9.785-9.371,9.785h-31.45a9.988,9.988,0,0,0-9.941,9.989v.089a9.816,9.816,0,0,0,9.941,9.786h18.947A102.139,102.139,0,0,0,1170.8,1384.6q.711-.71,1.4-1.432h45.5c5.485,0,9.487-4.519,9.487-10v-.04a9.466,9.466,0,0,0-9.487-9.82H1197.84c-5.485,0-10.376-4.519-10.376-10v-.04c0-5.485,4.891-9.82,10.376-9.82h40.278a10.086,10.086,0,0,0,10.039-10v-.04A9.929,9.929,0,0,0,1238.119,1323.575Z" transform="translate(-948 -1210.343)" fill="#e0e5e9"/>
      </g>
      <g id="Group_11100" data-name="Group 11100">
        <g id="Group_11066" data-name="Group 11066" transform="translate(240.568 105.97)">
          <g id="Group_11062" data-name="Group 11062" transform="translate(30.899)">
            <path id="Path_16263" data-name="Path 16263" d="M2396.225,1690.207H2389.6a1.1,1.1,0,0,1,0-2.207h6.621a1.1,1.1,0,1,1,0,2.207Z" transform="translate(-2388.5 -1688)"/>
          </g>
          <g id="Group_11063" data-name="Group 11063">
            <path id="Path_16264" data-name="Path 16264" d="M2245.881,1690.207H2221.6a1.1,1.1,0,1,1,0-2.207h24.278a1.1,1.1,0,0,1,0,2.207Z" transform="translate(-2220.5 -1688)"/>
          </g>
          <g id="Group_11064" data-name="Group 11064" transform="translate(19.863 6.621)">
            <path id="Path_16265" data-name="Path 16265" d="M2353.881,1726.207H2329.6a1.1,1.1,0,0,1,0-2.207h24.278a1.1,1.1,0,0,1,0,2.207Z" transform="translate(-2328.5 -1724)"/>
          </g>
          <g id="Group_11065" data-name="Group 11065" transform="translate(6.621 6.621)">
            <path id="Path_16266" data-name="Path 16266" d="M2262.018,1726.207H2257.6a1.1,1.1,0,0,1,0-2.207h4.415a1.1,1.1,0,0,1,0,2.207Z" transform="translate(-2256.5 -1724)"/>
          </g>
        </g>
        <g id="Group_11075" data-name="Group 11075" transform="translate(145.665)">
          <g id="Group_11067" data-name="Group 11067" transform="translate(16.553 9.964)">
            <path id="Path_16267" data-name="Path 16267" d="M1798.914,1168.207H1795.6a1.1,1.1,0,1,1,0-2.207h3.311a1.1,1.1,0,0,1,0,2.207Z" transform="translate(-1794.5 -1166)"/>
          </g>
          <g id="Group_11068" data-name="Group 11068" transform="translate(0 9.964)">
            <path id="Path_16268" data-name="Path 16268" d="M1708.914,1168.207h-3.31a1.1,1.1,0,1,1,0-2.207h3.31a1.1,1.1,0,1,1,0,2.207Z" transform="translate(-1704.5 -1166)"/>
          </g>
          <g id="Group_11069" data-name="Group 11069" transform="translate(14.614 2.909)">
            <path id="Path_16269" data-name="Path 16269" d="M1785.06,1132.19a1.1,1.1,0,0,1-.78-1.884l2.341-2.341a1.1,1.1,0,0,1,1.56,1.561l-2.341,2.34A1.1,1.1,0,0,1,1785.06,1132.19Z" transform="translate(-1783.956 -1127.642)"/>
          </g>
          <g id="Group_11070" data-name="Group 11070" transform="translate(2.909 14.614)">
            <path id="Path_16270" data-name="Path 16270" d="M1721.42,1195.828a1.1,1.1,0,0,1-.78-1.884l2.341-2.341a1.1,1.1,0,0,1,1.56,1.561l-2.341,2.34A1.1,1.1,0,0,1,1721.42,1195.828Z" transform="translate(-1720.317 -1191.28)"/>
          </g>
          <g id="Group_11071" data-name="Group 11071" transform="translate(9.84)">
            <path id="Path_16271" data-name="Path 16271" d="M1759.1,1117.342a1.1,1.1,0,0,1-1.1-1.1v-3.311a1.1,1.1,0,0,1,2.207,0v3.311A1.1,1.1,0,0,1,1759.1,1117.342Z" transform="translate(-1758 -1111.824)"/>
          </g>
          <g id="Group_11072" data-name="Group 11072" transform="translate(9.84 16.553)">
            <path id="Path_16272" data-name="Path 16272" d="M1759.1,1207.342a1.1,1.1,0,0,1-1.1-1.1v-3.311a1.1,1.1,0,0,1,2.207,0v3.311A1.1,1.1,0,0,1,1759.1,1207.342Z" transform="translate(-1758 -1201.824)"/>
          </g>
          <g id="Group_11073" data-name="Group 11073" transform="translate(2.909 2.909)">
            <path id="Path_16273" data-name="Path 16273" d="M1723.761,1132.19a1.1,1.1,0,0,1-.78-.323l-2.341-2.34a1.1,1.1,0,0,1,1.56-1.561l2.341,2.341a1.1,1.1,0,0,1-.78,1.884Z" transform="translate(-1720.317 -1127.642)"/>
          </g>
          <g id="Group_11074" data-name="Group 11074" transform="translate(14.614 14.614)">
            <path id="Path_16274" data-name="Path 16274" d="M1787.4,1195.828a1.1,1.1,0,0,1-.78-.323l-2.341-2.34a1.1,1.1,0,0,1,1.56-1.561l2.341,2.341a1.1,1.1,0,0,1-.78,1.884Z" transform="translate(-1783.956 -1191.28)"/>
          </g>
        </g>
        <g id="Group_11084" data-name="Group 11084" transform="translate(35.313 148.975)">
          <g id="Group_11076" data-name="Group 11076" transform="translate(16.553 9.964)">
            <path id="Path_16275" data-name="Path 16275" d="M1198.914,1978.207h-3.31a1.1,1.1,0,0,1,0-2.207h3.31a1.1,1.1,0,0,1,0,2.207Z" transform="translate(-1194.5 -1976)"/>
          </g>
          <g id="Group_11077" data-name="Group 11077" transform="translate(0 9.964)">
            <path id="Path_16276" data-name="Path 16276" d="M1108.914,1978.207H1105.6a1.1,1.1,0,0,1,0-2.207h3.311a1.1,1.1,0,0,1,0,2.207Z" transform="translate(-1104.5 -1976)"/>
          </g>
          <g id="Group_11078" data-name="Group 11078" transform="translate(14.614 2.909)">
            <path id="Path_16277" data-name="Path 16277" d="M1185.06,1942.188a1.1,1.1,0,0,1-.78-1.884l2.34-2.342a1.1,1.1,0,0,1,1.561,1.56l-2.341,2.342A1.1,1.1,0,0,1,1185.06,1942.188Z" transform="translate(-1183.956 -1937.639)"/>
          </g>
          <g id="Group_11079" data-name="Group 11079" transform="translate(2.909 14.613)">
            <path id="Path_16278" data-name="Path 16278" d="M1121.42,2005.826a1.1,1.1,0,0,1-.78-1.884l2.341-2.342a1.1,1.1,0,1,1,1.56,1.561l-2.341,2.342A1.1,1.1,0,0,1,1121.42,2005.826Z" transform="translate(-1120.317 -2001.277)"/>
          </g>
          <g id="Group_11080" data-name="Group 11080" transform="translate(9.84)">
            <path id="Path_16279" data-name="Path 16279" d="M1159.1,1927.342a1.1,1.1,0,0,1-1.1-1.1v-3.31a1.1,1.1,0,0,1,2.207,0v3.31A1.1,1.1,0,0,1,1159.1,1927.342Z" transform="translate(-1158 -1921.824)"/>
          </g>
          <g id="Group_11081" data-name="Group 11081" transform="translate(9.84 16.553)">
            <path id="Path_16280" data-name="Path 16280" d="M1159.1,2017.342a1.1,1.1,0,0,1-1.1-1.1v-3.311a1.1,1.1,0,1,1,2.207,0v3.311A1.1,1.1,0,0,1,1159.1,2017.342Z" transform="translate(-1158 -2011.824)"/>
          </g>
          <g id="Group_11082" data-name="Group 11082" transform="translate(2.909 2.909)">
            <path id="Path_16281" data-name="Path 16281" d="M1123.761,1942.188a1.1,1.1,0,0,1-.78-.323l-2.341-2.342a1.1,1.1,0,0,1,1.561-1.56l2.341,2.342a1.1,1.1,0,0,1-.78,1.884Z" transform="translate(-1120.317 -1937.639)"/>
          </g>
          <g id="Group_11083" data-name="Group 11083" transform="translate(14.614 14.613)">
            <path id="Path_16282" data-name="Path 16282" d="M1187.4,2005.826a1.1,1.1,0,0,1-.78-.323l-2.34-2.342a1.1,1.1,0,0,1,1.56-1.561l2.341,2.342a1.1,1.1,0,0,1-.78,1.884Z" transform="translate(-1183.956 -2001.277)"/>
          </g>
        </g>
        <g id="Group_11085" data-name="Group 11085" transform="translate(85.784 46.604)">
          <path id="Path_16283" data-name="Path 16283" d="M1386.922,1381.176h0a1.1,1.1,0,0,1-.968-.574l-1.35-2.469a6.628,6.628,0,0,0-2.64-2.639l-2.468-1.35a1.1,1.1,0,0,1,0-1.937l2.469-1.35a6.628,6.628,0,0,0,2.64-2.64l1.35-2.468a1.148,1.148,0,0,1,1.937,0l1.35,2.468a6.625,6.625,0,0,0,2.64,2.64l2.469,1.35a1.1,1.1,0,0,1,0,1.937l-2.469,1.35a6.623,6.623,0,0,0-2.64,2.64l-1.35,2.469A1.1,1.1,0,0,1,1386.922,1381.176Zm-4.6-8,.7.382a8.837,8.837,0,0,1,3.517,3.517l.381.7.382-.7a8.835,8.835,0,0,1,3.517-3.517l.7-.382-.7-.382a8.834,8.834,0,0,1-3.517-3.517l-.382-.7-.381.7a8.836,8.836,0,0,1-3.517,3.517h0Z" transform="translate(-1378.921 -1365.217)"/>
        </g>
        <g id="Group_11086" data-name="Group 11086" transform="translate(254.071 161.738)">
          <path id="Path_16284" data-name="Path 16284" d="M2301.921,2007.172h0a1.1,1.1,0,0,1-.968-.575l-1.35-2.468a6.629,6.629,0,0,0-2.639-2.639l-2.469-1.351a1.1,1.1,0,0,1,0-1.936l2.469-1.35h0a6.624,6.624,0,0,0,2.639-2.638l1.35-2.469a1.148,1.148,0,0,1,1.937,0l1.35,2.469a6.618,6.618,0,0,0,2.639,2.638l2.469,1.352a1.1,1.1,0,0,1,0,1.936l-2.469,1.35a6.624,6.624,0,0,0-2.64,2.64l-1.35,2.469A1.1,1.1,0,0,1,2301.921,2007.172Zm-4.6-8,.7.383a8.83,8.83,0,0,1,3.517,3.517l.382.7.382-.7a8.83,8.83,0,0,1,3.517-3.517l.7-.381-.7-.383a8.822,8.822,0,0,1-3.517-3.516l-.382-.7-.382.7a8.834,8.834,0,0,1-3.517,3.517Z" transform="translate(-2293.921 -1991.214)"/>
        </g>
        <g id="Group_11091" data-name="Group 11091" transform="translate(100.42 203.048)">
          <g id="Group_11087" data-name="Group 11087" transform="translate(11.035 6.654)">
            <path id="Path_16285" data-name="Path 16285" d="M1521.81,2254.208H1519.6a1.1,1.1,0,0,1,0-2.207h2.207a1.1,1.1,0,0,1,0,2.207Z" transform="translate(-1518.5 -2252)"/>
          </g>
          <g id="Group_11088" data-name="Group 11088" transform="translate(0 6.654)">
            <path id="Path_16286" data-name="Path 16286" d="M1461.811,2254.208H1459.6a1.1,1.1,0,0,1,0-2.207h2.207a1.1,1.1,0,0,1,0,2.207Z" transform="translate(-1458.5 -2252)"/>
          </g>
          <g id="Group_11089" data-name="Group 11089" transform="translate(6.529)">
            <path id="Path_16287" data-name="Path 16287" d="M1495.1,2220.239a1.1,1.1,0,0,1-1.1-1.1v-2.207a1.1,1.1,0,0,1,2.207,0v2.207A1.1,1.1,0,0,1,1495.1,2220.239Z" transform="translate(-1494 -2215.824)"/>
          </g>
          <g id="Group_11090" data-name="Group 11090" transform="translate(6.529 11.035)">
            <path id="Path_16288" data-name="Path 16288" d="M1495.1,2280.238a1.1,1.1,0,0,1-1.1-1.1v-2.207a1.1,1.1,0,0,1,2.207,0v2.207A1.1,1.1,0,0,1,1495.1,2280.238Z" transform="translate(-1494 -2275.824)"/>
          </g>
        </g>
        <g id="Group_11096" data-name="Group 11096" transform="translate(163.321 195.356)">
          <g id="Group_11092" data-name="Group 11092" transform="translate(46.348)">
            <path id="Path_16289" data-name="Path 16289" d="M2075.674,2176.207H2053.6a1.1,1.1,0,0,1,0-2.207h22.071a1.1,1.1,0,0,1,0,2.207Z" transform="translate(-2052.5 -2174)"/>
          </g>
          <g id="Group_11093" data-name="Group 11093" transform="translate(0 7.725)">
            <path id="Path_16290" data-name="Path 16290" d="M1844.641,2218.207H1801.6a1.1,1.1,0,1,1,0-2.207h43.037a1.1,1.1,0,1,1,0,2.207Z" transform="translate(-1800.5 -2216)"/>
          </g>
          <g id="Group_11094" data-name="Group 11094" transform="translate(15.449 15.449)">
            <path id="Path_16291" data-name="Path 16291" d="M1891.121,2260.207H1885.6a1.1,1.1,0,0,1,0-2.207h5.518a1.1,1.1,0,0,1,0,2.207Z" transform="translate(-1884.5 -2258)"/>
          </g>
          <g id="Group_11095" data-name="Group 11095" transform="translate(29.795 15.449)">
            <path id="Path_16292" data-name="Path 16292" d="M1994.5,2260.207h-30.9a1.1,1.1,0,0,1,0-2.207h30.9a1.1,1.1,0,0,1,0,2.207Z" transform="translate(-1962.5 -2258)"/>
          </g>
        </g>
        <g id="Group_11097" data-name="Group 11097" transform="translate(0 104.867)">
          <path id="Path_16293" data-name="Path 16293" d="M962.158,1684.207H913.6a1.1,1.1,0,1,1,0-2.207h48.555a1.1,1.1,0,1,1,0,2.207Z" transform="translate(-912.5 -1682)"/>
        </g>
        <g id="Group_11098" data-name="Group 11098" transform="translate(22.07 97.142)">
          <path id="Path_16294" data-name="Path 16294" d="M1049.053,1642.207H1033.6a1.1,1.1,0,0,1,0-2.207h15.449a1.1,1.1,0,1,1,0,2.207Z" transform="translate(-1032.5 -1640)"/>
        </g>
        <g id="Group_11099" data-name="Group 11099" transform="translate(8.828 97.142)">
          <path id="Path_16295" data-name="Path 16295" d="M968.225,1642.207H961.6a1.1,1.1,0,0,1,0-2.207h6.621a1.1,1.1,0,0,1,0,2.207Z" transform="translate(-960.5 -1640)"/>
        </g>
      </g>
    </g>
    <g id="Group_11201" data-name="Group 11201" transform="translate(80.465 22.885)">
      <g id="Group_11131" data-name="Group 11131" transform="translate(0 111.777)" opacity="0.8">
        <g id="Group_11102" data-name="Group 11102" transform="translate(2.207 15.449)">
          <path id="Rectangle_3333" data-name="Rectangle 3333" d="M0,0H47.451a0,0,0,0,1,0,0V34.209a0,0,0,0,1,0,0H34.209A34.209,34.209,0,0,1,0,0V0A0,0,0,0,1,0,0Z" fill="#c2b9d6"/>
        </g>
        <g id="Group_11103" data-name="Group 11103" transform="translate(41.934 15.544)">
          <path id="Path_16296" data-name="Path 16296" d="M1578,1962.807v-34.156s7.724-1.038,7.724,2.669v29.312C1585.725,1964.34,1578,1962.807,1578,1962.807Z" transform="translate(-1578 -1928.517)" fill="#b0a5c4"/>
        </g>
        <g id="Group_11104" data-name="Group 11104" transform="translate(2.207 15.728)">
          <path id="Path_16297" data-name="Path 16297" d="M1365.658,1929.513c-.951,1.158-3.658-.775-3.658.84v26.553c0,3.649,1.607,5.477,3.386,5.329C1365.386,1957.787,1365.51,1933.813,1365.658,1929.513Z" transform="translate(-1362 -1929.513)" fill="#e0e5e9"/>
        </g>
        <g id="Group_11105" data-name="Group 11105" transform="translate(20.967 15.449)">
          <path id="Path_16298" data-name="Path 16298" d="M1464,1928v15.649l2.076-1.779,2.051,1.779,1.693-1.779,1.637,1.779,1.641-1.779,1.938,1.779V1928Z" transform="translate(-1464 -1928)" fill="#9f95b7"/>
        </g>
        <g id="Group_11106" data-name="Group 11106" transform="translate(20.967 17.656)">
          <path id="Path_16299" data-name="Path 16299" d="M1466.207,1940H1464v14.036l2.207-1.779Z" transform="translate(-1464 -1940)" fill="#e0e5e9"/>
        </g>
        <g id="Group_11107" data-name="Group 11107" transform="translate(49.857 5.895)">
          <path id="Path_16300" data-name="Path 16300" d="M1629.826,1876.053l.214,31.323a7.454,7.454,0,0,1-2.023,5.106l-6.79,6.821s-.149-25.606-.149-34.206Z" transform="translate(-1621.078 -1876.053)" fill="#e0e5e9"/>
        </g>
        <g id="Group_11108" data-name="Group 11108" transform="translate(51.936 4.305)">
          <path id="Path_16301" data-name="Path 16301" d="M1640.821,1867.407l.523,30.834a7.455,7.455,0,0,1-2.023,5.106l-6.79,6.821s-.148-25.606-.148-34.206Z" transform="translate(-1632.382 -1867.407)" fill="#9f95b7"/>
        </g>
        <g id="Group_11109" data-name="Group 11109" transform="translate(6.953 1.001)">
          <path id="Path_16302" data-name="Path 16302" d="M1387.8,1863.924l13.641-13.515c1.4-1.4,2.664-.862,4.646-.862h31.589c3.855,0,4.152,1.949,4.152,1.949l-13.295,12.737Z" transform="translate(-1387.804 -1849.445)" fill="#c2b9d6"/>
        </g>
        <g id="Group_11110" data-name="Group 11110" transform="translate(41.853 1.031)">
          <path id="Path_16303" data-name="Path 16303" d="M1577.561,1863.659l13.406-13.832c4.342-1,5.079,1.673,5.079,1.673l-12.109,12.405Z" transform="translate(-1577.561 -1849.604)" fill="#b0a5c4"/>
        </g>
        <g id="Group_11111" data-name="Group 11111" transform="translate(57.274 4.113)">
          <path id="Path_16304" data-name="Path 16304" d="M1664.55,1866.362l.213,31.323a7.455,7.455,0,0,1-2.023,5.106l-1.186,1.483s-.148-25.605-.148-34.205Z" transform="translate(-1661.405 -1866.362)" fill="#9088aa"/>
        </g>
        <g id="Group_11112" data-name="Group 11112" transform="translate(28.692 17.656)">
          <path id="Path_16305" data-name="Path 16305" d="M1506,1940h3.311v14.036l-3.311-1.779Z" transform="translate(-1506 -1940)" fill="#9088aa"/>
        </g>
        <g id="Group_11113" data-name="Group 11113" transform="translate(0 13.242)">
          <path id="Path_16306" data-name="Path 16306" d="M1396.3,1954.624h-37.085c-4.776,0-9.216-4.185-9.216-8.744v-20.622c0-7.222,1.481-8.18,1.952-8.495.267-.178.6-.481.927-.484l7.922-.278h.016a1.845,1.845,0,0,1,1.655,1.846,1.747,1.747,0,0,1-1.64,1.773l-6.987.115a24.2,24.2,0,0,0-.534,5.523v20.622c0,2.676,3.026,5.434,5.906,5.434H1396.3c.6,0,1.15-.857,1.15-1.637v-10.535a1.655,1.655,0,0,1,3.31,0v10.535C1400.762,1952.294,1398.727,1954.624,1396.3,1954.624Z" transform="translate(-1350 -1916)" fill="#6a6675"/>
        </g>
        <g id="Group_11114" data-name="Group 11114" transform="translate(47.985 30.193)">
          <path id="Path_16307" data-name="Path 16307" d="M1612.543,2011.452a1.673,1.673,0,0,1-1.17-.486,1.644,1.644,0,0,1-.474-1.169,1.663,1.663,0,0,1,.474-1.17,1.661,1.661,0,0,1,2.836,1.17,1.7,1.7,0,0,1-.486,1.169A1.678,1.678,0,0,1,1612.543,2011.452Z" transform="translate(-1610.899 -2008.164)" fill="#6a6675"/>
        </g>
        <g id="Group_11115" data-name="Group 11115" transform="translate(17.197 14.346)">
          <path id="Path_16308" data-name="Path 16308" d="M1475.41,1936.865a1.655,1.655,0,0,1-1.655-1.655v-9.9h-28.6a1.655,1.655,0,1,1,0-3.311H1475.5a1.552,1.552,0,0,1,1.563,1.623v11.587A1.655,1.655,0,0,1,1475.41,1936.865Z" transform="translate(-1443.5 -1922)" fill="#6a6675"/>
        </g>
        <g id="Group_11116" data-name="Group 11116" transform="translate(13.786 13.805)">
          <path id="Path_16309" data-name="Path 16309" d="M1426.614,1922.35a1.657,1.657,0,0,1-1.656-1.655,1.656,1.656,0,0,1,.486-1.169,1.707,1.707,0,0,1,2.339,0,1.654,1.654,0,0,1,.485,1.169,1.656,1.656,0,0,1-1.655,1.655Z" transform="translate(-1424.958 -1919.062)" fill="#6a6675"/>
        </g>
        <g id="Group_11117" data-name="Group 11117" transform="translate(30.899 15.969)">
          <path id="Path_16310" data-name="Path 16310" d="M1519.656,1936.342a1.655,1.655,0,0,1-1.655-1.655v-2.207a1.655,1.655,0,1,1,3.31,0v2.207A1.655,1.655,0,0,1,1519.656,1936.342Z" transform="translate(-1518 -1930.824)" fill="#6a6675"/>
        </g>
        <g id="Group_11118" data-name="Group 11118" transform="translate(18.76 15.969)">
          <path id="Path_16311" data-name="Path 16311" d="M1458.219,1948.2a1.651,1.651,0,0,1-1.05-.376l-1.148-.943-1.262.974a1.738,1.738,0,0,1-1.788.176,1.7,1.7,0,0,1-.971-1.486v-14.068a1.655,1.655,0,1,1,3.311,0v10.766a1.678,1.678,0,0,1,1.747.244l1.02.819.7-.7a1.707,1.707,0,0,1,1.206-.495,1.661,1.661,0,0,1,1.19.524l.559.595.725-.694a1.589,1.589,0,0,1,1.681-.3V1940.2a1.655,1.655,0,1,1,3.311,0v6.343a1.6,1.6,0,0,1-2.606,1.3l-1.168-.923-.938.85a1.653,1.653,0,0,1-2.312-.1l-.486-.521-.54.55A1.651,1.651,0,0,1,1458.219,1948.2Z" transform="translate(-1452 -1930.824)" fill="#6a6675"/>
        </g>
        <g id="Group_11119" data-name="Group 11119" transform="translate(1.562)">
          <path id="Path_16312" data-name="Path 16312" d="M1405.8,1861.146a1.656,1.656,0,0,1-1.183-2.814l10.617-10.826a4.289,4.289,0,0,0-1.477-.195h-36.63a5.6,5.6,0,0,0-4.153,1.354l-11.648,11.834a1.657,1.657,0,0,1-2.36-2.327l11.658-11.837a8.811,8.811,0,0,1,6.5-2.335h36.63c1.982,0,3.417.523,4.266,1.586a3.352,3.352,0,0,1,.67,2.76,1.639,1.639,0,0,1-.431.787l-11.279,11.517A1.648,1.648,0,0,1,1405.8,1861.146Z" transform="translate(-1358.492 -1844)" fill="#6a6675"/>
        </g>
        <g id="Group_11120" data-name="Group 11120" transform="translate(44.572 15.969)">
          <path id="Path_16313" data-name="Path 16313" d="M1594,1966.52a1.655,1.655,0,1,1,0-3.311,5.383,5.383,0,0,0,3.093-1.032l7.991-8.232a5.486,5.486,0,0,0,1.174-3.95v-17.515a1.655,1.655,0,1,1,3.311,0v17.515a8.649,8.649,0,0,1-2.095,6.24l-8.105,8.326c-.032.033-.054.064-.089.095A8.446,8.446,0,0,1,1594,1966.52Z" transform="translate(-1592.346 -1930.824)" fill="#6a6675"/>
        </g>
        <g id="Group_11121" data-name="Group 11121" transform="translate(58.496 1.104)">
          <path id="Path_16314" data-name="Path 16314" d="M1669.928,1863.242a1.517,1.517,0,0,1-1.654-1.447l-.224-9.975a1.758,1.758,0,0,1,1.617-1.821h.038a1.852,1.852,0,0,1,1.654,1.831l.224,9.782a1.589,1.589,0,0,1-1.617,1.629Z" transform="translate(-1668.05 -1850)" fill="#6a6675"/>
        </g>
        <g id="Group_11122" data-name="Group 11122" transform="translate(20.755 1.07)">
          <path id="Path_16315" data-name="Path 16315" d="M1477.014,1849.92l-14.168,14.278H1474.1l14.168-14.379Z" transform="translate(-1462.846 -1849.818)" fill="#e0e5e9"/>
        </g>
        <g id="Group_11123" data-name="Group 11123" transform="translate(23.88 1.07)">
          <path id="Path_16316" data-name="Path 16316" d="M1494.006,1849.92l-14.168,14.278h7.5l14.168-14.379Z" transform="translate(-1479.838 -1849.818)" fill="#9f95b7"/>
        </g>
        <g id="Group_11124" data-name="Group 11124" transform="translate(28.255 1.07)">
          <path id="Path_16317" data-name="Path 16317" d="M1517.8,1849.92l-14.168,14.278h3.75l14.168-14.379Z" transform="translate(-1503.628 -1849.818)" fill="#9088aa"/>
        </g>
        <g id="Group_11125" data-name="Group 11125" transform="translate(19.099 0.673)">
          <path id="Path_16318" data-name="Path 16318" d="M1466.751,1864.644H1455.5a1.673,1.673,0,0,1-1.148-2.871l14.168-13.647a1.9,1.9,0,0,1,1.152-.465l11.251.027a1.655,1.655,0,0,1,1.143,2.848l-14.167,13.631A1.675,1.675,0,0,1,1466.751,1864.644Zm-7.145-3.311h6.479l10.734-10.33-6.484-.008Z" transform="translate(-1453.844 -1847.661)" fill="#6a6675"/>
        </g>
        <g id="Group_11126" data-name="Group 11126" transform="translate(30.439 45.244)">
          <path id="Path_16319" data-name="Path 16319" d="M1530.4,2093.311h-13.242a1.655,1.655,0,0,1,0-3.311H1530.4a1.655,1.655,0,0,1,0,3.311Z" transform="translate(-1515.5 -2090)" fill="#6a6675"/>
        </g>
        <g id="Group_11127" data-name="Group 11127" transform="translate(34.209 36.936)">
          <path id="Path_16320" data-name="Path 16320" d="M1537.655,2052.549a1.655,1.655,0,0,1-1.655-1.655v-4.414a1.655,1.655,0,0,1,3.311,0v4.414A1.655,1.655,0,0,1,1537.655,2052.549Z" transform="translate(-1536 -2044.824)" fill="#6a6675"/>
        </g>
        <g id="Group_11128" data-name="Group 11128" transform="translate(32.391 35.551)">
          <path id="Path_16321" data-name="Path 16321" d="M1527.77,2042.425a1.656,1.656,0,0,1-1.106-2.888l2.029-1.819a1.656,1.656,0,0,1,2.275.063l1.82,1.819a1.655,1.655,0,1,1-2.341,2.341l-.712-.711-.862.774A1.649,1.649,0,0,1,1527.77,2042.425Z" transform="translate(-1526.114 -2037.295)" fill="#6a6675"/>
        </g>
        <g id="Group_11129" data-name="Group 11129" transform="translate(39.727 36.936)">
          <path id="Path_16322" data-name="Path 16322" d="M1567.655,2052.549a1.655,1.655,0,0,1-1.655-1.655v-4.414a1.655,1.655,0,1,1,3.31,0v4.414A1.655,1.655,0,0,1,1567.655,2052.549Z" transform="translate(-1566 -2044.824)" fill="#6a6675"/>
        </g>
        <g id="Group_11130" data-name="Group 11130" transform="translate(39.108 35.551)">
          <path id="Path_16323" data-name="Path 16323" d="M1564.294,2042.425a1.655,1.655,0,0,1-1.105-2.888l2.03-1.819a1.655,1.655,0,0,1,2.275.063l1.819,1.819a1.655,1.655,0,0,1-2.341,2.341l-.711-.711-.863.774A1.647,1.647,0,0,1,1564.294,2042.425Z" transform="translate(-1562.638 -2037.295)" fill="#6a6675"/>
        </g>
      </g>
      <g id="Group_11153" data-name="Group 11153" transform="translate(81.661 98.535)">
        <g id="Group_11132" data-name="Group 11132" transform="translate(41.346 1.104)">
          <path id="Path_16324" data-name="Path 16324" d="M2024.681,1827.658H2042.9l9.4-49.658h-33.493Z" transform="translate(-2018.805 -1778)" fill="#c2b9d6"/>
        </g>
        <g id="Group_11133" data-name="Group 11133" transform="translate(40.361 1.104)">
          <path id="Path_16325" data-name="Path 16325" d="M2019.326,1827.658h5.483L2022.165,1778h-8.715Z" transform="translate(-2013.451 -1778)" fill="#b0a5c4"/>
        </g>
        <g id="Group_11134" data-name="Group 11134" transform="translate(45.244 50.762)">
          <rect id="Rectangle_3334" data-name="Rectangle 3334" width="20.967" height="9.932" rx="4.966" fill="#9f95b7"/>
        </g>
        <g id="Group_11135" data-name="Group 11135" transform="translate(63.354 1.104)">
          <path id="Path_16326" data-name="Path 16326" d="M2141.991,1827.658h-3.526l4.924-49.658h6.853Z" transform="translate(-2138.465 -1778)" fill="#e0e5e9"/>
        </g>
        <g id="Group_11136" data-name="Group 11136" transform="translate(61.797 50.762)">
          <path id="Rectangle_3335" data-name="Rectangle 3335" d="M2.32,0h.444a1.65,1.65,0,0,1,1.65,1.65V8.369a2.667,2.667,0,0,1-2.667,2.667h0A1.748,1.748,0,0,1,0,9.288V2.32A2.32,2.32,0,0,1,2.32,0Z" fill="#e0e5e9"/>
        </g>
        <g id="Group_11137" data-name="Group 11137" transform="translate(4.414 36.416)">
          <path id="Rectangle_3336" data-name="Rectangle 3336" d="M14.45,0h0A16.448,16.448,0,0,1,30.9,16.448v7.829a0,0,0,0,1,0,0H0a0,0,0,0,1,0,0V14.45A14.45,14.45,0,0,1,14.45,0Z" transform="translate(30.899 24.277) rotate(180)" fill="#aba4c1"/>
        </g>
        <g id="Group_11138" data-name="Group 11138" transform="translate(4.414 36.416)">
          <path id="Rectangle_3337" data-name="Rectangle 3337" d="M4.693,0h0A4.136,4.136,0,0,1,8.828,4.136V24.277a0,0,0,0,1,0,0H0a0,0,0,0,1,0,0V4.693A4.693,4.693,0,0,1,4.693,0Z" transform="translate(8.828 24.277) rotate(180)" fill="#9f95b7"/>
        </g>
        <g id="Group_11139" data-name="Group 11139" transform="translate(1.104 28.692)">
          <rect id="Rectangle_3338" data-name="Rectangle 3338" width="37.52" height="7.725" transform="translate(37.52 7.725) rotate(180)" fill="#c2b9d6"/>
        </g>
        <g id="Group_11140" data-name="Group 11140" transform="translate(1.104 28.692)">
          <rect id="Rectangle_3339" data-name="Rectangle 3339" width="7.725" height="7.725" transform="translate(7.725 7.725) rotate(180)" fill="#b0a5c4"/>
        </g>
        <g id="Group_11141" data-name="Group 11141" transform="translate(31.686 36.416)">
          <path id="Path_16327" data-name="Path 16327" d="M1966.28,1992.83c2.144,0,3.627-6.995,3.627-9.138V1970H1966.6v20.682C1966.6,1992.825,1966.28,1992.83,1966.28,1992.83Z" transform="translate(-1966.28 -1970)" fill="#e0e5e9"/>
        </g>
        <g id="Group_11142" data-name="Group 11142" transform="translate(34.209 28.692)">
          <rect id="Rectangle_3340" data-name="Rectangle 3340" width="4.414" height="7.725" transform="translate(4.414 7.725) rotate(180)" fill="#e0e5e9"/>
        </g>
        <g id="Group_11143" data-name="Group 11143" transform="translate(39.691)">
          <path id="Path_16328" data-name="Path 16328" d="M2037.672,1814.071a1.674,1.674,0,0,1-.307-.028,1.64,1.64,0,0,1-1.321-1.916l6.915-36.816h-29.632l.692,5.752a1.654,1.654,0,0,1-3.287.382l-.915-7.623a1.622,1.622,0,0,1,.405-1.281,1.641,1.641,0,0,1,1.238-.542h33.492a1.631,1.631,0,0,1,1.627,1.937l-7.283,38.788A1.652,1.652,0,0,1,2037.672,1814.071Z" transform="translate(-2009.806 -1772)" fill="#6a6675"/>
        </g>
        <g id="Group_11144" data-name="Group 11144" transform="translate(41.857 17.547)">
          <path id="Path_16329" data-name="Path 16329" d="M2045.165,1902.829h-18.215a1.671,1.671,0,0,1-1.645-1.482l-3.709-32.09a1.655,1.655,0,1,1,3.289-.37l3.54,30.632h15.381l.977-4.944a1.654,1.654,0,1,1,3.247.632l-1.241,6.275A1.667,1.667,0,0,1,2045.165,1902.829Z" transform="translate(-2021.585 -1867.407)" fill="#6a6675"/>
        </g>
        <g id="Group_11145" data-name="Group 11145" transform="translate(41.164 11.546)">
          <path id="Path_16330" data-name="Path 16330" d="M2019.611,1839.329a1.656,1.656,0,0,1-1.642-1.465l-.144-1.243a1.655,1.655,0,1,1,3.289-.381l.144,1.243a1.656,1.656,0,0,1-1.454,1.835A1.828,1.828,0,0,1,2019.611,1839.329Z" transform="translate(-2017.814 -1834.777)" fill="#6a6675"/>
        </g>
        <g id="Group_11146" data-name="Group 11146" transform="translate(44.141 49.658)">
          <path id="Path_16331" data-name="Path 16331" d="M2053.606,2055.242h-14.75a4.876,4.876,0,0,1-4.856-4.8v-3.713a4.821,4.821,0,0,1,4.856-4.732h14.75a4.664,4.664,0,0,1,4.672,4.732v3.713A4.719,4.719,0,0,1,2053.606,2055.242Zm-14.75-9.932a1.51,1.51,0,0,0-1.545,1.421v3.713a1.564,1.564,0,0,0,1.545,1.486h14.75a1.407,1.407,0,0,0,1.361-1.486v-3.713a1.351,1.351,0,0,0-1.361-1.421Z" transform="translate(-2034 -2042)" fill="#6a6675"/>
        </g>
        <g id="Group_11147" data-name="Group 11147" transform="translate(3.311 35.832)">
          <path id="Path_16332" data-name="Path 16332" d="M1837.671,1993.893h-17.04c-4.868,0-8.631-4.065-8.631-9.413v-16a1.655,1.655,0,1,1,3.31,0v16c0,2.943,1.925,6.1,5.32,6.1h17.04c3.456,0,5.228-3.16,5.228-6.1v-16a1.655,1.655,0,1,1,3.311,0v16C1846.209,1989.739,1842.51,1993.893,1837.671,1993.893Z" transform="translate(-1812 -1966.824)" fill="#6a6675"/>
        </g>
        <g id="Group_11148" data-name="Group 11148" transform="translate(13.886 27.588)">
          <path id="Path_16333" data-name="Path 16333" d="M1894.881,1933.035h-4.966a1.655,1.655,0,1,1,0-3.31h3.219v-4.414h-21.979a1.655,1.655,0,1,1,0-3.311h23.726a1.552,1.552,0,0,1,1.563,1.623v7.724A1.607,1.607,0,0,1,1894.881,1933.035Z" transform="translate(-1869.5 -1922)" fill="#6a6675"/>
        </g>
        <g id="Group_11149" data-name="Group 11149" transform="translate(28.585 34.527)">
          <path id="Path_16334" data-name="Path 16334" d="M1951.074,1963.018a1.653,1.653,0,0,1-1.17-.486,1.664,1.664,0,0,1,0-2.35,1.73,1.73,0,0,1,2.339,0,1.661,1.661,0,0,1-1.17,2.836Z" transform="translate(-1949.419 -1959.727)" fill="#6a6675"/>
        </g>
        <g id="Group_11150" data-name="Group 11150" transform="translate(0 27.588)">
          <path id="Path_16335" data-name="Path 16335" d="M1818.369,1933.035h-22.622a1.764,1.764,0,0,1-1.747-1.688v-7.724a1.709,1.709,0,0,1,1.747-1.623h9.38a1.655,1.655,0,1,1,0,3.311h-7.817v4.414h21.059a1.655,1.655,0,1,1,0,3.31Z" transform="translate(-1794 -1922)" fill="#6a6675"/>
        </g>
        <g id="Group_11151" data-name="Group 11151" transform="translate(51.866 18.76)">
          <path id="Path_16336" data-name="Path 16336" d="M2076,1885.035h17.521l1.805-11.035H2076Z" transform="translate(-2076 -1874)" fill="#9f95b7"/>
        </g>
        <g id="Group_11152" data-name="Group 11152" transform="translate(49.658 17.656)">
          <path id="Path_16337" data-name="Path 16337" d="M2083.728,1881.242h-17.981a1.764,1.764,0,0,1-1.747-1.688v-9.932a1.709,1.709,0,0,1,1.747-1.623h19.786a1.63,1.63,0,0,1,1.628,1.927l-1.806,9.944A1.666,1.666,0,0,1,2083.728,1881.242Zm-16.417-3.311h15.036l1.2-6.621h-16.24Z" transform="translate(-2064 -1868)" fill="#6a6675"/>
        </g>
      </g>
      <g id="Group_11154" data-name="Group 11154" transform="translate(164.793 58.279)">
        <path id="Path_16338" data-name="Path 16338" d="M2246,1554.17c.827,4.029,2.406,5.341,3.4,5.341.972,0,2.468-2.364,3.747-6.21l-4.952-.18Z" transform="translate(-2246 -1553.121)" fill="#e85858"/>
      </g>
      <g id="Group_11155" data-name="Group 11155" transform="translate(162.085 16.756)">
        <path id="Path_16339" data-name="Path 16339" d="M2233.488,1339.615h-.01a2.239,2.239,0,0,1-2.2-2.259c.019-3.859.363-7.039,4.5-9.654a2.2,2.2,0,1,1,2.357,3.717c-2.236,1.412-2.429,2.642-2.446,5.961A2.24,2.24,0,0,1,2233.488,1339.615Z" transform="translate(-2231.281 -1327.359)"/>
      </g>
      <g id="Group_11156" data-name="Group 11156" transform="translate(162.234 57.832)">
        <path id="Path_16340" data-name="Path 16340" d="M2238.509,1560.812a2.176,2.176,0,0,1-.879-.185c-.212-.093-5.207-2.337-5.536-7.59a2.207,2.207,0,0,1,4.406-.276c.159,2.542,2.8,3.778,2.915,3.829a2.209,2.209,0,0,1-.906,4.222Z" transform="translate(-2232.089 -1550.693)"/>
      </g>
      <g id="Group_11157" data-name="Group 11157" transform="translate(64.419 2.228)">
        <path id="Path_16341" data-name="Path 16341" d="M1808.813,1274.934c-4.966-1.287-6.352-3.991-10.117-5.829a264.853,264.853,0,0,1-25.222-14.246c-4.6-2.907-8.272-7.233-14.248-6.386-6.411.916-17.841,7.633-22.267,9.312s-14.187,4.885-18.308,8.7-9.108,11.883-12.161,16.615-5.745,7.883-6.2,12.157,3.935,7.424,19.353,4.218c4.728-.983,22.427.779,27.293.744,4.69-.033,11.9,6.949,16.359,8.238a54.283,54.283,0,0,0,22.826,1.529,52.973,52.973,0,0,0,11.361-2.962c3.218-1.237,6.56-3.76,10.156-3.373,1.622.174,1.363-2.233,1.363-2.233,1.839-4.414,3.127-20.783-.368-26.852C1808.629,1274.566,1808.816,1274.934,1808.813,1274.934Z" transform="translate(-1700.255 -1248.365)" fill="#ffc97b"/>
      </g>
      <g id="Group_11158" data-name="Group 11158" transform="translate(163.965 27.325)">
        <path id="Path_16342" data-name="Path 16342" d="M2242.6,1384.824s2.483,8,2.483,14.9c0,10.483-3.587,16.277-3.587,16.277l9.1-2.207a92.919,92.919,0,0,0,1.379-16.829c-.276-7.725-2.483-10.759-2.483-10.759Z" transform="translate(-2241.5 -1384.824)" fill="#efb262"/>
      </g>
      <g id="Group_11159" data-name="Group 11159" transform="translate(114.385 51.111)">
        <path id="Path_16343" data-name="Path 16343" d="M2003.3,1516.021c-3.307.976-17.624,1.4-20.967.552-6.3-1.6-11.5-3.73-10.208-1.38,4.69,8.552,8.276,9.38,19.588,11.587s24.829-3.862,24.829-3.862-11.863,1.1-13.794-.276C1999.818,1520.552,2003.3,1516.021,2003.3,1516.021Z" transform="translate(-1971.925 -1514.15)" fill="#efb262"/>
      </g>
      <g id="Group_11160" data-name="Group 11160" transform="translate(58.015)">
        <path id="Path_16344" data-name="Path 16344" d="M1749.848,1302.875a56.291,56.291,0,0,1-15.584-2.183,33.453,33.453,0,0,1-6.619-3.182c-2.889-1.639-6.179-3.45-8.367-3.48-2.062.014-3.541.943-5.416,2.118a18.071,18.071,0,0,1-6.072,2.758c-13.734,2.86-33.356-6.58-39.589-12.229-2.038-1.847-2.91-3.428-2.744-4.974.383-3.573,3.413-4.675,5.625-5.48,1.834-.668,3.567-1.3,4.643-2.966.533-.826,1.141-1.793,1.8-2.846,3.207-5.1,7.6-12.09,11.21-15.432,3.88-3.593,11.746-6.472,16.951-8.378.772-.283,1.473-.539,2.074-.767,1.327-.5,3.427-1.541,5.861-2.743,5.427-2.681,12.182-6.019,16.878-6.69,5.817-.83,9.318,1.926,12.408,4.358.9.712,1.839,1.448,2.814,2.087,1.068.7,2.18,1.436,3.328,2.2,7.638,5.049,17.143,11.333,24.856,14.9a22.862,22.862,0,0,0,6.354,1.995,2.207,2.207,0,0,1-.449,4.391,26.661,26.661,0,0,1-7.756-2.379c-8.016-3.7-17.677-10.09-25.439-15.221-1.145-.756-2.253-1.49-3.316-2.187-1.135-.744-2.146-1.54-3.124-2.31-2.852-2.246-5.109-4.02-9.053-3.456-4,.571-10.672,3.869-15.547,6.277-2.535,1.253-4.725,2.334-6.25,2.913-.615.233-1.331.5-2.121.784-4.578,1.676-12.239,4.481-15.469,7.472-3.182,2.947-7.4,9.649-10.472,14.543-.672,1.069-1.29,2.051-1.831,2.89-1.881,2.915-4.749,3.959-6.843,4.721-2.018.734-2.569,1.038-2.712,1.609,1.588,3.343,22.757,15.565,37.012,12.6a14.12,14.12,0,0,0,4.626-2.177c2.069-1.3,4.415-2.769,7.729-2.792,3.4-.043,7.04,2.049,10.576,4.054a30.933,30.933,0,0,0,5.667,2.781,52.207,52.207,0,0,0,21.894,1.466,50.784,50.784,0,0,0,10.888-2.838c.831-.32,1.7-.749,2.623-1.2,2.513-1.241,5.353-2.648,8.561-2.3a2.207,2.207,0,0,1-.472,4.389c-1.921-.206-3.969.8-6.135,1.872-.97.479-1.974.975-2.993,1.366a55.174,55.174,0,0,1-11.834,3.086A56.662,56.662,0,0,1,1749.848,1302.875Z" transform="translate(-1665.437 -1236.252)"/>
      </g>
      <g id="Group_11188" data-name="Group 11188" transform="translate(22.07 29.013)">
        <g id="Group_11161" data-name="Group 11161" transform="translate(16.553 79.421)">
          <path id="Path_16345" data-name="Path 16345" d="M1562.207,1853.412a2.207,2.207,0,0,1-2.207-2.207v-23.174a2.207,2.207,0,1,1,4.414,0v23.174A2.207,2.207,0,0,1,1562.207,1853.412Z" transform="translate(-1560 -1825.824)"/>
        </g>
        <g id="Group_11162" data-name="Group 11162" transform="translate(29.795 82.732)">
          <path id="Path_16346" data-name="Path 16346" d="M1634.207,1876.93a2.207,2.207,0,0,1-2.207-2.207v-28.692a2.207,2.207,0,0,1,4.414,0v28.692A2.207,2.207,0,0,1,1634.207,1876.93Z" transform="translate(-1632 -1843.824)"/>
        </g>
        <g id="Group_11163" data-name="Group 11163" transform="translate(43.037 76.111)">
          <path id="Path_16347" data-name="Path 16347" d="M1706.207,1824.377a2.207,2.207,0,0,1-2.207-2.207v-12.139a2.207,2.207,0,0,1,4.414,0v12.139A2.207,2.207,0,0,1,1706.207,1824.377Z" transform="translate(-1704 -1807.824)"/>
        </g>
        <g id="Group_11164" data-name="Group 11164" transform="translate(43.037 94.87)">
          <path id="Path_16348" data-name="Path 16348" d="M1706.207,1919.756a2.207,2.207,0,0,1-2.207-2.207v-5.518a2.207,2.207,0,0,1,4.414,0v5.518A2.207,2.207,0,0,1,1706.207,1919.756Z" transform="translate(-1704 -1909.824)"/>
        </g>
        <g id="Group_11165" data-name="Group 11165" transform="translate(4.414 67.282)">
          <path id="Path_16349" data-name="Path 16349" d="M1496.207,1781.895a2.207,2.207,0,0,1-2.207-2.207v-17.656a2.207,2.207,0,0,1,4.414,0v17.656A2.207,2.207,0,0,1,1496.207,1781.895Z" transform="translate(-1494 -1759.824)"/>
        </g>
        <g id="Group_11166" data-name="Group 11166" transform="translate(4.506 91.59)">
          <path id="Path_16350" data-name="Path 16350" d="M1496.707,1896.372a2.2,2.2,0,0,1-1.556-3.763,2.261,2.261,0,0,1,3.112,0,2.207,2.207,0,0,1-1.556,3.763Z" transform="translate(-1494.5 -1891.988)"/>
        </g>
        <g id="Group_11167" data-name="Group 11167" transform="translate(29.795 71.696)">
          <path id="Path_16351" data-name="Path 16351" d="M1634.207,1792.652a2.207,2.207,0,0,1-2.207-2.207v-4.414a2.207,2.207,0,0,1,4.414,0v4.414A2.207,2.207,0,0,1,1634.207,1792.652Z" transform="translate(-1632 -1783.824)"/>
        </g>
        <g id="Group_11168" data-name="Group 11168" transform="translate(81.661 62.868)">
          <path id="Path_16352" data-name="Path 16352" d="M1916.207,1754.584a2.207,2.207,0,0,1-2.207-2.207v-14.346a2.207,2.207,0,1,1,4.414,0v14.346A2.207,2.207,0,0,1,1916.207,1754.584Z" transform="translate(-1914 -1735.824)"/>
        </g>
        <g id="Group_11169" data-name="Group 11169" transform="translate(58.487 82.732)">
          <path id="Path_16353" data-name="Path 16353" d="M1790.207,1869.2A2.207,2.207,0,0,1,1788,1867v-20.967a2.207,2.207,0,0,1,4.414,0V1867A2.207,2.207,0,0,1,1790.207,1869.2Z" transform="translate(-1788 -1843.824)"/>
        </g>
        <g id="Group_11170" data-name="Group 11170" transform="translate(71.729 80.525)">
          <path id="Path_16354" data-name="Path 16354" d="M1862.207,1857.2A2.207,2.207,0,0,1,1860,1855v-20.967a2.207,2.207,0,0,1,4.414,0V1855A2.207,2.207,0,0,1,1862.207,1857.2Z" transform="translate(-1860 -1831.824)"/>
        </g>
        <g id="Group_11171" data-name="Group 11171" transform="translate(71.729 109.216)">
          <path id="Path_16355" data-name="Path 16355" d="M1862.207,1994.445a2.207,2.207,0,0,1-2.207-2.207v-2.207a2.207,2.207,0,0,1,4.414,0v2.207A2.207,2.207,0,0,1,1862.207,1994.445Z" transform="translate(-1860 -1987.824)"/>
        </g>
        <g id="Group_11172" data-name="Group 11172" transform="translate(58.487 75.007)">
          <path id="Path_16356" data-name="Path 16356" d="M1790.207,1807.342a2.207,2.207,0,0,1-2.207-2.207v-1.1a2.207,2.207,0,0,1,4.414,0v1.1A2.207,2.207,0,0,1,1790.207,1807.342Z" transform="translate(-1788 -1801.824)"/>
        </g>
        <g id="Group_11187" data-name="Group 11187">
          <g id="Group_11173" data-name="Group 11173" transform="translate(2.207 17.656)">
            <path id="Rectangle_3341" data-name="Rectangle 3341" d="M0,0H76.143a0,0,0,0,1,0,0V54.073a0,0,0,0,1,0,0H54.073A54.073,54.073,0,0,1,0,0V0A0,0,0,0,1,0,0Z" fill="#fc9956"/>
          </g>
          <g id="Group_11174" data-name="Group 11174" transform="translate(66.211 17.11)">
            <path id="Path_16357" data-name="Path 16357" d="M1830,1541.632v-54.388s12.139-1.654,12.139,4.25v46.675C1842.139,1544.073,1830,1541.632,1830,1541.632Z" transform="translate(-1830 -1487.031)" fill="#ed7c2f"/>
          </g>
          <g id="Group_11175" data-name="Group 11175" transform="translate(3.311 17.402)">
            <path id="Path_16358" data-name="Path 16358" d="M1493.593,1488.618c-1.514,1.844-5.593-1.234-5.593,1.338v42.282c0,5.81,2.442,8.722,5.276,8.486C1493.276,1533.641,1493.357,1495.465,1493.593,1488.618Z" transform="translate(-1488 -1488.618)" fill="#e0e5e9"/>
          </g>
          <g id="Group_11176" data-name="Group 11176" transform="translate(78.722 9.47)">
            <path id="Path_16359" data-name="Path 16359" d="M1903.127,1445.491l.34,49.878a11.87,11.87,0,0,1-3.222,8.131l-1.984,3.136s-.236-40.773-.236-54.467Z" transform="translate(-1898.025 -1445.491)" fill="#e0e5e9"/>
          </g>
          <g id="Group_11177" data-name="Group 11177" transform="translate(80.93 8.367)">
            <path id="Path_16360" data-name="Path 16360" d="M1915.127,1439.491l.34,49.878a11.869,11.869,0,0,1-3.222,8.131l-1.984,3.136s-.236-40.773-.236-54.467Z" transform="translate(-1910.025 -1439.491)" fill="#c66d30"/>
          </g>
          <g id="Group_11178" data-name="Group 11178" transform="translate(10.405 1.964)">
            <path id="Path_16361" data-name="Path 16361" d="M1526.571,1419.723l12.893-13.613c2.231-2.231,4.242-1.189,7.4-1.189h50.3c6.139,0,6.611,2.921,6.611,2.921l-12.342,12.466Z" transform="translate(-1526.571 -1404.678)" fill="#ffb07b"/>
          </g>
          <g id="Group_11179" data-name="Group 11179" transform="translate(65.978 1.724)">
            <path id="Path_16362" data-name="Path 16362" d="M1828.731,1418.03l12.518-14.3c6.914-1.585,8.087,2.665,8.087,2.665l-10.453,12.029Z" transform="translate(-1828.731 -1403.375)" fill="#fc9956"/>
          </g>
          <g id="Group_11180" data-name="Group 11180" transform="translate(0 14.642)">
            <path id="Path_16363" data-name="Path 16363" d="M1543.062,1532.907h-59.052c-7.414,0-14.009-6.052-14.009-12.914v-32.837c0-11.333,1.975-12.62,2.8-13.169a2.18,2.18,0,0,1,1.288-.37l14.546.267a2.207,2.207,0,1,1-.072,4.413l-13.309-.244a36.956,36.956,0,0,0-.838,9.1v32.837c0,4.432,4.621,8.5,9.6,8.5h59.052c1.513,0,3.081-1.3,3.081-2.454V1508.6a2.207,2.207,0,1,1,4.414,0v17.442C1550.557,1530.067,1546.651,1532.907,1543.062,1532.907Z" transform="translate(-1470 -1473.613)"/>
          </g>
          <g id="Group_11181" data-name="Group 11181" transform="translate(76.143 39.694)">
            <path id="Path_16364" data-name="Path 16364" d="M1886.207,1616.445a2.207,2.207,0,0,1-2.207-2.207v-2.207a2.207,2.207,0,1,1,4.414,0v2.207A2.207,2.207,0,0,1,1886.207,1616.445Z" transform="translate(-1884 -1609.824)"/>
          </g>
          <g id="Group_11182" data-name="Group 11182" transform="translate(27.68 15.449)">
            <path id="Path_16365" data-name="Path 16365" d="M1671.17,1500.038a2.207,2.207,0,0,1-2.207-2.207v-15.417h-46.256a2.207,2.207,0,1,1,0-4.414h48.555a2.1,2.1,0,0,1,2.115,2.175v17.657A2.207,2.207,0,0,1,1671.17,1500.038Z" transform="translate(-1620.5 -1478)"/>
          </g>
          <g id="Group_11183" data-name="Group 11183" transform="translate(21.71 14.767)">
            <path id="Path_16366" data-name="Path 16366" d="M1590.246,1478.67a2.225,2.225,0,0,1-1.556-.64,2.263,2.263,0,0,1-.651-1.567,2.237,2.237,0,0,1,.651-1.556,2.286,2.286,0,0,1,3.123,0,2.225,2.225,0,0,1,.64,1.556,2.185,2.185,0,0,1-2.207,2.207Z" transform="translate(-1588.039 -1474.291)"/>
          </g>
          <g id="Group_11184" data-name="Group 11184" transform="translate(2.249)">
            <path id="Path_16367" data-name="Path 16367" d="M1557.132,1413.231a2.207,2.207,0,0,1-1.658-3.663l9.237-10.51a8.448,8.448,0,0,0-3.736-.644h-58.328a9.659,9.659,0,0,0-6.863,2.485l-9.679,11.2a2.209,2.209,0,0,1-3.341-2.891l9.735-11.273c.035-.041.072-.065.11-.1a13.988,13.988,0,0,1,10.037-3.832h58.328c7.794,0,8.711,4.287,8.79,4.777a2.191,2.191,0,0,1-.52,1.8l-10.453,11.909A2.2,2.2,0,0,1,1557.132,1413.231Z" transform="translate(-1482.228 -1394)"/>
          </g>
          <g id="Group_11185" data-name="Group 11185" transform="translate(71.269 25.349)">
            <path id="Path_16368" data-name="Path 16368" d="M1859.707,1580.379a2.207,2.207,0,0,1,0-4.414,8.443,8.443,0,0,0,4.814-1.4l4.122-5.277c.041-.053.039-.1.085-.153a9.549,9.549,0,0,0,2.474-6.619v-28.481a2.207,2.207,0,0,1,4.414,0v28.481a13.953,13.953,0,0,1-3.6,9.565l-4.212,5.422a2.124,2.124,0,0,1-.29.316A12.362,12.362,0,0,1,1859.707,1580.379Z" transform="translate(-1857.5 -1531.824)"/>
          </g>
          <g id="Group_11186" data-name="Group 11186" transform="translate(84.971 2.175)">
            <path id="Path_16369" data-name="Path 16369" d="M1934.207,1426.791a2.207,2.207,0,0,1-2.207-2.207v-16.553a2.207,2.207,0,0,1,4.414,0v16.553A2.207,2.207,0,0,1,1934.207,1426.791Z" transform="translate(-1932 -1405.824)"/>
          </g>
        </g>
      </g>
      <g id="Group_11189" data-name="Group 11189" transform="translate(61.938 15.217)">
        <path id="Path_16370" data-name="Path 16370" d="M1768.886,1326.9a27.3,27.3,0,0,0-12.937-7.2,25.83,25.83,0,0,0-20.4,3.672c-10.455,7.017-16.982,14.033-28.922,17.7-4.4,1.35-10.407,4.7-14.938,7.609-3.457,2.219-6.472,6.839-4.044,10.988,1.384,2.365,4.289,3.36,7,3.734,7.253,1,14.138-2.427,20.678-5.365,5.61-2.52,8.3-1.666,13.966-3.028,3.835-.922,8.517-1.94,10.577-.717,2.377,1.41,9.859,1.863,12.558,2.458,6.648,1.466,14.086.324,22.957-6.087,3.7-2.674,5.66-5.261,4.127-8.65-2.345-5.182-6.3-9.642-9.738-14.071Q1769.358,1327.412,1768.886,1326.9Z" transform="translate(-1686.763 -1318.991)" fill="#ffc97b"/>
      </g>
      <g id="Group_11190" data-name="Group 11190" transform="translate(63.995 45.154)">
        <path id="Path_16371" data-name="Path 16371" d="M1708.222,1486.552c1.076,2.736,2.89,2.828,2.591,4.871-.121.824-2.53,1.866-4.953,2.25s-6.381.137-7.661-3,2.642-6.759,5.642-7.972,2.75-1.266,3.516-.1S1707.575,1484.908,1708.222,1486.552Z" transform="translate(-1697.951 -1481.759)" fill="#ffe8cf"/>
      </g>
      <g id="Group_11191" data-name="Group 11191" transform="translate(173.762 19.081)">
        <path id="Path_16372" data-name="Path 16372" d="M2306.362,1340l1.809,4.806c.34.946-2.658,2.206-2.371,3.17.045.15,3.681,1.156,3.724,1.306a52.979,52.979,0,0,1-1.649,34.108l-1.513,4.061h-11.594l1.469-3.156a47.628,47.628,0,0,0,.186-40.977l-1.655-3.318Z" transform="translate(-2294.768 -1340)" fill="#c8e854"/>
      </g>
      <g id="Group_11192" data-name="Group 11192" transform="translate(205.095 19.081)">
        <path id="Path_16373" data-name="Path 16373" d="M2471.023,1340l1.808,4.806a56.445,56.445,0,0,1-.295,38.59l-1.513,4.055h-5.9l1.469-3.156a47.629,47.629,0,0,0,.186-40.977l-1.655-3.318Z" transform="translate(-2465.128 -1340)" fill="#afd31a"/>
      </g>
      <g id="Group_11193" data-name="Group 11193" transform="translate(173.856 19.081)">
        <path id="Path_16374" data-name="Path 16374" d="M2307.358,1340l-.172,8.739c4.44,12.344,6.314,22.408,1.685,34.657l-1.513,4.055h-12.079l1.469-3.156a47.63,47.63,0,0,0,.186-40.977l-1.655-3.318Z" transform="translate(-2295.279 -1340)" fill="#ff8a8a"/>
      </g>
      <g id="Group_11194" data-name="Group 11194" transform="translate(189.305 19.081)">
        <path id="Path_16375" data-name="Path 16375" d="M2402.393,1340l2.123,8.739c4.44,12.344,4.018,22.408-.611,34.657l-1.513,4.055h-23.114l1.468-3.156a47.627,47.627,0,0,0,.186-40.977l-1.655-3.318Z" transform="translate(-2379.279 -1340)" fill="#ff8a8a"/>
      </g>
      <g id="Group_11195" data-name="Group 11195" transform="translate(179.814 19.081)">
        <path id="Path_16376" data-name="Path 16376" d="M2331.014,1340l2.107,8.414c5.958,7.649,4.034,22.734-.594,34.983l-1.513,4.055h-3.342l1.469-3.156a47.629,47.629,0,0,0,.186-40.977l-1.655-3.318Z" transform="translate(-2327.672 -1340)" fill="#e85858"/>
      </g>
      <g id="Group_11196" data-name="Group 11196" transform="translate(166.694 16.874)">
        <path id="Path_16377" data-name="Path 16377" d="M2301.328,1379.865h-12.955a2.207,2.207,0,1,1,0-4.414H2299.8l1.33-3.578a53.365,53.365,0,0,0-.3-37.274l-.949-2.186H2262.3a49.854,49.854,0,0,1-.062,43.013l-.013.024h19.523a2.207,2.207,0,1,1,0,4.414h-23.2a2.228,2.228,0,0,1-1.946-3.272l1.707-3.2a45.368,45.368,0,0,0-.195-39.533l-1.482-2.593a2.184,2.184,0,0,1,1.916-3.271h42.78a2.193,2.193,0,0,1,2.027,1.316l1.56,3.6a57.854,57.854,0,0,1,.353,40.467l-1.872,5.028A2.22,2.22,0,0,1,2301.328,1379.865Z" transform="translate(-2256.342 -1328)"/>
      </g>
      <g id="Group_11197" data-name="Group 11197" transform="translate(177.998 17.169)">
        <path id="Path_16378" data-name="Path 16378" d="M2323.842,1380.632a2.208,2.208,0,0,1-1.958-3.224l1.184-2.281a46.318,46.318,0,0,0,3.244-31.444c-.733-.13-1.77-.276-2.542-.386-4.079-.576-5.31-.75-5.819-2.348-.6-1.887.554-2.513,3.977-4.368.39-.211.869-.471,1.306-.714-.589-1.548-1.266-3.2-1.275-3.221a2.207,2.207,0,1,1,4.083-1.677c.055.133,1.338,3.261,1.957,5.081.476,1.4-.073,2.139-1.723,3.151,2.61.409,3.606.782,3.99,2.164a50.838,50.838,0,0,1-3.261,35.757l-1.2,2.317A2.207,2.207,0,0,1,2323.842,1380.632Z" transform="translate(-2317.799 -1329.601)"/>
      </g>
      <g id="Group_11198" data-name="Group 11198" transform="translate(81.017 12.792)">
        <path id="Path_16379" data-name="Path 16379" d="M1793.124,1315.509c3.333.751,16.652,3.784,16.142-2.286a11.532,11.532,0,0,1,.26-3.625.34.34,0,0,1,.674.025,14.349,14.349,0,0,0,.643,2.848,1.5,1.5,0,0,0,2.47.592,12.318,12.318,0,0,1,2.9-2.237c1.571-.688,6.816-3.229,8.5-4.1,3.242-1.678,15.807-.6,13.61-.368-4.284.458-18.3,5.346-20.608,7.444l-7.716,5.431-19.5-.368A20.544,20.544,0,0,1,1793.124,1315.509Z" transform="translate(-1790.5 -1305.803)" fill="#efb262"/>
      </g>
      <g id="Group_11199" data-name="Group 11199" transform="translate(69.614 44.844)">
        <path id="Path_16380" data-name="Path 16380" d="M1731.259,1480.074c.87.386,2.082,1.1,2.186,2.044a5.636,5.636,0,0,0,1.306,2.731c.947,1.176,2.02,2.413,2.163,3.916s-1.425,3.724-8.414,4.46c0,0,6.483-1.15,6.483-3.908s-2.207-2.759-2.069-5.517c.131-2.621-1.517-3.449-1.517-3.449Z" transform="translate(-1728.5 -1480.074)" fill="#efb262"/>
      </g>
      <g id="Group_11200" data-name="Group 11200" transform="translate(59.736 13.132)">
        <path id="Path_16381" data-name="Path 16381" d="M1689.309,1356.683a34.666,34.666,0,0,1-4.733-.342c-4.124-.568-7.1-2.23-8.608-4.806-3.014-5.151.2-11.037,4.757-13.961,2.792-1.791,9.891-6.144,15.482-7.861,9.45-2.9,15.562-7.136,23.3-12.5,1.72-1.192,3.506-2.429,5.408-3.706,5.289-3.549,8.955-4.178,14.5-5.128,1.179-.2,2.459-.421,3.875-.69a2.207,2.207,0,1,1,.822,4.336c-1.445.274-2.749.5-3.952.7-5.342.915-8.284,1.42-12.789,4.443-1.884,1.265-3.651,2.489-5.354,3.669-7.734,5.358-14.414,9.985-24.518,13.088-3.518,1.08-8.9,3.83-14.394,7.356-2.255,1.447-5.153,4.9-3.331,8.017,1.009,1.724,3.494,2.4,5.4,2.662,6.369.878,11.263-.122,17.454-3.562,3.673-2.041,7.711-2.918,12.385-3.933,1.787-.388,3.634-.79,5.6-1.286a25.285,25.285,0,0,1,13.154.3c12.125,3.157,22.463,1.732,30.724-4.236a2.207,2.207,0,1,1,2.585,3.578c-9.379,6.777-20.958,8.438-34.421,4.93a20.837,20.837,0,0,0-10.965-.286c-2.041.514-3.924.923-5.745,1.318-4.333.941-8.075,1.755-11.178,3.479C1699.327,1355.293,1694.581,1356.682,1689.309,1356.683Z" transform="translate(-1674.792 -1307.655)"/>
      </g>
    </g>
  </g>
</svg>
