<svg id="Group_11487" data-name="Group 11487" xmlns="http://www.w3.org/2000/svg" width="304.073" height="245.376" viewBox="0 0 304.073 245.376">
  <g id="Group_11422" data-name="Group 11422" transform="translate(0 34.069)">
    <g id="Group_11380" data-name="Group 11380" transform="translate(0 4.494)">
      <path id="Path_16521" data-name="Path 16521" d="M4939,1848.4v0Z" transform="translate(-4634.927 -1731.5)" fill="#e0e5e9"/>
      <path id="Path_16522" data-name="Path 16522" d="M4783,2064.4v0Z" transform="translate(-4507.993 -1907.255)" fill="#e0e5e9"/>
      <path id="Path_16523" data-name="Path 16523" d="M3600.81,1327.738h-40.8c-5.556,0-10.417-4.428-10.418-9.984a10.44,10.44,0,0,1,10.418-10.138h20.122a9.7,9.7,0,0,0,9.7-9.984,9.831,9.831,0,0,0-9.7-10.138h-24.007a103.473,103.473,0,0,0-158.7-45.835h-51.654a9.6,9.6,0,0,0-9.7,9.875v.135a9.8,9.8,0,0,0,9.7,10.112h31.861a9.738,9.738,0,0,1,9.866,9.875v.135a9.94,9.94,0,0,1-9.866,10.113H3316.7a9.6,9.6,0,0,0-9.7,9.875v.135a9.8,9.8,0,0,0,9.7,10.113h40.8a9.738,9.738,0,0,1,9.865,9.875v.135a9.94,9.94,0,0,1-9.865,10.113h-20.122a10.073,10.073,0,0,0-10.257,9.874v.135a10.274,10.274,0,0,0,10.257,10.113h20.256A103.417,103.417,0,0,0,3532.61,1397.5a104.45,104.45,0,0,0,8.327-9.393h30.806a10.172,10.172,0,0,0,10.264-9.984,10.3,10.3,0,0,0-10.264-10.138h-31.861c-5.556,0-10.417-4.428-10.418-9.984a10.44,10.44,0,0,1,10.418-10.138h60.927a10.172,10.172,0,0,0,10.263-9.984A10.3,10.3,0,0,0,3600.81,1327.738Z" transform="translate(-3307 -1220.972)" fill="#e0e5e9"/>
      <path id="Path_16524" data-name="Path 16524" d="M4825,1632.4v0Z" transform="translate(-4542.167 -1555.745)" fill="#e0e5e9"/>
    </g>
    <g id="Group_11421" data-name="Group 11421" transform="translate(2.236)">
      <g id="Group_11381" data-name="Group 11381" transform="translate(257.12 74.369)">
        <path id="Path_16525" data-name="Path 16525" d="M4706.826,1598.236h-6.708a1.118,1.118,0,0,1,0-2.236h6.708a1.118,1.118,0,0,1,0,2.236Z" transform="translate(-4699 -1596)"/>
      </g>
      <g id="Group_11382" data-name="Group 11382" transform="translate(270.535 74.369)">
        <path id="Path_16526" data-name="Path 16526" d="M4796.712,1598.236h-24.594a1.118,1.118,0,1,1,0-2.236h24.594a1.118,1.118,0,0,1,0,2.236Z" transform="translate(-4771 -1596)"/>
      </g>
      <g id="Group_11383" data-name="Group 11383" transform="translate(250.413 81.076)">
        <path id="Path_16527" data-name="Path 16527" d="M4688.712,1634.236h-24.594a1.118,1.118,0,1,1,0-2.236h24.594a1.118,1.118,0,0,1,0,2.236Z" transform="translate(-4663 -1632)"/>
      </g>
      <g id="Group_11384" data-name="Group 11384" transform="translate(283.95 81.076)">
        <path id="Path_16528" data-name="Path 16528" d="M4848.59,1634.236h-4.472a1.118,1.118,0,1,1,0-2.236h4.472a1.118,1.118,0,1,1,0,2.236Z" transform="translate(-4843 -1632)"/>
      </g>
      <g id="Group_11393" data-name="Group 11393" transform="translate(0 73.335)">
        <g id="Group_11385" data-name="Group 11385" transform="translate(0 9.977)">
          <path id="Path_16529" data-name="Path 16529" d="M3323.472,1646.236h-3.354a1.118,1.118,0,0,1,0-2.236h3.354a1.118,1.118,0,1,1,0,2.236Z" transform="translate(-3319 -1644)"/>
        </g>
        <g id="Group_11386" data-name="Group 11386" transform="translate(16.769 9.977)">
          <path id="Path_16530" data-name="Path 16530" d="M3413.472,1646.236h-3.354a1.118,1.118,0,1,1,0-2.236h3.354a1.118,1.118,0,1,1,0,2.236Z" transform="translate(-3409 -1644)"/>
        </g>
        <g id="Group_11387" data-name="Group 11387" transform="translate(2.947 2.947)">
          <path id="Path_16531" data-name="Path 16531" d="M3338.3,1610.875a1.114,1.114,0,0,1-.79-.328l-2.373-2.371a1.118,1.118,0,0,1,1.581-1.581l2.372,2.371a1.118,1.118,0,0,1-.79,1.908Z" transform="translate(-3334.815 -1606.268)"/>
        </g>
        <g id="Group_11388" data-name="Group 11388" transform="translate(14.804 14.804)">
          <path id="Path_16532" data-name="Path 16532" d="M3401.943,1674.513a1.115,1.115,0,0,1-.79-.327l-2.372-2.371a1.118,1.118,0,0,1,1.581-1.581l2.372,2.371a1.118,1.118,0,0,1-.791,1.908Z" transform="translate(-3398.453 -1669.906)"/>
        </g>
        <g id="Group_11389" data-name="Group 11389" transform="translate(10.061)">
          <path id="Path_16533" data-name="Path 16533" d="M3374.118,1596.04a1.117,1.117,0,0,1-1.118-1.118v-3.354a1.118,1.118,0,1,1,2.236,0v3.354A1.118,1.118,0,0,1,3374.118,1596.04Z" transform="translate(-3373 -1590.45)"/>
        </g>
        <g id="Group_11390" data-name="Group 11390" transform="translate(10.061 16.769)">
          <path id="Path_16534" data-name="Path 16534" d="M3374.118,1686.04a1.117,1.117,0,0,1-1.118-1.118v-3.354a1.118,1.118,0,1,1,2.236,0v3.354A1.118,1.118,0,0,1,3374.118,1686.04Z" transform="translate(-3373 -1680.45)"/>
        </g>
        <g id="Group_11391" data-name="Group 11391" transform="translate(14.804 2.947)">
          <path id="Path_16535" data-name="Path 16535" d="M3399.571,1610.875a1.118,1.118,0,0,1-.79-1.908l2.372-2.371a1.118,1.118,0,0,1,1.581,1.581l-2.372,2.371A1.115,1.115,0,0,1,3399.571,1610.875Z" transform="translate(-3398.453 -1606.268)"/>
        </g>
        <g id="Group_11392" data-name="Group 11392" transform="translate(2.947 14.804)">
          <path id="Path_16536" data-name="Path 16536" d="M3335.933,1674.513a1.118,1.118,0,0,1-.791-1.908l2.373-2.371a1.118,1.118,0,0,1,1.581,1.581l-2.372,2.371A1.115,1.115,0,0,1,3335.933,1674.513Z" transform="translate(-3334.815 -1669.906)"/>
        </g>
      </g>
      <g id="Group_11402" data-name="Group 11402" transform="translate(202.342 10.731)">
        <g id="Group_11394" data-name="Group 11394" transform="translate(0 9.977)">
          <path id="Path_16537" data-name="Path 16537" d="M4409.472,1310.236h-3.354a1.118,1.118,0,0,1,0-2.236h3.354a1.118,1.118,0,1,1,0,2.236Z" transform="translate(-4405 -1308)"/>
        </g>
        <g id="Group_11395" data-name="Group 11395" transform="translate(16.769 9.977)">
          <path id="Path_16538" data-name="Path 16538" d="M4499.472,1310.236h-3.354a1.118,1.118,0,0,1,0-2.236h3.354a1.118,1.118,0,1,1,0,2.236Z" transform="translate(-4495 -1308)"/>
        </g>
        <g id="Group_11396" data-name="Group 11396" transform="translate(2.947 2.947)">
          <path id="Path_16539" data-name="Path 16539" d="M4424.3,1274.875a1.116,1.116,0,0,1-.79-.327l-2.373-2.371a1.118,1.118,0,0,1,1.581-1.581l2.373,2.371a1.118,1.118,0,0,1-.791,1.908Z" transform="translate(-4420.814 -1270.268)"/>
        </g>
        <g id="Group_11397" data-name="Group 11397" transform="translate(14.804 14.804)">
          <path id="Path_16540" data-name="Path 16540" d="M4487.943,1338.513a1.115,1.115,0,0,1-.79-.328l-2.373-2.371a1.118,1.118,0,0,1,1.581-1.581l2.373,2.371a1.118,1.118,0,0,1-.791,1.908Z" transform="translate(-4484.453 -1333.906)"/>
        </g>
        <g id="Group_11398" data-name="Group 11398" transform="translate(10.061)">
          <path id="Path_16541" data-name="Path 16541" d="M4460.118,1260.039a1.117,1.117,0,0,1-1.118-1.118v-3.354a1.118,1.118,0,1,1,2.236,0v3.354A1.118,1.118,0,0,1,4460.118,1260.039Z" transform="translate(-4459 -1254.45)"/>
        </g>
        <g id="Group_11399" data-name="Group 11399" transform="translate(10.061 16.769)">
          <path id="Path_16542" data-name="Path 16542" d="M4460.118,1350.039a1.117,1.117,0,0,1-1.118-1.118v-3.354a1.118,1.118,0,1,1,2.236,0v3.354A1.118,1.118,0,0,1,4460.118,1350.039Z" transform="translate(-4459 -1344.45)"/>
        </g>
        <g id="Group_11400" data-name="Group 11400" transform="translate(14.804 2.947)">
          <path id="Path_16543" data-name="Path 16543" d="M4485.571,1274.875a1.118,1.118,0,0,1-.791-1.908l2.373-2.371a1.118,1.118,0,0,1,1.581,1.581l-2.373,2.371A1.116,1.116,0,0,1,4485.571,1274.875Z" transform="translate(-4484.453 -1270.268)"/>
        </g>
        <g id="Group_11401" data-name="Group 11401" transform="translate(2.947 14.804)">
          <path id="Path_16544" data-name="Path 16544" d="M4421.932,1338.513a1.118,1.118,0,0,1-.791-1.908l2.373-2.371a1.118,1.118,0,0,1,1.581,1.581l-2.373,2.371A1.113,1.113,0,0,1,4421.932,1338.513Z" transform="translate(-4420.814 -1333.906)"/>
        </g>
      </g>
      <g id="Group_11403" data-name="Group 11403" transform="translate(72.849)">
        <path id="Path_16545" data-name="Path 16545" d="M3718.095,1213.063a1.116,1.116,0,0,1-.98-.581l-1.368-2.5a6.72,6.72,0,0,0-2.675-2.674l-2.5-1.368a1.118,1.118,0,0,1,0-1.962l2.5-1.367a6.722,6.722,0,0,0,2.675-2.675l1.368-2.5a1.116,1.116,0,0,1,.98-.581h0a1.118,1.118,0,0,1,.981.582l1.367,2.5a6.716,6.716,0,0,0,2.674,2.674l2.5,1.367a1.118,1.118,0,0,1,0,1.962l-2.5,1.368a6.723,6.723,0,0,0-2.675,2.674l-1.366,2.5A1.119,1.119,0,0,1,3718.095,1213.063Zm-4.657-8.1.708.387a8.947,8.947,0,0,1,3.562,3.563l.388.707.385-.706a8.95,8.95,0,0,1,3.564-3.563l.708-.387-.708-.387h0a8.946,8.946,0,0,1-3.564-3.563l-.386-.707-.388.707a8.941,8.941,0,0,1-3.563,3.563Z" transform="translate(-3709.99 -1196.853)"/>
      </g>
      <g id="Group_11404" data-name="Group 11404" transform="translate(251.251 123.125)">
        <path id="Path_16546" data-name="Path 16546" d="M4675.6,1873.849a1.116,1.116,0,0,1-.98-.581l-1.368-2.5a6.707,6.707,0,0,0-2.674-2.674l-2.5-1.368a1.118,1.118,0,0,1,0-1.962l2.5-1.368a6.709,6.709,0,0,0,2.673-2.674l1.369-2.5a1.163,1.163,0,0,1,1.961,0l1.368,2.5a6.713,6.713,0,0,0,2.675,2.674l2.5,1.368a1.118,1.118,0,0,1,0,1.962l-2.5,1.368a6.705,6.705,0,0,0-2.672,2.673l-1.369,2.5A1.117,1.117,0,0,1,4675.6,1873.849Zm-4.657-8.1.707.387a8.943,8.943,0,0,1,3.564,3.563l.386.707.387-.708a8.942,8.942,0,0,1,3.563-3.563l.707-.375-.707-.375h0a9.708,9.708,0,0,1-3.562-3.575l-.386-.713-.387.7a8.943,8.943,0,0,1-3.561,3.561Z" transform="translate(-4667.5 -1857.683)"/>
      </g>
      <g id="Group_11409" data-name="Group 11409" transform="translate(93.905 190.716)">
        <g id="Group_11405" data-name="Group 11405" transform="translate(0 6.624)">
          <path id="Path_16547" data-name="Path 16547" d="M3826.354,2258.236h-2.236a1.118,1.118,0,1,1,0-2.236h2.236a1.118,1.118,0,1,1,0,2.236Z" transform="translate(-3823 -2256)"/>
        </g>
        <g id="Group_11406" data-name="Group 11406" transform="translate(11.179 6.624)">
          <path id="Path_16548" data-name="Path 16548" d="M3886.354,2258.236h-2.236a1.118,1.118,0,1,1,0-2.236h2.236a1.118,1.118,0,0,1,0,2.236Z" transform="translate(-3883 -2256)"/>
        </g>
        <g id="Group_11407" data-name="Group 11407" transform="translate(6.707)">
          <path id="Path_16549" data-name="Path 16549" d="M3860.118,2224.922A1.117,1.117,0,0,1,3859,2223.8v-2.236a1.118,1.118,0,1,1,2.236,0v2.236A1.117,1.117,0,0,1,3860.118,2224.922Z" transform="translate(-3859 -2220.45)"/>
        </g>
        <g id="Group_11408" data-name="Group 11408" transform="translate(6.707 11.179)">
          <path id="Path_16550" data-name="Path 16550" d="M3860.118,2284.922A1.117,1.117,0,0,1,3859,2283.8v-2.236a1.118,1.118,0,1,1,2.236,0v2.236A1.117,1.117,0,0,1,3860.118,2284.922Z" transform="translate(-3859 -2280.45)"/>
        </g>
      </g>
      <g id="Group_11414" data-name="Group 11414" transform="translate(50.306 34.208)">
        <g id="Group_11410" data-name="Group 11410" transform="translate(0 6.624)">
          <path id="Path_16551" data-name="Path 16551" d="M3592.354,1418.236h-2.236a1.118,1.118,0,1,1,0-2.236h2.236a1.118,1.118,0,1,1,0,2.236Z" transform="translate(-3589 -1416)"/>
        </g>
        <g id="Group_11411" data-name="Group 11411" transform="translate(11.179 6.624)">
          <path id="Path_16552" data-name="Path 16552" d="M3652.354,1418.236h-2.236a1.118,1.118,0,1,1,0-2.236h2.236a1.118,1.118,0,1,1,0,2.236Z" transform="translate(-3649 -1416)"/>
        </g>
        <g id="Group_11412" data-name="Group 11412" transform="translate(6.707)">
          <path id="Path_16553" data-name="Path 16553" d="M3626.117,1384.922A1.118,1.118,0,0,1,3625,1383.8v-2.236a1.118,1.118,0,1,1,2.236,0v2.236A1.117,1.117,0,0,1,3626.117,1384.922Z" transform="translate(-3625 -1380.45)"/>
        </g>
        <g id="Group_11413" data-name="Group 11413" transform="translate(6.707 11.179)">
          <path id="Path_16554" data-name="Path 16554" d="M3626.117,1444.922A1.117,1.117,0,0,1,3625,1443.8v-2.236a1.118,1.118,0,1,1,2.236,0v2.236A1.117,1.117,0,0,1,3626.117,1444.922Z" transform="translate(-3625 -1440.45)"/>
        </g>
      </g>
      <g id="Group_11415" data-name="Group 11415" transform="translate(19.005 152.623)">
        <path id="Path_16555" data-name="Path 16555" d="M3471.306,2018.236h-49.188a1.118,1.118,0,1,1,0-2.236h49.188a1.118,1.118,0,0,1,0,2.236Z" transform="translate(-3421 -2016)"/>
      </g>
      <g id="Group_11416" data-name="Group 11416" transform="translate(179.984 190.632)">
        <path id="Path_16556" data-name="Path 16556" d="M4323.009,2222.236h-36.892a1.118,1.118,0,0,1,0-2.236h36.892a1.118,1.118,0,0,1,0,2.236Z" transform="translate(-4285 -2220)"/>
      </g>
      <g id="Group_11417" data-name="Group 11417" transform="translate(195.635 197.339)">
        <path id="Path_16557" data-name="Path 16557" d="M4400.3,2258.236h-30.184a1.118,1.118,0,0,1,0-2.236H4400.3a1.118,1.118,0,1,1,0,2.236Z" transform="translate(-4369 -2256)"/>
      </g>
      <g id="Group_11418" data-name="Group 11418" transform="translate(166.569 197.339)">
        <path id="Path_16558" data-name="Path 16558" d="M4234.24,2258.236h-20.122a1.118,1.118,0,0,1,0-2.236h20.122a1.118,1.118,0,1,1,0,2.236Z" transform="translate(-4213 -2256)"/>
      </g>
      <g id="Group_11419" data-name="Group 11419" transform="translate(30.184 144.797)">
        <path id="Path_16559" data-name="Path 16559" d="M3497.769,1976.236h-15.651a1.118,1.118,0,0,1,0-2.236h15.651a1.118,1.118,0,0,1,0,2.236Z" transform="translate(-3481 -1974)"/>
      </g>
      <g id="Group_11420" data-name="Group 11420" transform="translate(52.542 144.797)">
        <path id="Path_16560" data-name="Path 16560" d="M3608.826,1976.236h-6.708a1.118,1.118,0,1,1,0-2.236h6.708a1.118,1.118,0,0,1,0,2.236Z" transform="translate(-3601 -1974)"/>
      </g>
    </g>
  </g>
  <g id="Group_11483" data-name="Group 11483" transform="translate(51.383)">
    <g id="Group_11423" data-name="Group 11423" transform="translate(2.236 92.623)">
      <ellipse id="Ellipse_634" data-name="Ellipse 634" cx="12.113" cy="12.113" rx="12.113" ry="12.113" fill="#28af5f"/>
    </g>
    <g id="Group_11424" data-name="Group 11424" transform="translate(0 90.387)">
      <path id="Path_16561" data-name="Path 16561" d="M3597.125,1527.819a14.349,14.349,0,1,1,14.35-14.349A14.365,14.365,0,0,1,3597.125,1527.819Zm0-24.227a9.878,9.878,0,1,0,9.878,9.878A9.888,9.888,0,0,0,3597.125,1503.592Z" transform="translate(-3582.777 -1499.12)"/>
    </g>
    <g id="Group_11425" data-name="Group 11425" transform="translate(11.229 100.775)">
      <path id="Path_16562" data-name="Path 16562" d="M3690.535,1592.532l5.792-9.493-44.828-27.351a5.56,5.56,0,0,0-7.643,1.85h0a5.561,5.561,0,0,0,1.851,7.642Z" transform="translate(-3643.042 -1554.873)" fill="#80e5b0"/>
    </g>
    <g id="Group_11426" data-name="Group 11426" transform="translate(8.995 98.537)">
      <path id="Path_16563" data-name="Path 16563" d="M3680.779,1584.994a2.228,2.228,0,0,1-1.162-.327l-44.828-27.351a7.8,7.8,0,0,1,8.122-13.31L3664.2,1557a2.236,2.236,0,0,1-2.33,3.818l-21.294-12.992a3.324,3.324,0,1,0-3.463,5.675l42.919,26.187,3.464-5.676-15.632-9.537a2.236,2.236,0,0,1,2.33-3.818l17.541,10.7a2.238,2.238,0,0,1,.743,3.074l-5.793,9.493A2.235,2.235,0,0,1,3680.779,1584.994Z" transform="translate(-3631.055 -1542.861)"/>
    </g>
    <g id="Group_11444" data-name="Group 11444" transform="translate(54.819)">
      <g id="Group_11427" data-name="Group 11427" transform="translate(2.236 1.118)">
        <rect id="Rectangle_3348" data-name="Rectangle 3348" width="82.726" height="63.721" rx="31.861" fill="#fc9956"/>
      </g>
      <g id="Group_11428" data-name="Group 11428" transform="translate(76.018 1.202)">
        <path id="Path_16564" data-name="Path 16564" d="M4285,1082.385V1020.45s7.825,5.286,7.825,11.807v38.322C4292.825,1077.1,4285,1082.385,4285,1082.385Z" transform="translate(-4285 -1020.45)" fill="#ed7c2f"/>
      </g>
      <g id="Group_11429" data-name="Group 11429" transform="translate(2.236 1.985)">
        <path id="Path_16565" data-name="Path 16565" d="M3895.943,1024.654c-1.671,2.037-6.943,8.182-6.943,11.023V1074c0,3,5.256,9.1,7.1,11.18C3896.1,1077.356,3895.682,1032.217,3895.943,1024.654Z" transform="translate(-3889 -1024.654)" fill="#e0e5e9"/>
      </g>
      <g id="Group_11430" data-name="Group 11430" transform="translate(32.42 2.236)">
        <path id="Path_16566" data-name="Path 16566" d="M4051,1026v26.087l3.91-3.129,3.737,3.129,3.042-3.129,2.912,3.129,4.118-3.129,4.64,3.129V1026Z" transform="translate(-4051 -1026)" fill="#b28567"/>
      </g>
      <g id="Group_11431" data-name="Group 11431" transform="translate(32.42 2.236)">
        <path id="Path_16567" data-name="Path 16567" d="M4056.589,1026H4051v27.13l5.589-3.129Z" transform="translate(-4051 -1026)" fill="#e0e5e9"/>
      </g>
      <g id="Group_11432" data-name="Group 11432" transform="translate(49.188 2.236)">
        <path id="Path_16568" data-name="Path 16568" d="M4141,1026h5.59v27.13L4141,1050Z" transform="translate(-4141 -1026)" fill="#916c53"/>
      </g>
      <g id="Group_11433" data-name="Group 11433">
        <path id="Path_16569" data-name="Path 16569" d="M3935.132,1079.957h-45.673c-7.22,0-12.459-6.1-12.459-14.626v-38.322c0-7.126,4.029-12.005,10.432-12.838a2.261,2.261,0,0,1,.748-.17h1.279a2.268,2.268,0,0,1,0,4.535c-5.151,0-7.987,3.023-7.987,8.474v38.322c0,4.931,2.5,10.155,7.987,10.155h45.673a2.236,2.236,0,1,1,0,4.472Z" transform="translate(-3877 -1014)"/>
      </g>
      <g id="Group_11434" data-name="Group 11434" transform="translate(21.24)">
        <path id="Path_16570" data-name="Path 16570" d="M4043.691,1079.957H4034.6a2.236,2.236,0,0,1,0-4.472h9.092c5.3,0,7.677-5.059,7.677-10.155v-38.322c0-3.856-1.332-8.537-7.677-8.537h-50.455a2.236,2.236,0,0,1,0-4.472h50.455c7.493,0,12.149,5.036,12.149,13.008v38.322C4055.839,1073.992,4050.843,1079.957,4043.691,1079.957Z" transform="translate(-3991 -1014)"/>
      </g>
      <g id="Group_11435" data-name="Group 11435" transform="translate(15.651 0.113)">
        <path id="Path_16571" data-name="Path 16571" d="M3963.236,1019.049a2.253,2.253,0,0,1-2.236-2.236,2.244,2.244,0,0,1,.659-1.588,2.3,2.3,0,0,1,3.153.011,2.236,2.236,0,0,1-1.576,3.812Z" transform="translate(-3961 -1014.606)"/>
      </g>
      <g id="Group_11436" data-name="Group 11436" transform="translate(52.542 53.66)">
        <path id="Path_16572" data-name="Path 16572" d="M4181.358,1306.472h-20.122a2.236,2.236,0,0,1,0-4.472h20.122a2.236,2.236,0,0,1,0,4.472Z" transform="translate(-4159 -1302)"/>
      </g>
      <g id="Group_11437" data-name="Group 11437" transform="translate(57.014 43.124)">
        <path id="Path_16573" data-name="Path 16573" d="M4184.676,1254.393a1.677,1.677,0,0,1-1.676-1.677v-5.59a1.677,1.677,0,0,1,3.354,0v5.59A1.677,1.677,0,0,1,4184.676,1254.393Z" transform="translate(-4183 -1245.45)"/>
      </g>
      <g id="Group_11438" data-name="Group 11438" transform="translate(53.566 40.041)">
        <path id="Path_16574" data-name="Path 16574" d="M4166.174,1235.65a1.676,1.676,0,0,1-1.12-2.925l3.78-3.39a1.678,1.678,0,0,1,2.305.062l3.391,3.39a1.677,1.677,0,0,1-2.372,2.372l-2.267-2.267-2.6,2.33A1.665,1.665,0,0,1,4166.174,1235.65Z" transform="translate(-4164.496 -1228.907)"/>
      </g>
      <g id="Group_11439" data-name="Group 11439" transform="translate(69.311 43.124)">
        <path id="Path_16575" data-name="Path 16575" d="M4250.676,1254.393a1.677,1.677,0,0,1-1.676-1.677v-5.59a1.677,1.677,0,0,1,3.354,0v5.59A1.677,1.677,0,0,1,4250.676,1254.393Z" transform="translate(-4249 -1245.45)"/>
      </g>
      <g id="Group_11440" data-name="Group 11440" transform="translate(66.082 40.041)">
        <path id="Path_16576" data-name="Path 16576" d="M4233.351,1235.65a1.677,1.677,0,0,1-1.12-2.926l3.782-3.39a1.677,1.677,0,0,1,2.3.063l3.39,3.39a1.677,1.677,0,0,1-2.372,2.371l-2.267-2.267-2.6,2.33A1.671,1.671,0,0,1,4233.351,1235.65Z" transform="translate(-4231.673 -1228.906)"/>
      </g>
      <g id="Group_11441" data-name="Group 11441" transform="translate(52.542 0.084)">
        <path id="Path_16577" data-name="Path 16577" d="M4161.236,1023.393a2.236,2.236,0,0,1-2.236-2.236v-4.472a2.236,2.236,0,1,1,4.472,0v4.472A2.236,2.236,0,0,1,4161.236,1023.393Z" transform="translate(-4159 -1014.45)"/>
      </g>
      <g id="Group_11442" data-name="Group 11442" transform="translate(52.542 10.176)">
        <path id="Path_16578" data-name="Path 16578" d="M4161.236,1073.055a2.237,2.237,0,0,1-1.587-3.812,2.3,2.3,0,0,1,3.164,0,2.2,2.2,0,0,1,.66,1.576,2.233,2.233,0,0,1-2.236,2.236Z" transform="translate(-4159 -1068.614)"/>
      </g>
      <g id="Group_11443" data-name="Group 11443" transform="translate(30.184 0.084)">
        <path id="Path_16579" data-name="Path 16579" d="M4054.837,1045.968a2.229,2.229,0,0,1-1.638-.713l-1.311-1.408-1.4,1.444a2.235,2.235,0,0,1-3.038.156l-2.333-1.954-2.48,1.985a2.236,2.236,0,0,1-3.633-1.746v-27.046a2.236,2.236,0,0,1,4.472,0v22.393l.276-.222a2.237,2.237,0,0,1,2.833.032l2.145,1.8,1.6-1.9a2.551,2.551,0,0,1,1.6-.94h.025a2.532,2.532,0,0,1,1.612.975l1.534,1.779,2.507-1.839a2.233,2.233,0,0,1,2.6-.041l1.154.811v-6.073a2.236,2.236,0,0,1,4.472,0v10.277a2.236,2.236,0,0,1-3.486,1.854l-3.312-2.234-2.843,2.161A2.228,2.228,0,0,1,4054.837,1045.968Z" transform="translate(-4039 -1014.45)"/>
      </g>
    </g>
    <g id="Group_11445" data-name="Group 11445" transform="translate(27.242 148.683)">
      <path id="Path_16580" data-name="Path 16580" d="M3728.987,1812l13.313,56.25a8.385,8.385,0,0,0,8.442,6.353h101.03a8.385,8.385,0,0,0,8.442-6.353l13.314-56.25Zm37.639,50.306h-11.215l-5.955-40.245h17.169Zm24.594,0h-10.061v-40.245h10.061Zm27.948-1.118h-12.3v-39.127h12.3Zm26.82,1.118h-10.051v-40.245h16.006Z" transform="translate(-3728.987 -1812)" fill="#e0e5e9"/>
    </g>
    <g id="Group_11450" data-name="Group 11450" transform="translate(34.685 146.447)">
      <g id="Group_11446" data-name="Group 11446" transform="translate(13.026 12.297)">
        <path id="Path_16581" data-name="Path 16581" d="M3844.8,1906.245h11.215V1866h-17.169Z" transform="translate(-3838.849 -1866)" fill="none"/>
      </g>
      <g id="Group_11447" data-name="Group 11447" transform="translate(44.728 12.297)">
        <rect id="Rectangle_3349" data-name="Rectangle 3349" width="10.061" height="40.245" fill="none"/>
      </g>
      <g id="Group_11448" data-name="Group 11448" transform="translate(99.506 12.297)">
        <path id="Path_16582" data-name="Path 16582" d="M4303,1906.245h10.052l5.954-40.245H4303Z" transform="translate(-4303 -1866)" fill="none"/>
      </g>
      <g id="Group_11449" data-name="Group 11449">
        <path id="Path_16583" data-name="Path 16583" d="M3768.936,1800l13.314,58.268c.922,3.917,4.417,6.571,5.465,6.571h92.1c7,0,10.5-2.654,11.42-6.571L3904.546,1800Zm30.2,52.542h-11.215l-5.955-40.245h17.169Zm24.594,0h-10.061V1812.3h10.061Zm26.83,0h-11.179V1812.3h11.179Zm27.938,0h-10.051V1812.3h16.006Z" transform="translate(-3768.936 -1800)" fill="#ea5757"/>
      </g>
    </g>
    <g id="Group_11451" data-name="Group 11451" transform="translate(169.965 92.623)">
      <ellipse id="Ellipse_635" data-name="Ellipse 635" cx="12.113" cy="12.113" rx="12.113" ry="12.113" fill="#28af5f"/>
    </g>
    <g id="Group_11452" data-name="Group 11452" transform="translate(167.729 90.387)">
      <path id="Path_16584" data-name="Path 16584" d="M4497.35,1527.819a14.349,14.349,0,1,1,14.349-14.349A14.365,14.365,0,0,1,4497.35,1527.819Zm0-24.227a9.878,9.878,0,1,0,9.877,9.878A9.89,9.89,0,0,0,4497.35,1503.592Z" transform="translate(-4483 -1499.12)"/>
    </g>
    <g id="Group_11453" data-name="Group 11453" transform="translate(131.914 100.775)">
      <path id="Path_16585" data-name="Path 16585" d="M4296.568,1592.532l-5.792-9.493,44.828-27.351a5.56,5.56,0,0,1,7.642,1.85h0a5.56,5.56,0,0,1-1.85,7.642Z" transform="translate(-4290.776 -1554.873)" fill="#80e5b0"/>
    </g>
    <g id="Group_11454" data-name="Group 11454" transform="translate(149.275 148.683)">
      <path id="Path_16586" data-name="Path 16586" d="M4383.956,1872.195c6.133,0,8.187-2.1,8.923-3.943L4406.285,1812h-8.753Z" transform="translate(-4383.956 -1812)" fill="#d84141"/>
    </g>
    <g id="Group_11455" data-name="Group 11455" transform="translate(129.678 98.537)">
      <path id="Path_16587" data-name="Path 16587" d="M4286.8,1584.993a2.231,2.231,0,0,1-1.908-1.071l-5.792-9.493a2.236,2.236,0,0,1,.744-3.073L4324.676,1544a7.8,7.8,0,1,1,8.121,13.31l-9.841,6a2.236,2.236,0,0,1-2.33-3.818l9.842-6.005a3.324,3.324,0,1,0-3.462-5.675l-42.919,26.186,3.459,5.672,23.148-14.192a2.235,2.235,0,1,1,2.336,3.812l-25.057,15.363A2.236,2.236,0,0,1,4286.8,1584.993Z" transform="translate(-4278.777 -1542.861)"/>
    </g>
    <g id="Group_11456" data-name="Group 11456" transform="translate(165.437 117.397)">
      <path id="Path_16588" data-name="Path 16588" d="M4472.937,1648.883a2.236,2.236,0,0,1-1.582-3.817l.328-.327a2.235,2.235,0,0,1,3.161,3.161l-.327.328A2.23,2.23,0,0,1,4472.937,1648.883Z" transform="translate(-4470.701 -1644.084)"/>
    </g>
    <g id="Group_11457" data-name="Group 11457" transform="translate(17.928 129.678)">
      <rect id="Rectangle_3350" data-name="Rectangle 3350" width="164.333" height="19.005" rx="9.502" fill="#e0e5e9"/>
    </g>
    <g id="Group_11458" data-name="Group 11458" transform="translate(25.754 129.678)">
      <rect id="Rectangle_3351" data-name="Rectangle 3351" width="145.329" height="19.005" rx="9.502" fill="#ff7d7d"/>
    </g>
    <g id="Group_11459" data-name="Group 11459" transform="translate(169.964 129.678)">
      <rect id="Rectangle_3352" data-name="Rectangle 3352" width="11.179" height="19.005" rx="5.59" fill="#ed5d5d"/>
    </g>
    <g id="Group_11460" data-name="Group 11460" transform="translate(15.692 127.442)">
      <path id="Path_16589" data-name="Path 16589" d="M3713.952,1720.358h-41.357a5.245,5.245,0,0,1-5.595-5.422v-11.165a5.525,5.525,0,0,1,5.595-5.771h71.541a2.236,2.236,0,0,1,0,4.472h-71.541c-.556,0-1.124.228-1.124,1.3v11.165c0,.686.174.951,1.124.951h41.357a2.236,2.236,0,0,1,0,4.472Z" transform="translate(-3667 -1698)"/>
    </g>
    <g id="Group_11461" data-name="Group 11461" transform="translate(68.234 127.442)">
      <path id="Path_16590" data-name="Path 16590" d="M4058.5,1720.358H3951.236a2.236,2.236,0,0,1,0-4.472H4058.5c1.081,0,1.17-.405,1.17-.951v-11.165c0-1.077-.625-1.3-1.17-1.3h-69.259a2.236,2.236,0,0,1,0-4.472H4058.5a5.547,5.547,0,0,1,5.642,5.771v11.165A5.269,5.269,0,0,1,4058.5,1720.358Z" transform="translate(-3949 -1698)"/>
    </g>
    <g id="Group_11462" data-name="Group 11462" transform="translate(97.3 127.442)">
      <path id="Path_16591" data-name="Path 16591" d="M4108.354,1702.472h-1.118a2.236,2.236,0,0,1,0-4.472h1.118a2.236,2.236,0,0,1,0,4.472Z" transform="translate(-4105 -1698)"/>
    </g>
    <g id="Group_11463" data-name="Group 11463" transform="translate(25.005 145.854)">
      <path id="Path_16592" data-name="Path 16592" d="M3842,1864.488h-101.03a10.83,10.83,0,0,1-10.618-8.368l-13.314-56.562a2.234,2.234,0,0,1,4.354-1.008l13.313,56.543a6.378,6.378,0,0,0,6.265,4.924H3842a6.378,6.378,0,0,0,6.267-4.921l8.529-36.345a2.238,2.238,0,0,1,4.354,1.037l-8.53,36.328A10.833,10.833,0,0,1,3842,1864.488Z" transform="translate(-3716.981 -1796.821)"/>
    </g>
    <g id="Group_11464" data-name="Group 11464" transform="translate(166.205 159.4)">
      <path id="Path_16593" data-name="Path 16593" d="M4477.061,1874.649a2.236,2.236,0,0,1-2.171-2.779l.164-.654a2.236,2.236,0,0,1,4.339,1.085l-.164.654A2.237,2.237,0,0,1,4477.061,1874.649Z" transform="translate(-4474.823 -1869.522)"/>
    </g>
    <g id="Group_11465" data-name="Group 11465" transform="translate(167.882 145.864)">
      <path id="Path_16594" data-name="Path 16594" d="M4486.061,1808.3a2.272,2.272,0,0,1-.523-.062,2.236,2.236,0,0,1-1.654-2.695l1.665-6.959a2.236,2.236,0,0,1,4.35,1.041l-1.665,6.958A2.237,2.237,0,0,1,4486.061,1808.3Z" transform="translate(-4483.821 -1796.873)"/>
    </g>
    <g id="Group_11466" data-name="Group 11466" transform="translate(131.803 133.769)">
      <ellipse id="Ellipse_636" data-name="Ellipse 636" cx="3.163" cy="3.163" rx="3.163" ry="3.163" transform="translate(1.677 1.677)" fill="#ffec00"/>
      <path id="Path_16595" data-name="Path 16595" d="M4295.021,1741.638a4.84,4.84,0,1,1,4.84-4.84A4.846,4.846,0,0,1,4295.021,1741.638Zm0-6.327a1.487,1.487,0,1,0,1.487,1.487A1.489,1.489,0,0,0,4295.021,1735.311Z" transform="translate(-4290.18 -1731.957)"/>
    </g>
    <g id="Group_11467" data-name="Group 11467" transform="translate(55.784 133.769)">
      <ellipse id="Ellipse_637" data-name="Ellipse 637" cx="3.163" cy="3.163" rx="3.163" ry="3.163" transform="translate(1.677 1.677)" fill="#ffec00"/>
      <path id="Path_16596" data-name="Path 16596" d="M3887.02,1741.638a4.84,4.84,0,1,1,4.841-4.84A4.846,4.846,0,0,1,3887.02,1741.638Zm0-6.327a1.487,1.487,0,1,0,1.487,1.487A1.489,1.489,0,0,0,3887.02,1735.311Z" transform="translate(-3882.18 -1731.957)"/>
    </g>
    <g id="Group_11468" data-name="Group 11468" transform="translate(77.178 157.626)">
      <path id="Path_16597" data-name="Path 16597" d="M4013.769,1901.363a2.236,2.236,0,0,1-2.236,2.236h-12.3a2.236,2.236,0,0,1-2.236-2.236v-39.127a2.236,2.236,0,0,1,2.236-2.236h12.3a2.236,2.236,0,0,1,2.236,2.236Zm-12.3-2.236h7.825v-34.655h-7.825Z" transform="translate(-3997 -1860)"/>
    </g>
    <g id="Group_11469" data-name="Group 11469" transform="translate(104.008 157.626)">
      <path id="Path_16598" data-name="Path 16598" d="M4156.65,1901.363a2.236,2.236,0,0,1-2.236,2.236h-11.179a2.236,2.236,0,0,1-2.236-2.236v-39.127a2.236,2.236,0,0,1,2.236-2.236h11.179a2.236,2.236,0,0,1,2.236,2.236Zm-11.179-2.236h6.707v-34.655h-6.707Z" transform="translate(-4141 -1860)"/>
    </g>
    <g id="Group_11473" data-name="Group 11473" transform="translate(47.711 158.744)">
      <g id="Group_11470" data-name="Group 11470">
        <path id="Path_16599" data-name="Path 16599" d="M3844.8,1906.245h11.215V1866h-17.169Z" transform="translate(-3838.849 -1866)" fill="none"/>
      </g>
      <g id="Group_11471" data-name="Group 11471" transform="translate(31.702)">
        <rect id="Rectangle_3353" data-name="Rectangle 3353" width="10.061" height="40.245" fill="none"/>
      </g>
      <g id="Group_11472" data-name="Group 11472" transform="translate(86.48)">
        <path id="Path_16600" data-name="Path 16600" d="M4303,1906.245h10.052l5.954-40.245H4303Z" transform="translate(-4303 -1866)" fill="none"/>
      </g>
    </g>
    <g id="Group_11474" data-name="Group 11474" transform="translate(131.955 157.626)">
      <path id="Path_16601" data-name="Path 16601" d="M4303.287,1903.6h-10.052a2.166,2.166,0,0,1-2.235-2.152V1862.32a2.309,2.309,0,0,1,2.235-2.32h16.006a2.3,2.3,0,0,1,2.211,2.635l-5.955,39.1A2.208,2.208,0,0,1,4303.287,1903.6Zm-7.815-4.472h5.894l5.274-34.655h-11.168Z" transform="translate(-4291 -1860)"/>
    </g>
    <g id="Group_11475" data-name="Group 11475" transform="translate(45.475 157.626)">
      <path id="Path_16602" data-name="Path 16602" d="M3845.137,1903.6h-10.1a2.2,2.2,0,0,1-2.212-1.87l-.4-2.729a2.238,2.238,0,0,1,4.424-.675l.123.8h5.929v-34.655h-11.211l3.134,20.469a2.256,2.256,0,0,1-1.87,2.57,2.23,2.23,0,0,1-2.549-1.86l-3.528-23a2.321,2.321,0,0,1,.513-1.835,2.277,2.277,0,0,1,1.7-.819h16.051a2.309,2.309,0,0,1,2.236,2.32v39.127A2.166,2.166,0,0,1,3845.137,1903.6Z" transform="translate(-3826.85 -1860)"/>
    </g>
    <g id="Group_11476" data-name="Group 11476" transform="translate(50.348 186.806)">
      <path id="Path_16603" data-name="Path 16603" d="M3855.236,2021.055a2.237,2.237,0,0,1-1.588-3.812,2.3,2.3,0,0,1,3.164,0,2.236,2.236,0,0,1-1.576,3.812Z" transform="translate(-3853 -2016.614)"/>
    </g>
    <g id="Group_11477" data-name="Group 11477" transform="translate(89.475 78.254)">
      <rect id="Rectangle_3354" data-name="Rectangle 3354" width="5.59" height="20.122" fill="#e0e5e9"/>
    </g>
    <g id="Group_11478" data-name="Group 11478" transform="translate(85.697 78.254)">
      <path id="Path_16604" data-name="Path 16604" d="M4067.744,1454.122h-5.59V1434h-11.179v20.122h-8.249l14.118,13.866,14.118-13.866Z" transform="translate(-4042.726 -1434)" fill="#b4db12"/>
    </g>
    <g id="Group_11479" data-name="Group 11479" transform="translate(100.654 78.254)">
      <rect id="Rectangle_3355" data-name="Rectangle 3355" width="4.472" height="20.122" fill="#8daf00"/>
    </g>
    <g id="Group_11480" data-name="Group 11480" transform="translate(93.108 98.376)">
      <path id="Path_16605" data-name="Path 16605" d="M4102.208,1542h-5.59l-14.118,13.908,2.795,2.724Z" transform="translate(-4082.5 -1542)" fill="#8daf00"/>
    </g>
    <g id="Group_11481" data-name="Group 11481" transform="translate(80.108 98.376)">
      <path id="Path_16606" data-name="Path 16606" d="M4012.726,1542l16.913,16.653,2.795-2.766L4018.315,1542Z" transform="translate(-4012.726 -1542)" fill="#e0e5e9"/>
    </g>
    <g id="Group_11482" data-name="Group 11482" transform="translate(77.872 76.018)">
      <path id="Path_16607" data-name="Path 16607" d="M4019.875,1463.29a2.228,2.228,0,0,1-1.567-.641l-16.913-16.611a2.306,2.306,0,0,1-.5-2.483,2.276,2.276,0,0,1,2.07-1.432h7.131v-17.8a2.309,2.309,0,0,1,2.236-2.32h15.651a2.309,2.309,0,0,1,2.236,2.32v6.707a2.236,2.236,0,1,1-4.471,0v-4.555h-11.179v17.97a2.166,2.166,0,0,1-2.236,2.152h-3.9l11.446,11.242,11.446-11.242h-3.341a2.166,2.166,0,0,1-2.236-2.152v-7.825a2.236,2.236,0,1,1,4.471,0v5.506h6.572a2.282,2.282,0,0,1,1.567,3.894l-16.913,16.622A2.238,2.238,0,0,1,4019.875,1463.29Z" transform="translate(-4000.727 -1422)"/>
    </g>
  </g>
</svg>
