<svg id="Group_10918" data-name="Group 10918" xmlns="http://www.w3.org/2000/svg" width="292.894" height="209.646" viewBox="0 0 292.894 209.646">
  <g id="Group_10773" data-name="Group 10773" transform="translate(2.117)">
    <path id="Path_16023" data-name="Path 16023" d="M1262.632,1253.635h-61.182a103.429,103.429,0,0,0-165.114,61.97l-11.686.179a10.061,10.061,0,0,0-9.941,10.18h0a10.061,10.061,0,0,0,10.18,9.941l3.744-.084,6.9-.155a10.062,10.062,0,0,1,10.18,9.941h0a10.062,10.062,0,0,1-9.941,10.18l-6.9.1-28.069.388a10.061,10.061,0,0,0-9.941,10.18h0a10.061,10.061,0,0,0,10.18,9.941l28.069-.368,27.023-.354a10.061,10.061,0,0,1,10.18,9.941h0a10.062,10.062,0,0,1-9.941,10.18l-17.56.378a10.054,10.054,0,0,0-9.941,10.179h0a10.061,10.061,0,0,0,10.18,9.941l33.957-.551a103.424,103.424,0,0,0,166.519-61.492h19.38a10.187,10.187,0,0,0,10.34-9.877,10.5,10.5,0,0,0-10.34-10.245H1238.4c-5.542,0-10.484-4.342-10.51-9.877A10.654,10.654,0,0,1,1238.4,1314h8.586a9.862,9.862,0,0,0,9.967-9.877,10.178,10.178,0,0,0-9.967-10.245h-28.709c-5.542,0-10.484-4.342-10.51-9.877a10.654,10.654,0,0,1,10.51-10.245h44.359a9.863,9.863,0,0,0,9.967-9.877A10.178,10.178,0,0,0,1262.632,1253.635Z" transform="translate(-990.86 -1231.798)" fill="#e0e5e9"/>
    <path id="Path_16024" data-name="Path 16024" d="M2502.995,1403.751c0,.015,0,.029,0,.044s0,.029,0,.045Z" transform="translate(-2221.254 -1371.713)" fill="#e0e5e9"/>
    <path id="Path_16025" data-name="Path 16025" d="M2484.995,1835.751c0,.015,0,.029,0,.044s0,.03,0,.045Z" transform="translate(-2206.608 -1723.223)" fill="#e0e5e9"/>
    <path id="Path_16026" data-name="Path 16026" d="M2418.995,1619.751c0,.015,0,.029,0,.044s0,.03,0,.045Z" transform="translate(-2152.906 -1547.468)" fill="#e0e5e9"/>
  </g>
  <g id="Group_10818" data-name="Group 10818" transform="translate(0 7.304)">
    <g id="Group_10774" data-name="Group 10774" transform="translate(105.084 193.399)">
      <path id="Path_16027" data-name="Path 16027" d="M1558.033,2311.236h-13.415a1.118,1.118,0,0,1,0-2.236h13.415a1.118,1.118,0,0,1,0,2.236Z" transform="translate(-1543.5 -2309)"/>
    </g>
    <g id="Group_10775" data-name="Group 10775" transform="translate(125.206 193.399)">
      <path id="Path_16028" data-name="Path 16028" d="M1677.212,2311.236h-24.594a1.118,1.118,0,0,1,0-2.236h24.594a1.118,1.118,0,0,1,0,2.236Z" transform="translate(-1651.5 -2309)"/>
    </g>
    <g id="Group_10776" data-name="Group 10776" transform="translate(250.413 101.73)">
      <path id="Path_16029" data-name="Path 16029" d="M2333.561,1819.236h-8.944a1.118,1.118,0,0,1,0-2.236h8.944a1.118,1.118,0,1,1,0,2.236Z" transform="translate(-2323.5 -1817)"/>
    </g>
    <g id="Group_10777" data-name="Group 10777" transform="translate(266.064 101.73)">
      <path id="Path_16030" data-name="Path 16030" d="M2433.212,1819.236h-24.594a1.118,1.118,0,1,1,0-2.236h24.594a1.118,1.118,0,1,1,0,2.236Z" transform="translate(-2407.5 -1817)"/>
    </g>
    <g id="Group_10778" data-name="Group 10778" transform="translate(260.474 95.023)">
      <path id="Path_16031" data-name="Path 16031" d="M2396.5,1783.236h-17.887a1.118,1.118,0,1,1,0-2.236H2396.5a1.118,1.118,0,1,1,0,2.236Z" transform="translate(-2377.5 -1781)"/>
    </g>
    <g id="Group_10779" data-name="Group 10779" transform="translate(74.9 200.107)">
      <path id="Path_16032" data-name="Path 16032" d="M1437.4,2347.236h-54.778a1.118,1.118,0,0,1,0-2.236H1437.4a1.118,1.118,0,1,1,0,2.236Z" transform="translate(-1381.5 -2345)"/>
    </g>
    <g id="Group_10780" data-name="Group 10780" transform="translate(138.621 200.107)">
      <path id="Path_16033" data-name="Path 16033" d="M1729.09,2347.236h-4.472a1.118,1.118,0,0,1,0-2.236h4.472a1.118,1.118,0,0,1,0,2.236Z" transform="translate(-1723.5 -2345)"/>
    </g>
    <g id="Group_10789" data-name="Group 10789" transform="translate(110.674 1.169)">
      <g id="Group_10781" data-name="Group 10781" transform="translate(0 10.01)">
        <path id="Path_16034" data-name="Path 16034" d="M1577.972,1333.236h-3.354a1.118,1.118,0,1,1,0-2.236h3.354a1.118,1.118,0,1,1,0,2.236Z" transform="translate(-1573.5 -1331)"/>
      </g>
      <g id="Group_10782" data-name="Group 10782" transform="translate(16.769 10.01)">
        <path id="Path_16035" data-name="Path 16035" d="M1667.972,1333.236h-3.354a1.118,1.118,0,1,1,0-2.236h3.354a1.118,1.118,0,1,1,0,2.236Z" transform="translate(-1663.5 -1331)"/>
      </g>
      <g id="Group_10783" data-name="Group 10783" transform="translate(2.947 2.947)">
        <path id="Path_16036" data-name="Path 16036" d="M1592.806,1297.7a1.115,1.115,0,0,1-.79-.328l-2.371-2.371a1.118,1.118,0,0,1,1.581-1.581l2.371,2.371a1.118,1.118,0,0,1-.79,1.908Z" transform="translate(-1589.317 -1293.092)"/>
      </g>
      <g id="Group_10784" data-name="Group 10784" transform="translate(14.804 14.804)">
        <path id="Path_16037" data-name="Path 16037" d="M1656.445,1361.337a1.115,1.115,0,0,1-.791-.328l-2.371-2.371a1.118,1.118,0,0,1,1.581-1.581l2.371,2.371a1.118,1.118,0,0,1-.79,1.908Z" transform="translate(-1652.956 -1356.73)"/>
      </g>
      <g id="Group_10785" data-name="Group 10785" transform="translate(9.968)">
        <path id="Path_16038" data-name="Path 16038" d="M1628.118,1282.864a1.118,1.118,0,0,1-1.118-1.118v-3.354a1.118,1.118,0,1,1,2.236,0v3.354A1.118,1.118,0,0,1,1628.118,1282.864Z" transform="translate(-1627 -1277.274)"/>
      </g>
      <g id="Group_10786" data-name="Group 10786" transform="translate(9.968 16.769)">
        <path id="Path_16039" data-name="Path 16039" d="M1628.118,1372.864a1.118,1.118,0,0,1-1.118-1.118v-3.354a1.118,1.118,0,1,1,2.236,0v3.354A1.118,1.118,0,0,1,1628.118,1372.864Z" transform="translate(-1627 -1367.274)"/>
      </g>
      <g id="Group_10787" data-name="Group 10787" transform="translate(14.804 2.947)">
        <path id="Path_16040" data-name="Path 16040" d="M1654.074,1297.7a1.118,1.118,0,0,1-.791-1.908l2.371-2.371a1.118,1.118,0,0,1,1.581,1.581l-2.371,2.371A1.114,1.114,0,0,1,1654.074,1297.7Z" transform="translate(-1652.956 -1293.092)"/>
      </g>
      <g id="Group_10788" data-name="Group 10788" transform="translate(2.947 14.804)">
        <path id="Path_16041" data-name="Path 16041" d="M1590.435,1361.337a1.118,1.118,0,0,1-.79-1.908l2.371-2.371a1.118,1.118,0,1,1,1.581,1.581l-2.371,2.371A1.115,1.115,0,0,1,1590.435,1361.337Z" transform="translate(-1589.317 -1356.73)"/>
      </g>
    </g>
    <g id="Group_10798" data-name="Group 10798" transform="translate(247.059 112.96)">
      <g id="Group_10790" data-name="Group 10790" transform="translate(0 10.01)">
        <path id="Path_16042" data-name="Path 16042" d="M2309.972,1933.236h-3.354a1.118,1.118,0,1,1,0-2.236h3.354a1.118,1.118,0,1,1,0,2.236Z" transform="translate(-2305.5 -1931)"/>
      </g>
      <g id="Group_10791" data-name="Group 10791" transform="translate(16.769 10.01)">
        <path id="Path_16043" data-name="Path 16043" d="M2399.972,1933.236h-3.354a1.118,1.118,0,1,1,0-2.236h3.354a1.118,1.118,0,1,1,0,2.236Z" transform="translate(-2395.5 -1931)"/>
      </g>
      <g id="Group_10792" data-name="Group 10792" transform="translate(2.947 2.947)">
        <path id="Path_16044" data-name="Path 16044" d="M2324.806,1897.7a1.113,1.113,0,0,1-.79-.327l-2.372-2.372a1.118,1.118,0,0,1,1.581-1.581l2.371,2.372a1.118,1.118,0,0,1-.79,1.908Z" transform="translate(-2321.317 -1893.089)"/>
      </g>
      <g id="Group_10793" data-name="Group 10793" transform="translate(14.804 14.804)">
        <path id="Path_16045" data-name="Path 16045" d="M2388.445,1961.336a1.114,1.114,0,0,1-.791-.328l-2.371-2.372a1.118,1.118,0,0,1,1.581-1.581l2.371,2.372a1.118,1.118,0,0,1-.79,1.908Z" transform="translate(-2384.956 -1956.728)"/>
      </g>
      <g id="Group_10794" data-name="Group 10794" transform="translate(9.968)">
        <path id="Path_16046" data-name="Path 16046" d="M2360.118,1882.863a1.118,1.118,0,0,1-1.118-1.118v-3.354a1.118,1.118,0,0,1,2.236,0v3.354A1.117,1.117,0,0,1,2360.118,1882.863Z" transform="translate(-2359 -1877.274)"/>
      </g>
      <g id="Group_10795" data-name="Group 10795" transform="translate(9.968 16.769)">
        <path id="Path_16047" data-name="Path 16047" d="M2360.118,1972.863a1.118,1.118,0,0,1-1.118-1.118v-3.354a1.118,1.118,0,0,1,2.236,0v3.354A1.117,1.117,0,0,1,2360.118,1972.863Z" transform="translate(-2359 -1967.274)"/>
      </g>
      <g id="Group_10796" data-name="Group 10796" transform="translate(14.804 2.947)">
        <path id="Path_16048" data-name="Path 16048" d="M2386.074,1897.7a1.118,1.118,0,0,1-.79-1.908l2.371-2.372a1.118,1.118,0,0,1,1.581,1.581l-2.371,2.372A1.114,1.114,0,0,1,2386.074,1897.7Z" transform="translate(-2384.956 -1893.089)"/>
      </g>
      <g id="Group_10797" data-name="Group 10797" transform="translate(2.947 14.804)">
        <path id="Path_16049" data-name="Path 16049" d="M2322.435,1961.336a1.118,1.118,0,0,1-.791-1.908l2.372-2.372a1.118,1.118,0,0,1,1.581,1.581l-2.371,2.372A1.114,1.114,0,0,1,2322.435,1961.336Z" transform="translate(-2321.317 -1956.728)"/>
      </g>
    </g>
    <g id="Group_10799" data-name="Group 10799" transform="translate(46.658 35.711)">
      <path id="Path_16050" data-name="Path 16050" d="M1238.026,1478.833h0a1.119,1.119,0,0,1-.981-.582l-1.367-2.5a6.708,6.708,0,0,0-2.674-2.674l-2.5-1.368a1.118,1.118,0,0,1,0-1.962l2.5-1.368a6.705,6.705,0,0,0,2.674-2.674l1.367-2.5a1.163,1.163,0,0,1,1.962,0l1.368,2.47a6.291,6.291,0,0,0,2.674,2.644h0l2.5,1.4a1.142,1.142,0,0,1,.581,1,1.13,1.13,0,0,1-.581.989l-2.5,1.372a6.718,6.718,0,0,0-2.674,2.676l-1.368,2.5A1.119,1.119,0,0,1,1238.026,1478.833Zm-4.657-8.1.708.387a8.952,8.952,0,0,1,3.563,3.563l.386.708.387-.708a8.954,8.954,0,0,1,3.563-3.563l.708-.387-.708-.387a8.944,8.944,0,0,1-3.563-3.563l-.387-.707-.386.707a8.944,8.944,0,0,1-3.563,3.563Z" transform="translate(-1229.921 -1462.667)"/>
    </g>
    <g id="Group_10800" data-name="Group 10800" transform="translate(199.175 181.662)">
      <path id="Path_16051" data-name="Path 16051" d="M2056.6,2262.174h0a1.118,1.118,0,0,1-.981-.582l-1.367-2.5a6.727,6.727,0,0,0-2.675-2.675l-2.5-1.366a1.118,1.118,0,0,1,0-1.962l2.5-1.368a6.729,6.729,0,0,0,2.674-2.675l1.367-2.5a1.163,1.163,0,0,1,1.962,0l1.367,2.5a6.723,6.723,0,0,0,2.675,2.676l2.5,1.368a1.118,1.118,0,0,1,0,1.962l-2.5,1.367a6.723,6.723,0,0,0-2.674,2.674l-1.367,2.5A1.118,1.118,0,0,1,2056.6,2262.174Zm-4.657-8.105.707.386a8.956,8.956,0,0,1,3.563,3.564l.387.708.387-.708a8.949,8.949,0,0,1,3.563-3.563l.707-.387-.707-.387h0a8.947,8.947,0,0,1-3.563-3.563l-.387-.706-.387.706a8.949,8.949,0,0,1-3.562,3.563Z" transform="translate(-2048.499 -2246.007)"/>
    </g>
    <g id="Group_10805" data-name="Group 10805" transform="translate(41.363 129.729)">
      <g id="Group_10801" data-name="Group 10801" transform="translate(0 6.656)">
        <path id="Path_16052" data-name="Path 16052" d="M1204.854,2005.236h-2.236a1.118,1.118,0,1,1,0-2.236h2.236a1.118,1.118,0,1,1,0,2.236Z" transform="translate(-1201.5 -2003)"/>
      </g>
      <g id="Group_10802" data-name="Group 10802" transform="translate(11.179 6.656)">
        <path id="Path_16053" data-name="Path 16053" d="M1264.854,2005.236h-2.236a1.118,1.118,0,1,1,0-2.236h2.236a1.118,1.118,0,1,1,0,2.236Z" transform="translate(-1261.5 -2003)"/>
      </g>
      <g id="Group_10803" data-name="Group 10803" transform="translate(6.614)">
        <path id="Path_16054" data-name="Path 16054" d="M1238.118,1971.745a1.117,1.117,0,0,1-1.118-1.118v-2.236a1.118,1.118,0,0,1,2.236,0v2.236A1.117,1.117,0,0,1,1238.118,1971.745Z" transform="translate(-1237 -1967.274)"/>
      </g>
      <g id="Group_10804" data-name="Group 10804" transform="translate(6.614 11.179)">
        <path id="Path_16055" data-name="Path 16055" d="M1238.118,2031.746a1.118,1.118,0,0,1-1.118-1.118v-2.236a1.118,1.118,0,0,1,2.236,0v2.236A1.118,1.118,0,0,1,1238.118,2031.746Z" transform="translate(-1237 -2027.274)"/>
      </g>
    </g>
    <g id="Group_10810" data-name="Group 10810" transform="translate(240.352 31.353)">
      <g id="Group_10806" data-name="Group 10806" transform="translate(0 6.656)">
        <path id="Path_16056" data-name="Path 16056" d="M2272.854,1477.236h-2.236a1.118,1.118,0,0,1,0-2.236h2.236a1.118,1.118,0,0,1,0,2.236Z" transform="translate(-2269.5 -1475)"/>
      </g>
      <g id="Group_10807" data-name="Group 10807" transform="translate(11.179 6.656)">
        <path id="Path_16057" data-name="Path 16057" d="M2332.854,1477.236h-2.236a1.118,1.118,0,0,1,0-2.236h2.236a1.118,1.118,0,0,1,0,2.236Z" transform="translate(-2329.5 -1475)"/>
      </g>
      <g id="Group_10808" data-name="Group 10808" transform="translate(6.614)">
        <path id="Path_16058" data-name="Path 16058" d="M2306.118,1443.746a1.118,1.118,0,0,1-1.118-1.118v-2.236a1.118,1.118,0,1,1,2.236,0v2.236A1.118,1.118,0,0,1,2306.118,1443.746Z" transform="translate(-2305 -1439.274)"/>
      </g>
      <g id="Group_10809" data-name="Group 10809" transform="translate(6.614 11.179)">
        <path id="Path_16059" data-name="Path 16059" d="M2306.118,1503.746a1.118,1.118,0,0,1-1.118-1.118v-2.236a1.118,1.118,0,1,1,2.236,0v2.236A1.118,1.118,0,0,1,2306.118,1503.746Z" transform="translate(-2305 -1499.274)"/>
      </g>
    </g>
    <g id="Group_10811" data-name="Group 10811" transform="translate(0 81.608)">
      <path id="Path_16060" data-name="Path 16060" d="M991.8,1711.236H980.618a1.118,1.118,0,1,1,0-2.236H991.8a1.118,1.118,0,1,1,0,2.236Z" transform="translate(-979.5 -1709)"/>
    </g>
    <g id="Group_10812" data-name="Group 10812" transform="translate(14.533 89.433)">
      <path id="Path_16061" data-name="Path 16061" d="M1094.391,1753.236h-35.773a1.118,1.118,0,1,1,0-2.236h35.773a1.118,1.118,0,1,1,0,2.236Z" transform="translate(-1057.5 -1751)"/>
    </g>
    <g id="Group_10813" data-name="Group 10813" transform="translate(36.891 97.259)">
      <path id="Path_16062" data-name="Path 16062" d="M1187.561,1795.236h-8.943a1.118,1.118,0,0,1,0-2.236h8.943a1.118,1.118,0,0,1,0,2.236Z" transform="translate(-1177.5 -1793)"/>
    </g>
    <g id="Group_10814" data-name="Group 10814" transform="translate(7.825 97.259)">
      <path id="Path_16063" data-name="Path 16063" d="M1042.74,1795.236h-20.122a1.118,1.118,0,0,1,0-2.236h20.122a1.118,1.118,0,1,1,0,2.236Z" transform="translate(-1021.5 -1793)"/>
    </g>
    <g id="Group_10815" data-name="Group 10815" transform="translate(168.805 7.825)">
      <path id="Path_16064" data-name="Path 16064" d="M1944.749,1315.236h-58.131a1.118,1.118,0,1,1,0-2.236h58.131a1.118,1.118,0,1,1,0,2.236Z" transform="translate(-1885.5 -1313)"/>
    </g>
    <g id="Group_10816" data-name="Group 10816" transform="translate(179.984)">
      <path id="Path_16065" data-name="Path 16065" d="M1966.74,1273.236h-20.122a1.118,1.118,0,0,1,0-2.236h20.122a1.118,1.118,0,0,1,0,2.236Z" transform="translate(-1945.5 -1271)"/>
    </g>
    <g id="Group_10817" data-name="Group 10817" transform="translate(211.286)">
      <path id="Path_16066" data-name="Path 16066" d="M2121.325,1273.236h-6.707a1.118,1.118,0,0,1,0-2.236h6.707a1.118,1.118,0,0,1,0,2.236Z" transform="translate(-2113.5 -1271)"/>
    </g>
  </g>
  <g id="Group_10917" data-name="Group 10917" transform="translate(63.11 26.454)">
    <g id="Group_10831" data-name="Group 10831" transform="translate(23.491)">
      <g id="Group_10819" data-name="Group 10819" transform="translate(2.241 2.239)">
        <path id="Path_16067" data-name="Path 16067" d="M1591.758,1446.659a18.8,18.8,0,0,0-12.575-22.509,21.426,21.426,0,0,0-19.208-17.383,11.4,11.4,0,0,0-14.829-10.118,15.215,15.215,0,0,0-28.524-1.713,14.821,14.821,0,0,0-17.573,3.266,14.824,14.824,0,0,0-21.509,17.114,21.906,21.906,0,0,0-1.462,43.694,28.331,28.331,0,0,0,45.586,22.493,34.3,34.3,0,0,0,53.837-19.05q.22-.871.392-1.742A18.8,18.8,0,0,0,1591.758,1446.659Z" transform="translate(-1456.327 -1385.797)" fill="#afe04f"/>
      </g>
      <g id="Group_10820" data-name="Group 10820" transform="translate(2.24 13.777)">
        <path id="Path_16068" data-name="Path 16068" d="M1482.313,1510.436a21.906,21.906,0,0,1,1.462-43.694,14.8,14.8,0,0,1,11.106-18.687,14.813,14.813,0,0,0-17.341,18.687,21.906,21.906,0,0,0-1.462,43.694,28.333,28.333,0,0,0,31.481,28.179,28.275,28.275,0,0,1-25.246-28.179Z" transform="translate(-1456.327 -1447.721)" fill="#e2f9aa"/>
      </g>
      <g id="Group_10821" data-name="Group 10821" transform="translate(61.232 4.333)">
        <path id="Path_16069" data-name="Path 16069" d="M1778.4,1406.159a15.261,15.261,0,0,1,10.8-8.8,15.212,15.212,0,0,0-16.262,7.295c.822.065,1.191,1.077,2.017,1.285C1776.014,1406.2,1776.344,1407.668,1778.4,1406.159Z" transform="translate(-1772.942 -1397.036)" fill="#e2f9aa"/>
      </g>
      <g id="Group_10822" data-name="Group 10822" transform="translate(43.475 11.902)">
        <path id="Path_16070" data-name="Path 16070" d="M1681.479,1449.38c-.346-10.045,6.624-10.739,9.634-11.39a14.811,14.811,0,0,0-12.293,2.856c.272.053-1.423,9.5-1.151,9.573C1678.979,1450.749,1680.094,1451.112,1681.479,1449.38Z" transform="translate(-1677.64 -1437.658)" fill="#e2f9aa"/>
      </g>
      <g id="Group_10826" data-name="Group 10826" transform="translate(40.817 3.549)">
        <g id="Group_10823" data-name="Group 10823" transform="translate(33.257)">
          <path id="Path_16071" data-name="Path 16071" d="M1862.9,1405.713c-1.544-4.863-6.639-10.612-11.95-11.95-2.33-.587-6.892-1.248-9.092-.779.211.044,2.387,1.505,2.6,1.559,5.386,1.357,9.673,6.474,11.171,11.431C1858.228,1407.012,1861.054,1406.924,1862.9,1405.713Z" transform="translate(-1841.862 -1392.825)" fill="#97c427"/>
        </g>
        <g id="Group_10824" data-name="Group 10824" transform="translate(0 49.755)">
          <path id="Path_16072" data-name="Path 16072" d="M1681.818,1671.838c3.865-2.166,8.573-4.157,14.548-3.377-3.117-5.715-12.989-6.495-17.146-3.117-7.274-9.352-16.064-3.9-15.847-3.9,5.975,0,9.092,3.377,12.729,10.391A9.821,9.821,0,0,1,1681.818,1671.838Z" transform="translate(-1663.37 -1659.865)" fill="#97c427"/>
        </g>
        <g id="Group_10825" data-name="Group 10825" transform="translate(42.145 10.049)">
          <path id="Path_16073" data-name="Path 16073" d="M1929.624,1474.791a21.427,21.427,0,0,0-19.208-17.383,11.392,11.392,0,0,0-14.5-10.209,11.426,11.426,0,0,1,8.267,10.209,21.427,21.427,0,0,1,19.208,17.383,18.788,18.788,0,0,1-3.29,36.56q-.173.871-.391,1.742a34.3,34.3,0,0,1-30.141,25.77,34.294,34.294,0,0,0,36.375-25.77q.22-.871.391-1.742a18.788,18.788,0,0,0,3.291-36.56Z" transform="translate(-1889.567 -1446.757)" fill="#97c427"/>
        </g>
      </g>
      <g id="Group_10827" data-name="Group 10827">
        <path id="Path_16074" data-name="Path 16074" d="M1532.533,1480.834a36.7,36.7,0,0,1-8.989-1.121,36.32,36.32,0,0,1-11.657-5.234,30.569,30.569,0,0,1-47.77-23.3q-.789-.144-1.561-.338a24.142,24.142,0,0,1-17.512-29.309,24.256,24.256,0,0,1,20.01-18,17.062,17.062,0,0,1,21.11-18.746,16.677,16.677,0,0,1,2.671.924,17.072,17.072,0,0,1,15.563-3.83c.468.118.936.258,1.4.419a17.453,17.453,0,0,1,30.984,1.955,13.637,13.637,0,0,1,15.39,10.732c.659.108,1.312.243,1.952.4a23.758,23.758,0,0,1,17.195,17.286,20.929,20.929,0,0,1,9.008,6.681,2.236,2.236,0,1,1-3.525,2.751,16.493,16.493,0,0,0-8.073-5.6,2.237,2.237,0,0,1-1.524-1.717,19.19,19.19,0,0,0-17.207-15.571,2.236,2.236,0,0,1-2.035-2.076,9.168,9.168,0,0,0-11.924-8.137,2.237,2.237,0,0,1-2.814-1.485,12.979,12.979,0,0,0-24.334-1.466,2.235,2.235,0,0,1-3.044,1.109,12.583,12.583,0,0,0-14.93,2.773,2.236,2.236,0,0,1-2.744.438A12.588,12.588,0,0,0,1469.9,1404.9a2.236,2.236,0,0,1-2.074,2.867,19.747,19.747,0,0,0-18.446,14.854,19.669,19.669,0,0,0,14.268,23.88,19.943,19.943,0,0,0,2.869.5,2.237,2.237,0,0,1,2.013,2.228,26.1,26.1,0,0,0,41.99,20.715,2.235,2.235,0,0,1,2.7-.013,32.067,32.067,0,0,0,50.325-17.809q.205-.815.367-1.631a2.236,2.236,0,0,1,1.91-1.783c5.8-.741,15.482-5.066,15-16.579a2.236,2.236,0,0,1,4.467-.187c.509,12.218-8.1,19.178-17.33,20.951-.026.107-.053.214-.08.321a36.564,36.564,0,0,1-35.352,27.614Z" transform="translate(-1444.302 -1373.778)"/>
      </g>
      <g id="Group_10828" data-name="Group 10828" transform="translate(134.998 50.207)">
        <path id="Path_16075" data-name="Path 16075" d="M2171.322,1648.083a2.234,2.234,0,0,1-1.9-1.056l-.226-.363a2.236,2.236,0,1,1,3.8-2.36l.226.364a2.237,2.237,0,0,1-1.9,3.417Z" transform="translate(-2168.857 -1643.247)"/>
      </g>
      <g id="Group_10829" data-name="Group 10829" transform="translate(39.478 50.334)">
        <path id="Path_16076" data-name="Path 16076" d="M1691,1657.118a2.229,2.229,0,0,1-1.639-.715,11.477,11.477,0,0,0-14.781-1.775,2.236,2.236,0,0,1-3.156-.727,11.35,11.35,0,0,0-1.432-1.929,11.182,11.182,0,0,0-11-3.214,2.236,2.236,0,1,1-1.12-4.329,15.643,15.643,0,0,1,15.4,4.5q.393.424.757.882a15.922,15.922,0,0,1,18.612,3.549,2.236,2.236,0,0,1-1.638,3.757Z" transform="translate(-1656.188 -1643.927)"/>
      </g>
      <g id="Group_10830" data-name="Group 10830" transform="translate(40.469 11.69)">
        <path id="Path_16077" data-name="Path 16077" d="M1664.193,1451.731a2.238,2.238,0,0,1-2.154-1.638,14.6,14.6,0,0,1,2.526-12.78,2.236,2.236,0,0,1,3.422,2.879,10.073,10.073,0,0,0-1.639,8.7,2.237,2.237,0,0,1-2.156,2.834Z" transform="translate(-1661.505 -1436.522)"/>
      </g>
    </g>
    <g id="Group_10862" data-name="Group 10862" transform="translate(0 2.41)">
      <g id="Group_10832" data-name="Group 10832" transform="translate(19.443 60.226)">
        <path id="Path_16078" data-name="Path 16078" d="M1435.554,1710.341a39.094,39.094,0,0,1,10.465,5.567s-8.532,8.2-14.537,6.11a17.891,17.891,0,0,1-8.908-7.082S1429.742,1708.314,1435.554,1710.341Z" transform="translate(-1422.574 -1709.955)" fill="#ffb640"/>
      </g>
      <g id="Group_10833" data-name="Group 10833" transform="translate(11.829 45.245)">
        <path id="Path_16079" data-name="Path 16079" d="M1394.819,1629.833c6.317,1.787,11.251,6.833,11.251,6.833s-6.151,7.462-14.618,5.066c-6.119-1.732-9.743-7.227-9.743-7.227S1388.9,1628.157,1394.819,1629.833Z" transform="translate(-1381.708 -1629.551)" fill="#ffb640"/>
      </g>
      <g id="Group_10834" data-name="Group 10834" transform="translate(7.299 29.174)">
        <path id="Path_16080" data-name="Path 16080" d="M1369.117,1543.82c6.2,2.161,10.423,8.639,10.423,8.639s-8.49,5.131-14.495,3.038-7.65-9.216-7.65-9.216S1363.306,1541.793,1369.117,1543.82Z" transform="translate(-1357.396 -1543.294)" fill="#ffb640"/>
      </g>
      <g id="Group_10835" data-name="Group 10835" transform="translate(45.177 46.107)">
        <path id="Path_16081" data-name="Path 16081" d="M1562.838,1641.484a39.1,39.1,0,0,0-2.147,11.658s11.73-1.581,13.824-7.586a17.89,17.89,0,0,0-.008-11.38S1564.864,1635.673,1562.838,1641.484Z" transform="translate(-1560.691 -1634.176)" fill="#ffb640"/>
      </g>
      <g id="Group_10836" data-name="Group 10836" transform="translate(38.369 30.812)">
        <path id="Path_16082" data-name="Path 16082" d="M1525.945,1559.449c-2.527,6.059-1.644,13.06-1.644,13.06s9.669-.177,13.057-8.3c2.449-5.869.4-12.125.4-12.125S1528.315,1553.77,1525.945,1559.449Z" transform="translate(-1524.152 -1552.086)" fill="#ffb640"/>
      </g>
      <g id="Group_10837" data-name="Group 10837" transform="translate(31.174 15.75)">
        <path id="Path_16083" data-name="Path 16083" d="M1486.425,1478.9c-2.161,6.2.286,13.535.286,13.535s9.3-3.458,11.391-9.463-2.461-11.721-2.461-11.721S1488.451,1473.084,1486.425,1478.9Z" transform="translate(-1485.533 -1471.246)" fill="#ffb640"/>
      </g>
      <g id="Group_10838" data-name="Group 10838" transform="translate(14.991 6.193)">
        <path id="Path_16084" data-name="Path 16084" d="M1411.495,1431.451c2.254,4.666.259,9.4-.681,11.182a1.165,1.165,0,0,1-1.269.6c-1.994-.412-7-1.872-9.186-6.4-2.766-5.727-1.283-16.875-1.283-16.875S1408.818,1425.909,1411.495,1431.451Z" transform="translate(-1398.679 -1419.954)" fill="#ffb640"/>
      </g>
      <g id="Group_10846" data-name="Group 10846" transform="translate(12.15 6.193)">
        <g id="Group_10839" data-name="Group 10839" transform="translate(13.172 54.042)">
          <path id="Path_16085" data-name="Path 16085" d="M1454.127,1710.162a6.717,6.717,0,0,1,.866.222,39.1,39.1,0,0,1,10.465,5.567s-5.509,5.293-10.789,6.288c5.953,1.357,13.906-6.288,13.906-6.288a39.1,39.1,0,0,0-10.465-5.567A7.837,7.837,0,0,0,1454.127,1710.162Z" transform="translate(-1454.127 -1710.008)" fill="#ef9b20"/>
        </g>
        <g id="Group_10840" data-name="Group 10840" transform="translate(5.92 39.059)">
          <path id="Path_16086" data-name="Path 16086" d="M1427.089,1636.7s-3.876,4.678-9.7,5.425c7.523.981,12.819-5.425,12.819-5.425s-4.934-5.046-11.251-6.833a8.529,8.529,0,0,0-3.753-.127c.212.04.426.067.635.127C1422.155,1631.652,1427.089,1636.7,1427.089,1636.7Z" transform="translate(-1415.203 -1629.59)" fill="#ef9b20"/>
        </g>
        <g id="Group_10841" data-name="Group 10841" transform="translate(0 22.988)">
          <path id="Path_16087" data-name="Path 16087" d="M1395.527,1552.49a28.01,28.01,0,0,1-9.6,3.432c5.772.752,12.719-3.432,12.719-3.432s-4.224-6.478-10.423-8.639a10.088,10.088,0,0,0-4.792-.4,9.27,9.27,0,0,1,1.675.4C1391.3,1546.012,1395.527,1552.49,1395.527,1552.49Z" transform="translate(-1383.429 -1543.333)" fill="#ef9b20"/>
        </g>
        <g id="Group_10842" data-name="Group 10842" transform="translate(30.949 39.913)">
          <path id="Path_16088" data-name="Path 16088" d="M1563.352,1634.175a24.061,24.061,0,0,0-2.889.7,17.974,17.974,0,0,1-.22,10.68c-1.394,4-7.058,6.034-10.69,6.949-.017.406-.017.637-.017.637s11.73-1.581,13.824-7.586A17.89,17.89,0,0,0,1563.352,1634.175Z" transform="translate(-1549.536 -1634.175)" fill="#ef9b20"/>
        </g>
        <g id="Group_10843" data-name="Group 10843" transform="translate(24.246 24.619)">
          <path id="Path_16089" data-name="Path 16089" d="M1523.545,1564.21c-2.157,5.17-6.852,7.115-9.984,7.851.025.28.045.448.045.448s9.669-.177,13.057-8.3c2.448-5.87.4-12.125.4-12.125a24.869,24.869,0,0,0-2.907.768A19.014,19.014,0,0,1,1523.545,1564.21Z" transform="translate(-1513.561 -1552.085)" fill="#ef9b20"/>
        </g>
        <g id="Group_10844" data-name="Group 10844" transform="translate(17.77 9.557)">
          <path id="Path_16090" data-name="Path 16090" d="M1487.429,1482.967c-1.354,3.883-5.711,6.693-8.628,8.2.2.8.353,1.263.353,1.263s9.3-3.458,11.392-9.463-2.461-11.721-2.461-11.721a16,16,0,0,0-2.474.933C1486.785,1474.035,1489.016,1478.415,1487.429,1482.967Z" transform="translate(-1478.801 -1471.246)" fill="#ef9b20"/>
        </g>
        <g id="Group_10845" data-name="Group 10845" transform="translate(2.001)">
          <path id="Path_16091" data-name="Path 16091" d="M1403.666,1431.451c2.254,4.666.26,9.4-.681,11.182-.016.031-.042.052-.061.081a16.915,16.915,0,0,0,1.909.518,1.166,1.166,0,0,0,1.269-.6,15.782,15.782,0,0,0,1.2-3.019c.087-.51.2-1.019.342-1.524a10.949,10.949,0,0,0-.861-6.639c-2.676-5.542-12.419-11.5-12.419-11.5s-.1.752-.2,1.96C1397.261,1424.121,1401.936,1427.868,1403.666,1431.451Z" transform="translate(-1394.166 -1419.954)" fill="#ef9b20"/>
        </g>
      </g>
      <g id="Group_10847" data-name="Group 10847" transform="translate(17.207 58.057)">
        <path id="Path_16092" data-name="Path 16092" d="M1423.831,1715.125a8.61,8.61,0,0,1-2.85-.465,20.125,20.125,0,0,1-10.1-8.069,2.2,2.2,0,0,1,.416-2.739c.333-.308,8.234-7.457,15.233-5.035h0a40.721,40.721,0,0,1,11.124,5.9,2.211,2.211,0,0,1,.155,3.337C1436.957,1708.871,1430.235,1715.125,1423.831,1715.125Zm-7.954-9.305a15.638,15.638,0,0,0,6.577,4.6c2.9,1.009,7.3-1.673,10.126-3.839a39.17,39.17,0,0,0-7.527-3.665h0C1422.146,1701.984,1418.251,1704.082,1415.878,1705.82Z" transform="translate(-1410.574 -1698.317)"/>
      </g>
      <g id="Group_10848" data-name="Group 10848" transform="translate(12.77 62.027)">
        <ellipse id="Ellipse_613" data-name="Ellipse 613" cx="1.868" cy="1.868" rx="1.868" ry="1.868"/>
      </g>
      <g id="Group_10849" data-name="Group 10849" transform="translate(9.593 43.084)">
        <path id="Path_16093" data-name="Path 16093" d="M1385.095,1635.012a14.692,14.692,0,0,1-4.017-.567c-6.841-1.936-10.835-7.9-11-8.148a2.176,2.176,0,0,1,.387-2.862c.331-.293,8.181-7.151,15.2-5.1h0c6.81,1.863,12.021,7.153,12.24,7.376a2.207,2.207,0,0,1,.127,2.963C1397.782,1628.972,1392.684,1635.012,1385.095,1635.012Zm-9.981-9.573a16.115,16.115,0,0,0,7.182,4.7c4.765,1.349,8.691-1.1,10.746-2.834a25.156,25.156,0,0,0-8.6-4.763h0C1381.452,1621.7,1377.542,1623.753,1375.113,1625.439Z" transform="translate(-1369.707 -1617.952)"/>
      </g>
      <g id="Group_10850" data-name="Group 10850" transform="translate(5.086 47.308)">
        <path id="Path_16094" data-name="Path 16094" d="M1347.9,1640.693a1.868,1.868,0,1,1-2.306,1.289A1.868,1.868,0,0,1,1347.9,1640.693Z" transform="translate(-1345.519 -1640.622)"/>
      </g>
      <g id="Group_10851" data-name="Group 10851" transform="translate(5.063 26.938)">
        <path id="Path_16095" data-name="Path 16095" d="M1358.458,1548.462a11.86,11.86,0,0,1-3.915-.617c-7.088-2.472-9.013-10.484-9.092-10.824a2.236,2.236,0,0,1,.827-2.284c.28-.214,6.942-5.185,13.81-2.792h0c6.84,2.385,11.37,9.239,11.56,9.53a2.236,2.236,0,0,1-.716,3.134C1370.617,1544.8,1364.472,1548.462,1358.458,1548.462Zm-8.155-10.984c.755,1.873,2.462,5.011,5.713,6.144,3.1,1.081,7.483-.355,10.36-1.674a19.491,19.491,0,0,0-7.761-5.78h0C1355.476,1535.072,1352.106,1536.484,1350.3,1537.477Z" transform="translate(-1345.394 -1531.295)"/>
      </g>
      <g id="Group_10852" data-name="Group 10852" transform="translate(0 28.355)">
        <ellipse id="Ellipse_614" data-name="Ellipse 614" cx="1.868" cy="1.868" rx="1.868" ry="1.868" transform="translate(0 1.625) rotate(-25.777)"/>
      </g>
      <g id="Group_10853" data-name="Group 10853" transform="translate(42.941 43.871)">
        <path id="Path_16096" data-name="Path 16096" d="M1550.927,1645.615a2.236,2.236,0,0,1-2.236-2.23,41.174,41.174,0,0,1,2.271-12.4c2.44-7,12.99-8.712,13.438-8.782a2.241,2.241,0,0,1,2.425,1.4,20.125,20.125,0,0,1,.037,12.931c-2.475,7.1-14.3,8.885-15.637,9.065A2.152,2.152,0,0,1,1550.927,1645.615Zm12.211-18.559c-2.834.778-6.938,2.491-7.953,5.4h0a38.086,38.086,0,0,0-1.829,8.159c3.452-.863,8.274-2.663,9.283-5.56A15.622,15.622,0,0,0,1563.138,1627.056Z" transform="translate(-1548.691 -1622.178)"/>
      </g>
      <g id="Group_10854" data-name="Group 10854" transform="translate(58.326 38.901)">
        <ellipse id="Ellipse_615" data-name="Ellipse 615" cx="1.868" cy="1.868" rx="1.868" ry="1.868" transform="translate(0 2.352) rotate(-39.02)"/>
      </g>
      <g id="Group_10855" data-name="Group 10855" transform="translate(36.132 28.559)">
        <path id="Path_16097" data-name="Path 16097" d="M1514.53,1564.775a2.18,2.18,0,0,1-2.218-1.891c-.039-.31-.927-7.635,1.8-14.168h0c2.807-6.728,13.047-8.61,13.482-8.687a2.236,2.236,0,0,1,2.517,1.513c.094.288,2.279,7.061-.458,13.621-3.905,9.361-14.625,9.612-15.079,9.612Zm3.708-14.3a25.148,25.148,0,0,0-1.614,9.694c2.636-.528,6.993-2.083,8.9-6.654a16.012,16.012,0,0,0,.789-8.551c-2.83.852-6.876,2.637-8.075,5.512Z" transform="translate(-1512.144 -1539.993)"/>
      </g>
      <g id="Group_10856" data-name="Group 10856" transform="translate(51.765 23.921)">
        <ellipse id="Ellipse_616" data-name="Ellipse 616" cx="1.868" cy="1.868" rx="1.868" ry="1.868" transform="matrix(0.925, -0.38, 0.38, 0.925, 0, 1.421)"/>
      </g>
      <g id="Group_10857" data-name="Group 10857" transform="translate(28.939 13.514)">
        <path id="Path_16098" data-name="Path 16098" d="M1476.952,1484.9a2.235,2.235,0,0,1-2.121-1.528c-.11-.329-2.661-8.138-.276-14.979,2.394-6.865,10.432-8.992,10.773-9.079a2.235,2.235,0,0,1,2.3.772c.218.273,5.3,6.763,2.824,13.851-2.413,6.918-12.3,10.667-12.723,10.823A2.232,2.232,0,0,1,1476.952,1484.9Zm8.015-20.732c-1.9.79-5.089,2.543-6.189,5.7h0a19.4,19.4,0,0,0-.305,9.67c2.825-1.438,6.684-3.986,7.759-7.071C1487.362,1469.229,1485.963,1465.931,1484.967,1464.171Z" transform="translate(-1473.541 -1459.247)"/>
      </g>
      <g id="Group_10858" data-name="Group 10858" transform="translate(41.373 9.303)">
        <path id="Path_16099" data-name="Path 16099" d="M1540.38,1437.9a1.868,1.868,0,1,0,2.379-1.149A1.868,1.868,0,0,0,1540.38,1437.9Z" transform="translate(-1540.275 -1436.644)"/>
      </g>
      <g id="Group_10859" data-name="Group 10859" transform="translate(12.757 3.958)">
        <path id="Path_16100" data-name="Path 16100" d="M1400.019,1435.728a3.371,3.371,0,0,1-.681-.07c-2.36-.488-8.133-2.207-10.747-7.62-3.022-6.258-1.55-17.66-1.486-18.142a2.236,2.236,0,0,1,3.382-1.613c.421.257,10.338,6.368,13.266,12.433,2.691,5.572.4,11.084-.716,13.2A3.422,3.422,0,0,1,1400.019,1435.728Zm-8.792-21.559c-.182,3.782-.049,8.943,1.39,11.924,1.515,3.137,4.849,4.466,6.824,4.995.82-1.829,1.847-5.2.286-8.428h0C1398.33,1419.768,1394.33,1416.418,1391.227,1414.169Z" transform="translate(-1386.69 -1407.955)"/>
      </g>
      <g id="Group_10860" data-name="Group 10860" transform="translate(11.05)">
        <path id="Path_16101" data-name="Path 16101" d="M1381.075,1387.77a1.868,1.868,0,1,1-2.494-.87A1.868,1.868,0,0,1,1381.075,1387.77Z" transform="translate(-1377.525 -1386.714)"/>
      </g>
      <g id="Group_10861" data-name="Group 10861" transform="translate(24.587 29.188)">
        <path id="Path_16102" data-name="Path 16102" d="M1478.632,1602.115a2.235,2.235,0,0,1-2.014-1.264l-26.21-54.273a2.236,2.236,0,1,1,4.026-1.944l26.21,54.273a2.237,2.237,0,0,1-2.012,3.209Z" transform="translate(-1450.185 -1543.368)"/>
      </g>
    </g>
    <g id="Group_10877" data-name="Group 10877" transform="translate(79.923 22.518)">
      <g id="Group_10863" data-name="Group 10863" transform="translate(2.181 2.239)">
        <path id="Path_16103" data-name="Path 16103" d="M1780.105,1521.012c8.9-9.915,23.589-19.045,45.281-11.681,0,0,14.978,32.679-24.532,54.785a63.162,63.162,0,0,1-8.094,3.777l-33.872,13.079,8.575-35.526A56.2,56.2,0,0,1,1780.105,1521.012Z" transform="translate(-1758.888 -1506.654)" fill="#fc8888"/>
      </g>
      <g id="Group_10866" data-name="Group 10866" transform="translate(2.184 2.219)">
        <g id="Group_10864" data-name="Group 10864">
          <path id="Path_16104" data-name="Path 16104" d="M1786.4,1519.476c5.806-6.464,16.149-11.145,27.208-12.589-16.242-1.988-26.1,4.949-33.54,13.238-6.217,6.922-10.676,16.285-12.859,25.329L1758.9,1579.1l6.365-2.728,6.754-30.914C1774.2,1536.41,1780.188,1526.4,1786.4,1519.476Z" transform="translate(-1758.901 -1506.544)" fill="#ffdcdc"/>
        </g>
        <g id="Group_10865" data-name="Group 10865" transform="translate(1.091 0.024)">
          <path id="Path_16105" data-name="Path 16105" d="M1831.254,1509.344a44.328,44.328,0,0,0-20.15-2.353,50.494,50.494,0,0,1,10.106,2.353s14.978,32.679-24.532,54.785a63.148,63.148,0,0,1-8.094,3.777l-22.794,8.8-1.033,4.277,33.872-13.079a63.161,63.161,0,0,0,8.094-3.777C1846.232,1542.023,1831.254,1509.344,1831.254,1509.344Z" transform="translate(-1764.756 -1506.671)" fill="#fc7777"/>
        </g>
      </g>
      <g id="Group_10867" data-name="Group 10867">
        <path id="Path_16106" data-name="Path 16106" d="M1749.417,1573.428a2.236,2.236,0,0,1-2.177-2.745l8.131-34.778a2.236,2.236,0,1,1,4.354,1.017l-7.168,30.66,29.926-11.556a61.162,61.162,0,0,0,7.808-3.642c34.092-19.075,25.964-45.78,23.949-51.032-16.359-5.23-30.465-1.407-41.943,11.373a52.4,52.4,0,0,0-9.568,15.454,2.236,2.236,0,0,1-4.146-1.675,56.859,56.859,0,0,1,10.387-16.768c8.943-9.959,24.47-20.176,47.663-12.3a2.239,2.239,0,0,1,1.314,1.186c.158.345,15.365,34.819-25.473,57.668a65.5,65.5,0,0,1-8.38,3.911l-33.871,13.08A2.223,2.223,0,0,1,1749.417,1573.428Z" transform="translate(-1747.181 -1494.635)"/>
      </g>
      <g id="Group_10868" data-name="Group 10868" transform="translate(9.63 34.858)">
        <path id="Path_16107" data-name="Path 16107" d="M1801.118,1686.46a2.3,2.3,0,0,1-.568-.072,2.24,2.24,0,0,1-1.667-2.04,2.2,2.2,0,0,1,.083-.935,2.239,2.239,0,0,1,4.4.344,2.194,2.194,0,0,1-.089,1.056A2.248,2.248,0,0,1,1801.118,1686.46Z" transform="translate(-1798.866 -1681.724)"/>
      </g>
      <g id="Group_10869" data-name="Group 10869" transform="translate(31.768 6.353)">
        <path id="Path_16108" data-name="Path 16108" d="M1949.637,1565.2c-3.374,0-13.286-.874-22.652-10.241-11.358-11.357-9.166-23.877-9.067-24.4a2.236,2.236,0,0,1,4.4.816c-.082.46-1.784,10.81,7.832,20.426,9.8,9.8,20.147,8.918,20.247,8.908a2.236,2.236,0,0,1,.432,4.451C1950.739,1565.166,1950.323,1565.2,1949.637,1565.2Z" transform="translate(-1917.685 -1528.733)"/>
      </g>
      <g id="Group_10870" data-name="Group 10870" transform="translate(35.788 34.627)">
        <path id="Path_16109" data-name="Path 16109" d="M1946.857,1680.53s-13.594-1.1-4.409,7.348,7.715-4.041,7.715-4.041Z" transform="translate(-1939.262 -1680.483)" fill="#f24646"/>
      </g>
      <g id="Group_10871" data-name="Group 10871" transform="translate(33.552 32.377)">
        <path id="Path_16110" data-name="Path 16110" d="M1937.822,1683.222c-2.824,0-5.607-2.561-6.654-3.524-1.248-1.148-5.046-4.642-3.575-8,1.568-3.586,7.805-3.368,9.679-3.217a2.236,2.236,0,0,1,1.4.648l3.306,3.306a2.236,2.236,0,0,1,.64,1.319c.2,1.672.572,7.261-2.854,9.011A4.214,4.214,0,0,1,1937.822,1683.222Zm-6.04-9.744a8.9,8.9,0,0,0,2.414,2.93c2.219,2.042,3.267,2.306,3.542,2.339a7.91,7.91,0,0,0,.5-3.733l-2.121-2.12A10.881,10.881,0,0,0,1931.782,1673.478Z" transform="translate(-1927.26 -1668.408)"/>
      </g>
      <g id="Group_10872" data-name="Group 10872" transform="translate(5.509 8.784)">
        <path id="Path_16111" data-name="Path 16111" d="M1802.5,1542.32s-15.3-3.028-24.485,5.259a3.876,3.876,0,0,0-.635,4.983c1.24,1.883,4,4.271,8.588,7.761C1786.828,1560.187,1795.493,1545.71,1802.5,1542.32Z" transform="translate(-1776.749 -1541.78)" fill="#f24646"/>
      </g>
      <g id="Group_10874" data-name="Group 10874" transform="translate(6.778 10.084)">
        <g id="Group_10873" data-name="Group 10873">
          <path id="Path_16112" data-name="Path 16112" d="M1787.278,1557.462c-.967-1.468.26-2.135,1.565-3.313,4.277-3.86,9.982-5.08,14.612-5.336-4.854-.259-13.041.213-18.719,5.336a3.6,3.6,0,0,0-.591,4.634c1.153,1.751,3.716,3.972,7.986,7.218a8.579,8.579,0,0,0,1.614-1.939A37.041,37.041,0,0,1,1787.278,1557.462Z" transform="translate(-1783.56 -1548.758)" fill="#fc8888"/>
        </g>
      </g>
      <g id="Group_10875" data-name="Group 10875" transform="translate(3.279 6.538)">
        <path id="Path_16113" data-name="Path 16113" d="M1776.228,1552.748a2.236,2.236,0,0,1-1.353-.456c-5.228-3.973-7.78-6.3-9.1-8.311a6.133,6.133,0,0,1,1.005-7.873c9.9-8.935,25.746-5.925,26.417-5.792a2.236,2.236,0,0,1,.54,4.206c-4.465,2.16-10.148,9.976-13.2,14.175-2.365,3.254-2.791,3.84-3.958,4.023A2.192,2.192,0,0,1,1776.228,1552.748Zm9.969-18.534c-4.879,0-11.655.91-16.424,5.214a1.631,1.631,0,0,0-.266,2.093c1.038,1.577,3.656,3.787,6.4,5.926.32-.433.673-.918,1.008-1.38a88.164,88.164,0,0,1,9.8-11.85C1786.546,1534.215,1786.373,1534.214,1786.2,1534.214Z" transform="translate(-1764.78 -1529.723)"/>
      </g>
      <g id="Group_10876" data-name="Group 10876" transform="translate(41.079 9.224)">
        <ellipse id="Ellipse_617" data-name="Ellipse 617" cx="3.377" cy="3.377" rx="3.377" ry="3.377" transform="translate(2.233 2.233)" fill="#fff"/>
        <path id="Path_16114" data-name="Path 16114" d="M1973.269,1555.365a5.61,5.61,0,1,1,3.969-1.641A5.594,5.594,0,0,1,1973.269,1555.365Zm0-6.751a1.141,1.141,0,1,0,.807.333A1.138,1.138,0,0,0,1973.269,1548.614Z" transform="translate(-1967.659 -1544.144)"/>
      </g>
    </g>
    <g id="Group_10888" data-name="Group 10888" transform="translate(8.82 70.055)">
      <g id="Group_10878" data-name="Group 10878" transform="translate(2.236 2.236)">
        <rect id="Rectangle_3330" data-name="Rectangle 3330" width="152.754" height="70.142" fill="#ce9c76"/>
      </g>
      <g id="Group_10879" data-name="Group 10879" transform="translate(1.889 2.236)">
        <rect id="Rectangle_3331" data-name="Rectangle 3331" width="6.408" height="70.142" fill="#edccb7"/>
      </g>
      <g id="Group_10880" data-name="Group 10880" transform="translate(144.251 2.236)">
        <rect id="Rectangle_3332" data-name="Rectangle 3332" width="10.565" height="70.142" fill="#af7e5d"/>
      </g>
      <g id="Group_10881" data-name="Group 10881">
        <path id="Path_16115" data-name="Path 16115" d="M1520.549,1824.385H1367.8a2.236,2.236,0,0,1-2.236-2.236V1784.3a2.236,2.236,0,1,1,4.472,0v35.614h148.282v-65.67H1370.032v24a2.236,2.236,0,1,1-4.472,0v-26.238a2.236,2.236,0,0,1,2.236-2.236h152.753a2.236,2.236,0,0,1,2.236,2.236v70.142A2.236,2.236,0,0,1,1520.549,1824.385Z" transform="translate(-1365.56 -1749.771)"/>
      </g>
      <g id="Group_10882" data-name="Group 10882" transform="translate(122.587 21.469)">
        <path id="Path_16116" data-name="Path 16116" d="M2055.92,1869.472h-30.184a2.236,2.236,0,0,1,0-4.472h30.184a2.236,2.236,0,0,1,0,4.472Z" transform="translate(-2023.5 -1865)"/>
      </g>
      <g id="Group_10883" data-name="Group 10883" transform="translate(102.464 21.469)">
        <path id="Path_16117" data-name="Path 16117" d="M1930.033,1869.472h-12.3a2.236,2.236,0,0,1,0-4.472h12.3a2.236,2.236,0,0,1,0,4.472Z" transform="translate(-1915.5 -1865)"/>
      </g>
      <g id="Group_10884" data-name="Group 10884" transform="translate(1.852 21.469)">
        <path id="Path_16118" data-name="Path 16118" d="M1469.4,1869.472h-91.669a2.236,2.236,0,0,1,0-4.472H1469.4a2.236,2.236,0,0,1,0,4.472Z" transform="translate(-1375.5 -1865)"/>
      </g>
      <g id="Group_10885" data-name="Group 10885" transform="translate(81.224 46.063)">
        <path id="Path_16119" data-name="Path 16119" d="M1875.282,2001.472h-71.547a2.236,2.236,0,1,1,0-4.472h71.547a2.236,2.236,0,1,1,0,4.472Z" transform="translate(-1801.5 -1997)"/>
      </g>
      <g id="Group_10886" data-name="Group 10886" transform="translate(75.343 46.277)">
        <path id="Path_16120" data-name="Path 16120" d="M1772.175,2002.577a2.236,2.236,0,0,1-1.588-3.811,2.326,2.326,0,0,1,3.164,0,2.229,2.229,0,0,1-1.576,3.811Z" transform="translate(-1769.939 -1998.145)"/>
      </g>
      <g id="Group_10887" data-name="Group 10887" transform="translate(1.852 46.063)">
        <path id="Path_16121" data-name="Path 16121" d="M1444.811,2001.472h-67.075a2.236,2.236,0,0,1,0-4.472h67.075a2.236,2.236,0,1,1,0,4.472Z" transform="translate(-1375.5 -1997)"/>
      </g>
    </g>
    <g id="Group_10889" data-name="Group 10889" transform="translate(8.436 147.42)">
      <path id="Path_16122" data-name="Path 16122" d="M1373.561,2169.471h-7.825a2.236,2.236,0,1,1,0-4.471h7.825a2.236,2.236,0,1,1,0,4.471Z" transform="translate(-1363.5 -2165)"/>
    </g>
    <g id="Group_10890" data-name="Group 10890" transform="translate(21.807 147.501)">
      <path id="Path_16123" data-name="Path 16123" d="M1437.5,2169.88a2.217,2.217,0,0,1-1.577-.659,2.214,2.214,0,0,1,0-3.153,2.3,2.3,0,0,1,3.164,0,2.236,2.236,0,0,1-1.587,3.812Z" transform="translate(-1435.26 -2165.439)"/>
    </g>
    <g id="Group_10891" data-name="Group 10891" transform="translate(27.441 147.42)">
      <path id="Path_16124" data-name="Path 16124" d="M1589.588,2169.471H1467.736a2.236,2.236,0,1,1,0-4.471h121.852a2.236,2.236,0,1,1,0,4.471Z" transform="translate(-1465.5 -2165)"/>
    </g>
    <g id="Group_10892" data-name="Group 10892" transform="translate(156.001 147.42)">
      <path id="Path_16125" data-name="Path 16125" d="M2163.325,2169.471h-5.589a2.236,2.236,0,1,1,0-4.471h5.589a2.236,2.236,0,1,1,0,4.471Z" transform="translate(-2155.5 -2165)"/>
    </g>
    <g id="Group_10904" data-name="Group 10904" transform="translate(27.362 88.24)">
      <g id="Group_10893" data-name="Group 10893" transform="translate(3.602 2.236)">
        <ellipse id="Ellipse_618" data-name="Ellipse 618" cx="16.636" cy="22.547" rx="16.636" ry="22.547" fill="#ffce99"/>
      </g>
      <g id="Group_10896" data-name="Group 10896" transform="translate(2.563 2.236)">
        <g id="Group_10894" data-name="Group 10894">
          <path id="Path_16126" data-name="Path 16126" d="M1484.031,1881.921c0-11.254,6.084-20.581,14.038-22.271a12.472,12.472,0,0,0-2.6-.275c-9.188,0-16.636,10.094-16.636,22.547s7.448,22.547,16.636,22.547a12.455,12.455,0,0,0,2.6-.275C1490.115,1902.5,1484.031,1893.175,1484.031,1881.921Z" transform="translate(-1478.835 -1859.374)" fill="#ffecdc"/>
        </g>
        <g id="Group_10895" data-name="Group 10895" transform="translate(14.038)">
          <path id="Path_16127" data-name="Path 16127" d="M1556.777,1859.374a12.475,12.475,0,0,0-2.6.275c7.954,1.691,14.038,11.017,14.038,22.271s-6.084,20.581-14.038,22.271a12.458,12.458,0,0,0,2.6.275c9.188,0,16.636-10.095,16.636-22.547S1565.965,1859.374,1556.777,1859.374Z" transform="translate(-1554.179 -1859.374)" fill="#efb57b"/>
        </g>
      </g>
      <g id="Group_10897" data-name="Group 10897" transform="translate(1.366)">
        <path id="Path_16128" data-name="Path 16128" d="M1491.283,1896.939c-10.406,0-18.872-11.117-18.872-24.782s8.466-24.783,18.872-24.783,18.872,11.118,18.872,24.783S1501.689,1896.939,1491.283,1896.939Zm0-45.093c-7.941,0-14.4,9.111-14.4,20.311s6.459,20.31,14.4,20.31,14.4-9.111,14.4-20.31S1499.224,1851.846,1491.283,1851.846Z" transform="translate(-1472.411 -1847.374)"/>
      </g>
      <g id="Group_10898" data-name="Group 10898" transform="translate(21.202 7.038)">
        <path id="Path_16129" data-name="Path 16129" d="M1588.392,1900.705a2.236,2.236,0,0,1-2.138-1.584,19.567,19.567,0,0,0-6.5-9.955,2.236,2.236,0,0,1,2.7-3.567,24.047,24.047,0,0,1,8.074,12.217,2.238,2.238,0,0,1-2.139,2.89Z" transform="translate(-1578.872 -1885.146)"/>
      </g>
      <g id="Group_10899" data-name="Group 10899" transform="translate(2.235 36.821)">
        <path id="Path_16130" data-name="Path 16130" d="M1509.237,2068.476c0-4.472-5.593-9.641-5.593-9.641,8.389-4.195,9.089-13.835,9.089-13.835h-35.656s.7,9.641,9.089,13.835c0,0-5.593,6.287-5.593,9.641Z" transform="translate(-1477.077 -2045)" fill="#9fd1ff"/>
      </g>
      <g id="Group_10902" data-name="Group 10902" transform="translate(1.196 36.821)">
        <g id="Group_10900" data-name="Group 10900">
          <path id="Path_16131" data-name="Path 16131" d="M1476.7,2045h-5.2s.7,9.64,9.089,13.836c0,0-5.593,6.287-5.593,9.64h5.2c0-3.354,5.593-9.64,5.593-9.64C1477.395,2054.64,1476.7,2045,1476.7,2045Z" transform="translate(-1471.5 -2045)" fill="#d4edff"/>
        </g>
        <g id="Group_10901" data-name="Group 10901" transform="translate(21.371)">
          <path id="Path_16132" data-name="Path 16132" d="M1600.486,2045h-5.2s-.7,9.64-9.089,13.836c0,0,5.593,5.169,5.593,9.64h5.2c0-4.472-5.593-9.64-5.593-9.64C1599.787,2054.64,1600.486,2045,1600.486,2045Z" transform="translate(-1586.202 -2045)" fill="#7ac0f4"/>
        </g>
      </g>
      <g id="Group_10903" data-name="Group 10903" transform="translate(0 34.586)">
        <path id="Path_16133" data-name="Path 16133" d="M1499.474,2062.066H1470.81a2.214,2.214,0,0,1-2.236-2.21c0-3.345,2.6-7.264,4.443-9.633-7.191-5.208-7.9-14.364-7.934-14.79a2.287,2.287,0,0,1,.6-1.7,2.256,2.256,0,0,1,1.634-.732h35.655a2.276,2.276,0,0,1,2.23,2.427c-.029.424-.734,9.485-7.805,14.708,1.856,2.2,4.315,5.822,4.315,9.717A2.217,2.217,0,0,1,1499.474,2062.066Zm-25.834-4.471h23.171a19.123,19.123,0,0,0-4.423-6.275,2.215,2.215,0,0,1-.721-1.95,2.269,2.269,0,0,1,1.214-1.72c4.8-2.4,6.7-7.2,7.425-10.177h-30.33c.729,2.981,2.627,7.784,7.426,10.184a2.259,2.259,0,0,1,1.2,1.611,2.2,2.2,0,0,1-.557,1.9A29.752,29.752,0,0,0,1473.64,2057.594Z" transform="translate(-1465.079 -2033)"/>
      </g>
    </g>
    <g id="Group_10905" data-name="Group 10905" transform="translate(89.5 129.789)">
      <path id="Path_16134" data-name="Path 16134" d="M1798.58,2089.783h48.861l-15.858-15.858a12.124,12.124,0,0,0-17.146,0Z" transform="translate(-1798.58 -2070.375)" fill="#d3c5ff"/>
    </g>
    <g id="Group_10908" data-name="Group 10908" transform="translate(88.461 129.844)">
      <g id="Group_10906" data-name="Group 10906">
        <path id="Path_16135" data-name="Path 16135" d="M1821.244,2071.238a12.22,12.22,0,0,0-12.383,3.156L1793,2090.479h7.62l15.857-16.086A12.656,12.656,0,0,1,1821.244,2071.238Z" transform="translate(-1793.003 -2070.668)" fill="#efebff"/>
      </g>
      <g id="Group_10907" data-name="Group 10907" transform="translate(20.967 0.093)">
        <path id="Path_16136" data-name="Path 16136" d="M1917.918,2074.8a12.164,12.164,0,0,0-12.383-3.041,12.5,12.5,0,0,1,4.763,3.1l15.858,16.029h7.62Z" transform="translate(-1905.535 -2071.165)" fill="#afa4f7"/>
      </g>
    </g>
    <g id="Group_10909" data-name="Group 10909" transform="translate(87.264 127.56)">
      <path id="Path_16137" data-name="Path 16137" d="M1837.676,2082.286h-48.861a2.236,2.236,0,0,1-1.581-3.817l15.858-15.858a14.378,14.378,0,0,1,20.307,0l15.858,15.858a2.236,2.236,0,0,1-1.581,3.817Zm-43.464-4.472h38.066l-12.041-12.041a9.9,9.9,0,0,0-13.984,0Z" transform="translate(-1786.579 -2058.413)"/>
    </g>
    <g id="Group_10910" data-name="Group 10910" transform="translate(120.321 139.084)">
      <path id="Path_16138" data-name="Path 16138" d="M1965.357,2120.333a1.868,1.868,0,1,0,2.306,1.289A1.868,1.868,0,0,0,1965.357,2120.333Z" transform="translate(-1963.997 -2120.261)"/>
    </g>
    <g id="Group_10911" data-name="Group 10911" transform="translate(111.334 133.215)">
      <ellipse id="Ellipse_619" data-name="Ellipse 619" cx="1.868" cy="1.868" rx="1.868" ry="1.868" transform="translate(0 3.261) rotate(-60.801)"/>
    </g>
    <g id="Group_10912" data-name="Group 10912" transform="translate(110.968 139.084)">
      <path id="Path_16139" data-name="Path 16139" d="M1915.162,2120.333a1.868,1.868,0,1,0,2.306,1.289A1.867,1.867,0,0,0,1915.162,2120.333Z" transform="translate(-1913.802 -2120.261)"/>
    </g>
    <g id="Group_10913" data-name="Group 10913" transform="translate(91.225 126.614)">
      <path id="Path_16140" data-name="Path 16140" d="M1809.2,2053.406a1.868,1.868,0,1,0,2.306,1.288A1.868,1.868,0,0,0,1809.2,2053.406Z" transform="translate(-1807.836 -2053.335)"/>
    </g>
    <g id="Group_10914" data-name="Group 10914" transform="translate(132.117 133.215)">
      <ellipse id="Ellipse_620" data-name="Ellipse 620" cx="1.868" cy="1.868" rx="1.868" ry="1.868" transform="translate(0 3.261) rotate(-60.801)"/>
    </g>
    <g id="Group_10915" data-name="Group 10915" transform="translate(97.459 128.693)">
      <path id="Path_16141" data-name="Path 16141" d="M1842.658,2064.561a1.868,1.868,0,1,0,2.306,1.289A1.868,1.868,0,0,0,1842.658,2064.561Z" transform="translate(-1841.299 -2064.49)"/>
    </g>
    <g id="Group_10916" data-name="Group 10916" transform="translate(104.733 122.458)">
      <path id="Path_16142" data-name="Path 16142" d="M1881.7,2031.1a1.868,1.868,0,1,0,2.306,1.289A1.868,1.868,0,0,0,1881.7,2031.1Z" transform="translate(-1880.34 -2031.026)"/>
    </g>
  </g>
</svg>
