<svg id="Group_11643" data-name="Group 11643" xmlns="http://www.w3.org/2000/svg" width="37.42" height="43.073" viewBox="0 0 37.42 43.073">
  <path id="Path_16788" data-name="Path 16788" d="M39.917,5.593l-6.7-1.467L29.943.229c-.007-.007-.02-.007-.02-.013A.732.732,0,0,0,29.775.1c-.027-.013-.04-.034-.067-.04a.521.521,0,0,0-.229-.054c-.007,0-.02-.007-.027-.007H15.8c-.013,0-.02.007-.034.007a.543.543,0,0,0-.229.054.224.224,0,0,0-.067.04.863.863,0,0,0-.148.114c-.007.007-.013.007-.02.013l-3.284,3.9L5.9,5.593a2.169,2.169,0,0,0-1.7,2.12v33.18a2.177,2.177,0,0,0,2.174,2.174h13.4l.007.007a.007.007,0,0,1,.007-.007h6.259v.007a.007.007,0,0,1,.007-.007H39.446a2.177,2.177,0,0,0,2.174-2.174V7.713A2.168,2.168,0,0,0,39.917,5.593Zm-11.9-4.287-5.4,6.259L17.23,1.306H28.018ZM19.127,41.761H6.374a.866.866,0,0,1-.868-.868V7.713A.882.882,0,0,1,6.2,6.865l5.862-1.4,4.671,8.48a.652.652,0,0,0,.478.323.509.509,0,0,0,.1.007.714.714,0,0,0,.451-.175l1.373-1.306V41.761Zm.188-30.952-1.844,1.757-4.3-7.773,2.638-3.13L21.725,8.52Zm6.077,30.952H20.426V11.549L22.62,9.463l2.773,2.631ZM23.522,8.514l5.916-6.858,2.645,3.13-4.294,7.773ZM40.314,21.18h-9.22v-.956h9.22Zm0-2.261H30.441a.653.653,0,0,0-.653.653v2.261a.653.653,0,0,0,.653.653h9.873V40.9a.866.866,0,0,1-.868.868H26.7V13.339l.794.754a.686.686,0,0,0,.451.175.509.509,0,0,0,.1-.007.659.659,0,0,0,.471-.323L33.2,5.451l6.434,1.407a.871.871,0,0,1,.68.848Z" transform="translate(-4.2)" fill="#6d4d45"/>
  <rect id="Rectangle_3385" data-name="Rectangle 3385" width="9.22" height="0.956" transform="translate(26.894 20.224)" fill="#e1ba62"/>
  <path id="Path_16789" data-name="Path 16789" d="M34.348,1.94,28.951,8.2,23.56,1.94Z" transform="translate(-10.53 -0.634)" fill="#f0ca6c"/>
  <path id="Path_16790" data-name="Path 16790" d="M41.464,5.6,37.17,13.37,32.91,9.318,38.826,2.46Z" transform="translate(-13.588 -0.804)" fill="#ccd5dd"/>
  <path id="Path_16791" data-name="Path 16791" d="M26.084,9.318l-2.409,2.295L21.824,13.37,17.53,5.6,20.168,2.46Z" transform="translate(-8.559 -0.804)" fill="#ccd5dd"/>
  <path id="Path_16792" data-name="Path 16792" d="M43.249,5.6,38.956,13.37,38.37,12.8,41.7,5.6,39.992,3.18l.619-.72Z" transform="translate(-15.373 -0.804)" fill="#b5c3cc"/>
  <path id="Path_16793" data-name="Path 16793" d="M22.416,12.8l-.592.565L17.53,5.6,20.168,2.46l.619.72L19.085,5.6Z" transform="translate(-8.559 -0.804)" fill="#d8dfe6"/>
  <path id="Path_16794" data-name="Path 16794" d="M19.762,15.443V44.409H7.008a.866.866,0,0,1-.868-.868V10.361a.882.882,0,0,1,.693-.848l5.862-1.4,4.671,8.48a.652.652,0,0,0,.478.323.509.509,0,0,0,.1.007.714.714,0,0,0,.451-.175ZM30.422,22.22v2.261a.653.653,0,0,0,.653.653h9.873V43.548a.866.866,0,0,1-.868.868H27.333V15.988l.794.754a.686.686,0,0,0,.451.175.509.509,0,0,0,.1-.007.659.659,0,0,0,.471-.323L33.835,8.1l6.434,1.407a.871.871,0,0,1,.68.848V21.56H31.075A.664.664,0,0,0,30.422,22.22Z" transform="translate(-4.834 -2.649)" fill="#f0ca6c"/>
  <path id="Path_16795" data-name="Path 16795" d="M9.72,44.416H7.008a.866.866,0,0,1-.868-.868V10.368a.882.882,0,0,1,.693-.848L12.7,8.12l.242.444-3.352.962a.86.86,0,0,0-.579.848v33.18A.79.79,0,0,0,9.72,44.416Z" transform="translate(-4.834 -2.655)" fill="#ffdb7c"/>
  <path id="Path_16796" data-name="Path 16796" d="M54.3,10.365V21.57h-2.86V10.365a.852.852,0,0,0-.565-.848l-3.9-1.023.215-.384,6.434,1.407A.871.871,0,0,1,54.3,10.365Zm-2.86,14.773H54.3V43.551a.866.866,0,0,1-.868.868H50.719a.807.807,0,0,0,.727-.868V25.137Z" transform="translate(-18.185 -2.652)" fill="#e1ba62"/>
  <path id="Path_16797" data-name="Path 16797" d="M30.5,14.06,28.31,16.146V46.358h4.967V16.691Zm.289,23.185a.885.885,0,1,1,.888-.882A.88.88,0,0,1,30.793,37.245Zm0-9.7a.885.885,0,1,1,.888-.888A.882.882,0,0,1,30.793,27.54Zm0-9.7a.885.885,0,1,1,.888-.888A.892.892,0,0,1,30.793,17.842Z" transform="translate(-12.084 -4.597)" fill="#ccd5dd"/>
  <path id="Path_16798" data-name="Path 16798" d="M30.6,14.147l-1.131,2V46.358H28.32V16.146l2.187-2.086Z" transform="translate(-12.087 -4.597)" fill="#d8dfe6"/>
  <path id="Path_16799" data-name="Path 16799" d="M34.487,16.829V46.5H33.336V16.829L32.01,14.48Z" transform="translate(-13.293 -4.735)" fill="#b5c3cc"/>
  <path id="Path_16800" data-name="Path 16800" d="M32.46,37.341a.885.885,0,1,1-.888-.888A.9.9,0,0,1,32.46,37.341Zm0-9.7a.885.885,0,1,1-.888-.882A.888.888,0,0,1,32.46,27.637Zm0-9.7a.885.885,0,1,1-.888-.882A.888.888,0,0,1,32.46,17.932Z" transform="translate(-12.862 -5.575)" fill="#6d4d45"/>
</svg>
