<svg xmlns="http://www.w3.org/2000/svg" width="22" height="22" viewBox="0 0 22 22">
  <g id="_007-code_scanning" data-name="007-code scanning" transform="translate(-1 -1)">
    <path id="Path_16666" data-name="Path 16666" d="M17,16a1,1,0,0,1-1,1H8a1,1,0,0,1-1-1,1,1,0,0,0-2,0,3,3,0,0,0,3,3h8a3,3,0,0,0,3-3,1,1,0,0,0-2,0Z" fill="#393939"/>
    <path id="Path_16667" data-name="Path 16667" d="M16,5H8A3,3,0,0,0,5,8,1,1,0,0,0,7,8,1,1,0,0,1,8,7h8a1,1,0,0,1,1,1,1,1,0,0,0,2,0A3,3,0,0,0,16,5Z" fill="#393939"/>
    <path id="Path_16668" data-name="Path 16668" d="M2,6A1,1,0,0,0,3,5V4A1,1,0,0,1,4,3H5A1,1,0,0,0,5,1H4A3,3,0,0,0,1,4V5A1,1,0,0,0,2,6Z" fill="#393939"/>
    <path id="Path_16669" data-name="Path 16669" d="M20,1H19a1,1,0,0,0,0,2h1a1,1,0,0,1,1,1V5a1,1,0,0,0,2,0V4A3,3,0,0,0,20,1Z" fill="#393939"/>
    <path id="Path_16670" data-name="Path 16670" d="M4,23H5a1,1,0,0,0,0-2H4a1,1,0,0,1-1-1V19a1,1,0,0,0-2,0v1A3,3,0,0,0,4,23Z" fill="#393939"/>
    <path id="Path_16671" data-name="Path 16671" d="M22,18a1,1,0,0,0-1,1v1a1,1,0,0,1-1,1H19a1,1,0,0,0,0,2h1a3,3,0,0,0,3-3V19A1,1,0,0,0,22,18Z" fill="#393939"/>
    <path id="Path_16672" data-name="Path 16672" d="M21,12a1,1,0,0,0-1-1H4a1,1,0,0,0,0,2H20A1,1,0,0,0,21,12Z" fill="#393939"/>
  </g>
</svg>
