<svg xmlns="http://www.w3.org/2000/svg" width="48.158" height="34.493" viewBox="0 0 48.158 34.493">
  <g id="Group_11650" data-name="Group 11650" transform="translate(0 0)">
    <rect id="Rectangle_3389" data-name="Rectangle 3389" width="15.108" height="3.022" transform="translate(0.87 18.839)" fill="#ee9485"/>
    <path id="Path_16837" data-name="Path 16837" d="M0,0H31.727V18.129H0Z" transform="translate(0.87 0.861)" fill="#bccad8"/>
    <path id="Path_16821" data-name="Path 16821" d="M-617.648,510a.754.754,0,0,0-.755.755v6.8H-632v2.266h15.108v-7.554h16.619V510h-17.374Z" transform="translate(632.87 -500.827)" fill="#88a1ba"/>
    <path id="Path_16822" data-name="Path 16822" d="M-632,504.5v20.849h2.266V508.277a1.508,1.508,0,0,1,1.511-1.511h27.95V504.5Z" transform="translate(632.87 -503.636)" fill="#fff"/>
    <path id="Path_16823" data-name="Path 16823" d="M-631.821,1524.29a.756.756,0,0,0-.755.755V1546.2a.755.755,0,0,0,.755.755h14.352v-1.511h-13.6v-1.511h13.6v-1.511h-13.6V1525.8h30.216v9.065h1.511v-9.82a.756.756,0,0,0-.755-.755Z" transform="translate(632.576 -1524.29)" fill="#3c536b"/>
    <path id="Path_16824" data-name="Path 16824" d="M-625.076,1543.323v-4.532" transform="translate(636.407 -1516.884)" fill="none" stroke="#3c536b" stroke-linecap="round" stroke-linejoin="round" stroke-dashoffset="1.5" stroke-width="2"/>
    <path id="Path_16825" data-name="Path 16825" d="M-627.576,1541.79h18.129" transform="translate(635.13 -1515.351)" fill="none" stroke="#3c536b" stroke-width="2"/>
    <rect id="Rectangle_3391" data-name="Rectangle 3391" width="24.173" height="15.108" transform="translate(15.978 11.437)" fill="#bccad8"/>
    <rect id="Rectangle_3392" data-name="Rectangle 3392" width="13.597" height="1.511" transform="translate(15.978 24.278)" fill="#88a1ba"/>
    <path id="Path_16826" data-name="Path 16826" d="M-622,1531.86v14.568h1.727v-11.691a1.148,1.148,0,0,1,1.151-1.151h21.295v-1.727Z" transform="translate(637.978 -1520.424)" fill="#fff"/>
    <rect id="Rectangle_3393" data-name="Rectangle 3393" width="13.597" height="18.129" transform="translate(29.46 14.352)" fill="#bccad8"/>
    <path id="Path_16827" data-name="Path 16827" d="M-622.564,1541.86H-607.8v2.472h-14.765a1.233,1.233,0,0,1-1.236-1.236A1.233,1.233,0,0,1-622.564,1541.86Z" transform="translate(637.059 -1515.316)" fill="#ee9485"/>
    <path id="Path_16828" data-name="Path 16828" d="M-621.821,1531.29a.756.756,0,0,0-.755.755v15.108a.755.755,0,0,0,.755.755h12.842V1546.4h-12.086v-13.6H-598.4v3.021h1.511v-3.777a.756.756,0,0,0-.755-.755Z" transform="translate(637.684 -1520.715)" fill="#3c536b"/>
    <path id="Path_16829" data-name="Path 16829" d="M-623.889,1541.99a3.212,3.212,0,0,0,3.385,3.021h2.266a3.212,3.212,0,0,1-3.385-3.021Z" transform="translate(637.013 -1515.249)" fill="#fff"/>
    <path id="Path_16830" data-name="Path 16830" d="M-623.821,1541.29a.756.756,0,0,0-.755.755,3.786,3.786,0,0,0,3.777,3.777h12.842v-1.511H-620.8a2.119,2.119,0,0,1-1.956-1.511h14.8v-1.511Z" transform="translate(636.662 -1515.607)" fill="#3c536b"/>
    <path id="Path_16831" data-name="Path 16831" d="M-603.735,1537.66a.754.754,0,0,0-.755.755v9.669H-612.8v1.964h9.82v-10.122h3.475v-2.266h-4.23Z" transform="translate(642.677 -1517.461)" fill="#88a1ba"/>
    <path id="Path_16832" data-name="Path 16832" d="M-612.876,1534.09v17.374h1.626v-14.237a1.508,1.508,0,0,1,1.511-1.511h9.705v-1.626Z" transform="translate(642.639 -1519.285)" fill="#fff"/>
    <rect id="Rectangle_3394" data-name="Rectangle 3394" width="7.554" height="12.388" transform="translate(40.151 21.71)" fill="#bccad8"/>
    <rect id="Rectangle_3395" data-name="Rectangle 3395" width="7.554" height="2.266" transform="translate(40.151 31.379)" fill="#ee9485"/>
    <path id="Path_16833" data-name="Path 16833" d="M-605.7,1539.16v11.126h.956v-9.281a.887.887,0,0,1,.889-.889h5.709v-.956Z" transform="translate(646.304 -1516.695)" fill="#fff"/>
    <path id="Path_16834" data-name="Path 16834" d="M-612.821,1533.29a.756.756,0,0,0-.755.755v18.129a.755.755,0,0,0,.755.755h10.576a.756.756,0,0,0,.755-.755v-9.82h2.266a.755.755,0,0,0,.755-.755v-7.554a.755.755,0,0,0-.755-.755Zm.755,1.511h12.086v6.043h-2.266a.755.755,0,0,0-.755.755v9.82h-9.065Z" transform="translate(642.281 -1519.693)" fill="#3c536b"/>
    <path id="Path_16835" data-name="Path 16835" d="M-598.522,1544.833v6.043h-7.554V1538.79h7.554v3.021" transform="translate(646.112 -1516.884)" fill="none" stroke="#3c536b" stroke-linecap="round" stroke-linejoin="round" stroke-dashoffset="1.5" stroke-width="1"/>
    <path id="Path_16836" data-name="Path 16836" d="M-606.076,1544.79h7.554" transform="translate(646.112 -1513.819)" fill="none" stroke="#3c536b" stroke-width="1"/>
  </g>
</svg>
