<svg id="Group_11639" data-name="Group 11639" xmlns="http://www.w3.org/2000/svg" width="50.748" height="46.903" viewBox="0 0 50.748 46.903">
  <path id="Path_16781" data-name="Path 16781" d="M29.035,17.664C28.519,6.61,17.481,6.489,17,6.489V4.77c.129,0,13.144.146,13.754,12.894Z" transform="translate(-4.535 -4.77)" fill="#84a59d"/>
  <path id="Path_16782" data-name="Path 16782" d="M41.508,4.77h0A12.035,12.035,0,0,1,29.473,16.8h0A12.035,12.035,0,0,1,41.508,4.77ZM14,26.639a5.158,5.158,0,0,1,5.158-4.676,5.158,5.158,0,0,1-4.917,5.158m28.987-2.2a5.158,5.158,0,0,1,5.158-4.676A5.158,5.158,0,0,1,43.468,25.4" transform="translate(-4.114 -4.77)" fill="#84a59d"/>
  <path id="Path_16783" data-name="Path 16783" d="M14.718,33.22H13a6.086,6.086,0,0,0-1.719-4.78,5.94,5.94,0,0,0-4.2-1.238L6.87,25.483a7.616,7.616,0,0,1,5.536,1.65C13.945,28.492,14.718,30.538,14.718,33.22ZM43.946,31.5H42.226a6.086,6.086,0,0,0-1.719-4.78,5.94,5.94,0,0,0-4.2-1.238L36.1,23.764a7.616,7.616,0,0,1,5.536,1.65C43.172,26.773,43.946,28.818,43.946,31.5Z" transform="translate(-3.113 -7.431)" fill="#84a59d"/>
  <path id="Path_16784" data-name="Path 16784" d="M51.407,30.973a4.135,4.135,0,0,0-2.734.163,2.252,2.252,0,0,1-1.427,0,4.092,4.092,0,0,0-2.673-.189A10.737,10.737,0,0,0,41.65,32.46a13.264,13.264,0,0,1,2.192,18.576,10.316,10.316,0,0,0,3.653.86,10.745,10.745,0,0,0,3.911-20.923Z" transform="translate(-7.995 -8.425)" fill="#f6bd60"/>
  <path id="Path_16785" data-name="Path 16785" d="M37.521,30.674a2.948,2.948,0,0,1-1.315-2.622V27.3c0-4.969-2.51-9.026-5.588-9.026s-5.562,4.066-5.562,9.026v.748a2.914,2.914,0,0,1-1.324,2.579c-.3.206-.585.413-.86.636a6.276,6.276,0,0,1,.619.447A11.579,11.579,0,0,1,22.34,50.265,12.439,12.439,0,1,0,37.521,30.674Z" transform="translate(-5.284 -6.665)" fill="#f7ede2"/>
  <path id="Path_16786" data-name="Path 16786" d="M23.99,42.69A10.719,10.719,0,0,0,20.184,34.5a6.482,6.482,0,0,0-6.294-.93,2.218,2.218,0,0,1-1.315,0,7.9,7.9,0,0,0-2.493-.421,5.613,5.613,0,0,0-3.55,1.16,10.762,10.762,0,0,0-4,9.267,10.891,10.891,0,0,0,7.272,9.293,4.066,4.066,0,0,0,2.708-.172,2.166,2.166,0,0,1,1.418,0,4.2,4.2,0,0,0,2.725.155A10.728,10.728,0,0,0,23.99,42.69Z" transform="translate(-2.499 -8.752)" fill="#f28482"/>
  <path id="Path_16787" data-name="Path 16787" d="M13.6,52.846A8.6,8.6,0,0,1,5,44.25H6.719A6.877,6.877,0,0,0,13.6,51.127Zm15.473,2.166V53.293a7.737,7.737,0,0,0,7.737-7.737h1.719A9.456,9.456,0,0,1,29.069,55.012Z" transform="translate(-2.85 -10.312)" fill="#f5cac3"/>
</svg>
