<svg xmlns="http://www.w3.org/2000/svg" width="16.181" height="16.219" viewBox="0 0 16.181 16.219">
  <path id="Path_16610" data-name="Path 16610" d="M16.6,7.012v-4.2a.811.811,0,1,0-1.622,0v4.2a2.433,2.433,0,0,0,0,4.574v5.823a.811.811,0,0,0,1.622,0V11.586a2.433,2.433,0,0,0,0-4.574Zm-.811,3.1A.811.811,0,1,1,16.6,9.3.811.811,0,0,1,15.791,10.11Zm-4.866,1.768V2.811a.811.811,0,1,0-1.622,0v9.067a2.433,2.433,0,0,0,0,4.574v.957a.811.811,0,0,0,1.622,0v-.957a2.433,2.433,0,0,0,0-4.574Zm-.811,3.1a.811.811,0,1,1,.811-.811A.811.811,0,0,1,10.114,14.976ZM5.248,5.39V2.811a.811.811,0,1,0-1.622,0V5.39a2.433,2.433,0,0,0,0,4.574v7.445a.811.811,0,0,0,1.622,0V9.964a2.433,2.433,0,0,0,0-4.574Zm-.811,3.1a.811.811,0,1,1,.811-.811A.811.811,0,0,1,4.437,8.488Z" transform="translate(-2.024 -2)" fill="#ff7f3f"/>
</svg>
