<svg xmlns="http://www.w3.org/2000/svg" xmlns:xlink="http://www.w3.org/1999/xlink" width="46.255" height="46.255" viewBox="0 0 46.255 46.255">
  <defs>
    <clipPath id="clip-path">
      <path id="path18" d="M0-47.5H46.255V-1.245H0Z" transform="translate(0 47.5)"/>
    </clipPath>
  </defs>
  <g id="g10" transform="translate(0 0)">
    <g id="g12">
      <g id="g14" clip-path="url(#clip-path)">
        <g id="g20" transform="translate(1.955 1.566)">
          <path id="path22" d="M-.44-.33-7.553-7.444a3.143,3.143,0,0,0-.183-4.235,3.152,3.152,0,0,0-4.457,0,3.146,3.146,0,0,0-.87,2.778,3.146,3.146,0,0,0-2.778.872,3.152,3.152,0,0,0,0,4.457,3.141,3.141,0,0,0,4.235.181l7.113,7.113Z" transform="translate(16.764 12.602)" fill="#ffd983"/>
        </g>
        <g id="g24" transform="translate(28.733 28.346)">
          <path id="path26" d="M-.109,0,7.006,7.113a3.143,3.143,0,1,1,1.456,5.51,3.146,3.146,0,1,1-5.509-1.457L-4.162,4.053Z" transform="translate(4.162)" fill="#ffd983"/>
        </g>
        <g id="g28" transform="translate(6.318 6.318)">
          <path id="path30" d="M-.847-.383C-2.833-2.371-5.853-2.261-8.435-4.844s-2.475-5.6-4.461-7.589c-4.279-4.279-8.542-1.786-13.772,3.444S-34.388.5-30.111,4.78c1.988,1.988,5.008,1.879,7.589,4.461s2.475,5.6,4.461,7.589c4.279,4.277,8.542,1.786,13.772-3.444S3.432,3.9-.847-.383" transform="translate(32.288 14.611)" fill="#c1694f"/>
        </g>
        <g id="g32" transform="translate(17.04 17.04)">
          <path id="path34" d="M-.033-.328A1.218,1.218,0,0,1-.417-.391,1.216,1.216,0,0,1-1.188-1.93C.163-5.981,5.269-11.087,9.32-12.438a1.213,1.213,0,0,1,1.539.771,1.217,1.217,0,0,1-.769,1.54C6.821-9.038,2.212-4.429,1.122-1.16A1.218,1.218,0,0,1-.033-.328" transform="translate(1.251 12.501)" fill="#662113"/>
        </g>
      </g>
    </g>
  </g>
</svg>
