<svg xmlns="http://www.w3.org/2000/svg" width="22" height="22" viewBox="0 0 22 22">
  <path id="_001-shopping_cart" data-name="001-shopping cart" d="M20.372,6.789,9.136,5.384a2.968,2.968,0,0,0-1.694.3L7.2,3.652A3.007,3.007,0,0,0,4.22,1H2A1,1,0,0,0,2,3H4.22a1,1,0,0,1,1,.887L6.8,17.348A3,3,0,0,0,9.3,19.955,1.981,1.981,0,0,0,9,21a2,2,0,0,0,4,0,1.977,1.977,0,0,0-.278-1h4.556A1.977,1.977,0,0,0,17,21a2,2,0,1,0,4,0,1.977,1.977,0,0,0-.278-1H22a1,1,0,0,0,0-2H9.78a1,1,0,0,1-1-.886l-.141-1.2A2.979,2.979,0,0,0,9.309,16H20a3,3,0,0,0,3-3V9.766a3,3,0,0,0-2.628-2.977ZM21,13a1,1,0,0,1-1,1H9.309a1,1,0,0,1-.993-.883L7.771,8.478A1,1,0,0,1,8.888,7.369l11.236,1.4A1,1,0,0,1,21,9.766Z" transform="translate(-1 -1)" fill="#393939"/>
</svg>
