<svg xmlns="http://www.w3.org/2000/svg" width="84.022" height="102.168" viewBox="0 0 84.022 102.168">
  <g id="Group_10651" data-name="Group 10651" transform="translate(-1898.673 -1180.682)">
    <path id="Path_15930" data-name="Path 15930" d="M2666.774,1445.854a3.466,3.466,0,0,1-6.743,1.234,3,3,0,0,1-.214-1.127,3.4,3.4,0,0,1,.411-1.645v-.018a3.484,3.484,0,0,1,6.546,1.556Z" transform="translate(-742.169 -242.631)" fill="#393939"/>
    <path id="Path_15926" data-name="Path 15926" d="M1950.082,1416.1c-9,0-18.019-.012-27.035.012-1.683-.012-3.354-.012-5.037,0-2.072,0-4.143,0-6.214.012a5.393,5.393,0,0,0-5.049,3.225,11.351,11.351,0,0,0-1.024,3.613c-1.189,10.7-2.3,21.4-3.425,32.1-1.059,9.934-2.13,19.867-3.142,29.813a52.9,52.9,0,0,0-.448,7.944c.236,4.19,2.919,6.685,7.1,7.085.318.024.636.047.953.047q5.826.018,11.676,0c.259,0,.53-.059.859-.094v-63.592c.376-.024.624-.059.859-.059,2.236,0,4.472.012,6.709,0,1.718,0,3.448,0,5.179-.024a1.542,1.542,0,0,1,1.4.859c.659.965,1.306,1.918,1.966,2.884q7.185,10.557,14.383,21.1c.188.294.4.588.753,1.083v-45.937A2.739,2.739,0,0,0,1950.082,1416.1Zm-29.271,1.919a2.376,2.376,0,0,1,2.307,2.483,2.482,2.482,0,0,1-.2.895,2.371,2.371,0,0,1-2.2,1.389,2.384,2.384,0,0,1,.094-4.767Z" transform="translate(0 -217.113)" fill="#ff7f3f"/>
    <path id="Path_15927" data-name="Path 15927" d="M2340.526,1501.152v-42.4c.319.432.54.714.742,1.009q8.126,11.9,16.233,23.808a1.694,1.694,0,0,0,1.613.862c3.857-.038,7.715-.016,11.572-.02.34,0,.68-.032,1.116-.054v-66.878a46.63,46.63,0,0,1,6.452.061c2.537.362,4.419,2.934,4.721,5.789q2.1,19.816,4.2,39.631,1.492,14.118,2.953,28.239a12.317,12.317,0,0,1-.022,2.935c-.644,4.609-3.411,6.98-8.2,7.007-6.1.034-12.2.009-18.3.009h-23.073Z" transform="translate(-407.507 -218.311)" fill="#ff7f3f"/>
    <path id="Path_15928" data-name="Path 15928" d="M2664.4,1444.7a2.281,2.281,0,0,1-4.437.812,1.976,1.976,0,0,1-.141-.742,2.237,2.237,0,0,1,.271-1.083v-.012a2.292,2.292,0,0,1,4.307,1.024Z" transform="translate(-701.979 -241.442)" fill="#393939"/>
    <path id="Path_15929" data-name="Path 15929" d="M2198.933,1196.289h-5.2a18.088,18.088,0,0,0-33.226,0h-5.2c2.648-9,11.417-15.607,21.809-15.607S2196.284,1187.285,2198.933,1196.289Z" transform="translate(-236.681)" fill="#393939"/>
  </g>
</svg>
